<?xml version="1.0" encoding="utf-8"?>
<!-- Generator: Adobe Illustrator 16.0.0, SVG Export Plug-In . SVG Version: 6.00 Build 0)  -->
<!DOCTYPE svg PUBLIC "-//W3C//DTD SVG 1.1//EN" "http://www.w3.org/Graphics/SVG/1.1/DTD/svg11.dtd">
<svg version="1.1" id="Layer_1" xmlns="http://www.w3.org/2000/svg" xmlns:xlink="http://www.w3.org/1999/xlink" x="0px" y="0px"
	 width="32px" height="32px" viewBox="0 0 32 32" enable-background="new 0 0 32 32" xml:space="preserve">
<g>
	<path fill="#FFFFFF" d="M16.252,30.884c-3.966,0-7.691-1.555-10.489-4.377C2.979,23.699,1.445,19.967,1.445,16
		S2.979,8.302,5.763,5.494c2.798-2.822,6.523-4.377,10.489-4.377c3.965,0,7.691,1.555,10.489,4.377
		c2.784,2.809,4.318,6.54,4.318,10.507s-1.534,7.698-4.318,10.507C23.943,29.33,20.217,30.884,16.252,30.884z"/>
	<path fill="#263C94" d="M16.252,1.432c7.977,0,14.444,6.523,14.444,14.569s-6.467,14.568-14.444,14.568S1.808,24.046,1.808,16
		S8.275,1.432,16.252,1.432 M16.252,0.802c-2.062,0-4.062,0.407-5.943,1.21C8.5,2.783,6.878,3.885,5.488,5.289
		c-1.384,1.396-2.47,3.02-3.228,4.826C1.478,11.98,1.082,13.96,1.082,16c0,2.041,0.396,4.021,1.179,5.886
		c0.757,1.807,1.843,3.431,3.228,4.826c1.391,1.402,3.013,2.505,4.821,3.277c1.881,0.802,3.881,1.209,5.943,1.209
		s4.061-0.407,5.943-1.209c1.809-0.772,3.431-1.875,4.821-3.277c1.384-1.396,2.47-3.02,3.227-4.826
		c0.783-1.865,1.18-3.845,1.18-5.886c0-2.041-0.396-4.021-1.18-5.886c-0.757-1.806-1.843-3.43-3.227-4.826
		c-1.391-1.403-3.013-2.506-4.821-3.277C20.313,1.209,18.314,0.802,16.252,0.802L16.252,0.802z"/>
	<ellipse fill="#263C94" cx="16.252" cy="16" rx="11.116" ry="11.213"/>
	<path fill="#FFFFFF" d="M16.519,25.024l0.097-16.296c0,0-0.678-0.438-2.131,0.195c0,0-0.291-2.043,2.471-2.092
		c2.761-0.048,2.761,0,2.761,0v1.995h-2.131v16.296C17.584,25.122,17.342,25.559,16.519,25.024z"/>
	<path fill="#FFFFFF" d="M19.231,13.106l-0.437,11.347c0,0,0,0.596-0.242,0.644c-0.242,0.049-0.363-0.413-0.29-1.07
		c0.072-0.656,0.048-9.898,0.048-9.898s-0.072-1.265,0.582-1.289C18.892,12.838,19.231,12.863,19.231,13.106z"/>
	<path fill="#FFFFFF" d="M19.061,12.449c0,0-0.581,0.681-0.678-0.34c-0.098-1.021,0.097-1.508,0.29-1.484
		C18.868,10.65,19.11,10.795,19.061,12.449z"/>
	<path fill="#FFFFFF" d="M18.341,9.549c0,0,0.108-0.784,0.49-0.419c0.381,0.365,0.599,1.04,0.091,1.295
		C18.414,10.68,18.304,9.95,18.341,9.549z"/>
	<path fill="#FFFFFF" d="M14.962,22.39l0.018-11.071c0,0-0.727-0.019-0.745-1.351c-0.019-1.332,1.871-0.893,1.871-0.893
		s0.254,0.079,0.218,0.419c-0.036,0.34-0.399,0.243-0.641,0.243c-0.243,0-0.219,0.17-0.219,0.292c0,0.121-0.048,0.498,0.291,0.45
		s0.533,0.097,0.533,0.365s0.085,0.34-0.387,0.377c0,0-0.085,0.024-0.048,0.377c0.036,0.353-0.049,11.164-0.049,11.164
		s-0.024,0.133,0.133,0.268c0.157,0.133,0.387,0.474,0.315,0.948c-0.073,0.475-0.182,0.876-1.005,1.118
		c-0.823,0.243-1.15,0.049-1.174-0.401c-0.024-0.449,0.254-0.364,0.363-0.376c0.109-0.013,0.557,0.049,0.508-0.293
		c-0.048-0.34-0.024-0.485-0.314-0.474c-0.291,0.012-0.545,0.024-0.533-0.328c0.012-0.353,0.146-0.389,0.339-0.389
		S14.956,22.932,14.962,22.39z"/>
	<path fill="#FFFFFF" d="M14.604,19.752c-1.294-0.324-2.251-1.479-2.251-2.852c0-1.384,0.971-2.545,2.28-2.859l0.009-0.807
		c-1.772,0-3.209,1.642-3.209,3.667c0,1.965,1.443,3.561,3.143,3.655L14.604,19.752z"/>
	<path fill="#FFFFFF" d="M14.664,21.372l0.001-0.033h-0.002l-0.002-0.197c-1.989-0.284-3.543-2.063-3.543-4.216
		c0-2.151,1.53-3.93,3.518-4.216l-0.005-0.327l0.011-0.808l-0.993-0.048l-0.11,0.91c-0.461,0.15-0.89,0.391-1.269,0.704
		c-0.167-0.21-0.508-0.544-0.862-0.336c-0.497,0.292-0.859,0.973-0.497,1.252c0.145,0.111,0.258,0.211,0.343,0.291
		c-0.297,0.513-0.506,1.097-0.605,1.724c-0.193-0.09-0.825-0.337-0.876,0.26c-0.06,0.705-0.218,1.264,0.497,1.241
		c0.165-0.006,0.278-0.018,0.355-0.032c0.079,0.635,0.27,1.229,0.551,1.755c-0.183,0.132-0.55,0.422-0.495,0.587
		c0.073,0.22,0.545,0.791,0.545,0.791s0.303,0.571,0.763,0.121c0.088-0.086,0.158-0.154,0.212-0.21
		c0.373,0.32,0.794,0.571,1.251,0.731c-0.023,0.271-0.047,0.87,0.196,0.926c0.315,0.073,0.968-0.012,0.968-0.012l0.039-0.706
		c0.003,0,0.006,0.001,0.01,0.001L14.664,21.372z"/>
	<path fill="#FFFFFF" d="M19.303,17.459c0.798,0.199,1.272,0.726,1.272,1.573c0,0.852-0.581,1.313-1.387,1.507l0.013,0.593
		c1.092,0,1.999-0.874,1.999-2.121c0-1.212-0.889-2.195-1.937-2.252L19.303,17.459z"/>
	<path fill="#FFFFFF" d="M19.266,21.715c1.479-0.195,2.343-1.305,2.343-2.766c0-1.462-0.71-2.435-2.192-2.628
		c0,0-0.04-0.114-0.053-0.431c-0.012-0.316-0.108-0.705,0.194-0.705c0.302,0,0.278,0.073,0.267,0.401
		c-0.013,0.329-0.086,0.28,0.254,0.438c0.339,0.158,0.545,0.268,0.545,0.268s0.436-0.523,0.605-0.401
		c0.169,0.121,0.642,0.414,0.46,0.814c-0.182,0.402-0.314,0.317-0.108,0.523c0.205,0.206,0.314,0.729,0.314,0.729
		s0.629-0.134,0.653,0.157c0.024,0.293-0.012,0.791-0.012,0.791s-0.4-0.049-0.473,0.171c-0.072,0.219-0.193,0.973,0.085,1.203
		c0.278,0.231,0.327,0.195,0.17,0.45c-0.158,0.255-0.315,0.62-0.533,0.438c-0.218-0.184-0.399-0.316-0.593,0
		c-0.194,0.315-0.363,0.449-0.17,0.766c0.193,0.315,0,0.243-0.303,0.523c-0.303,0.279-0.399-0.11-0.629-0.269
		c-0.231-0.157-0.437-0.23-0.788-0.073c0,0-0.084,0.036-0.084,0.207s-0.194,0.121-0.134-0.316
		C19.085,22.007,19.094,21.703,19.266,21.715z"/>
	<path fill="#263C94" d="M4.178,16.523c0.006,0.101-0.002,0.188-0.024,0.264c-0.023,0.076-0.057,0.14-0.103,0.191
		c-0.045,0.052-0.101,0.093-0.167,0.121c-0.066,0.029-0.14,0.046-0.221,0.052l-0.011-0.179c0.061-0.008,0.114-0.025,0.157-0.051
		c0.044-0.025,0.079-0.057,0.106-0.096c0.027-0.038,0.046-0.081,0.058-0.13c0.011-0.048,0.015-0.1,0.011-0.153
		c-0.004-0.053-0.013-0.101-0.028-0.144c-0.016-0.042-0.036-0.078-0.063-0.108c-0.026-0.029-0.057-0.052-0.092-0.067
		c-0.036-0.015-0.075-0.021-0.117-0.02c-0.044,0.002-0.082,0.011-0.112,0.028s-0.056,0.043-0.077,0.079
		c-0.021,0.036-0.039,0.083-0.054,0.139c-0.015,0.057-0.03,0.127-0.044,0.209c-0.016,0.08-0.035,0.149-0.058,0.208
		c-0.023,0.059-0.051,0.107-0.085,0.146c-0.033,0.038-0.073,0.068-0.118,0.087c-0.044,0.021-0.098,0.032-0.159,0.035
		c-0.064,0.003-0.125-0.007-0.183-0.028s-0.107-0.053-0.149-0.095c-0.043-0.042-0.077-0.094-0.104-0.155
		c-0.026-0.061-0.042-0.128-0.047-0.203c-0.004-0.079,0.001-0.152,0.02-0.218c0.018-0.067,0.046-0.125,0.086-0.174
		c0.039-0.049,0.088-0.089,0.147-0.119s0.126-0.047,0.203-0.053l0.012,0.181c-0.196,0.028-0.287,0.149-0.273,0.364
		c0.006,0.104,0.034,0.185,0.083,0.238c0.049,0.055,0.111,0.08,0.188,0.077c0.034-0.001,0.063-0.008,0.087-0.02
		c0.024-0.011,0.044-0.03,0.061-0.056c0.017-0.026,0.031-0.06,0.044-0.103c0.013-0.042,0.024-0.094,0.035-0.157
		c0.007-0.042,0.015-0.087,0.024-0.132c0.009-0.044,0.02-0.09,0.034-0.132C3.261,16.31,3.279,16.269,3.3,16.23
		c0.021-0.039,0.048-0.073,0.08-0.103c0.032-0.03,0.071-0.054,0.116-0.072s0.098-0.029,0.16-0.032
		c0.071-0.004,0.138,0.006,0.199,0.029c0.062,0.023,0.116,0.058,0.162,0.102c0.046,0.044,0.083,0.098,0.112,0.162
		C4.157,16.379,4.173,16.448,4.178,16.523z"/>
	<path fill="#263C94" d="M4.129,15.598l-0.002,0.186l-1.63-0.02L2.5,15.578L4.129,15.598z"/>
	<path fill="#263C94" d="M4.215,14.216l-0.016,0.191l-1.343,0.661l1.282,0.08l-0.015,0.177l-1.626-0.101l0.016-0.193l1.346-0.657
		l-1.285-0.08l0.015-0.178L4.215,14.216z"/>
	<path fill="#263C94" d="M3.661,12.711c0.542,0.08,0.765,0.357,0.672,0.83l-0.086,0.442L2.64,13.746l0.086-0.442
		C2.82,12.831,3.131,12.633,3.661,12.711z M3.624,12.901c-0.094-0.014-0.18-0.018-0.258-0.013c-0.078,0.006-0.147,0.024-0.207,0.056
		c-0.06,0.032-0.11,0.08-0.15,0.143c-0.042,0.063-0.071,0.146-0.091,0.248l-0.05,0.256l1.224,0.181l0.05-0.255
		c0.02-0.102,0.022-0.188,0.007-0.259c-0.015-0.071-0.045-0.131-0.09-0.179c-0.046-0.048-0.105-0.086-0.179-0.113
		C3.807,12.937,3.721,12.915,3.624,12.901z"/>
	<path fill="#263C94" d="M4.86,11.585l-0.058,0.182l-0.74-0.177L3.837,12.3l0.74,0.176l-0.057,0.181l-1.572-0.374l0.058-0.181
		l0.644,0.153l0.225-0.709l-0.644-0.153l0.058-0.182L4.86,11.585z"/>
	<path fill="#263C94" d="M5.252,9.642C5.394,9.695,5.48,9.777,5.513,9.887c0.033,0.109,0.009,0.244-0.072,0.403l-0.247,0.486
		l-1.492-0.569l0.233-0.461c0.034-0.067,0.074-0.125,0.12-0.173c0.046-0.047,0.095-0.085,0.147-0.111
		c0.052-0.026,0.107-0.041,0.165-0.044c0.058-0.002,0.116,0.007,0.175,0.029c0.073,0.028,0.128,0.067,0.164,0.118
		s0.056,0.114,0.059,0.19c0.032-0.038,0.068-0.067,0.108-0.09s0.081-0.038,0.123-0.047C5.039,9.61,5.082,9.607,5.125,9.612
		C5.169,9.616,5.211,9.625,5.252,9.642z M4.415,10.274l0.146-0.288c0.048-0.095,0.066-0.171,0.054-0.229S4.556,9.654,4.474,9.623
		C4.437,9.609,4.402,9.602,4.37,9.601c-0.032,0-0.064,0.008-0.094,0.024C4.246,9.641,4.216,9.667,4.188,9.7
		C4.161,9.733,4.133,9.778,4.105,9.832l-0.138,0.271L4.415,10.274z M5.104,10.537l0.159-0.313C5.367,10.02,5.333,9.885,5.162,9.82
		C5.118,9.803,5.077,9.793,5.039,9.792C5.001,9.79,4.965,9.797,4.931,9.815C4.897,9.832,4.864,9.86,4.833,9.899
		c-0.032,0.039-0.064,0.09-0.096,0.153L4.59,10.341L5.104,10.537z"/>
	<path fill="#263C94" d="M4.689,8.4c0.056-0.084,0.125-0.154,0.208-0.208S5.07,8.101,5.168,8.08C5.267,8.06,5.37,8.057,5.479,8.073
		c0.109,0.016,0.218,0.051,0.328,0.105c0.109,0.054,0.198,0.118,0.269,0.191c0.07,0.074,0.121,0.152,0.151,0.236
		c0.03,0.083,0.04,0.17,0.028,0.26S6.208,9.043,6.151,9.129c-0.057,0.086-0.126,0.156-0.209,0.21
		C5.859,9.393,5.768,9.431,5.669,9.451C5.571,9.47,5.467,9.473,5.358,9.457S5.14,9.405,5.031,9.351
		c-0.11-0.055-0.2-0.119-0.271-0.193C4.689,9.083,4.64,9.004,4.61,8.92C4.581,8.836,4.572,8.75,4.585,8.662
		C4.598,8.572,4.633,8.485,4.689,8.4z M5.991,9.05c0.04-0.062,0.065-0.125,0.073-0.188s0-0.127-0.024-0.189
		c-0.025-0.062-0.065-0.12-0.123-0.176C5.86,8.44,5.787,8.39,5.696,8.346C5.607,8.301,5.52,8.271,5.435,8.257
		C5.35,8.243,5.271,8.242,5.198,8.255C5.125,8.269,5.059,8.294,5,8.332C4.941,8.37,4.892,8.419,4.853,8.478
		C4.812,8.54,4.788,8.602,4.779,8.667c-0.009,0.064,0,0.127,0.023,0.188c0.024,0.062,0.064,0.121,0.121,0.177
		C4.98,9.088,5.053,9.138,5.142,9.183c0.09,0.045,0.177,0.075,0.262,0.089C5.488,9.286,5.567,9.287,5.64,9.274
		c0.074-0.013,0.14-0.038,0.2-0.076S5.95,9.11,5.991,9.05z"/>
	<path fill="#263C94" d="M7.422,7.458l-0.145,0.17L6.766,7.507L6.363,7.985l0.292,0.38L6.521,8.523L5.576,7.251l0.138-0.164
		L7.422,7.458z M6.59,7.463L5.811,7.277l0.447,0.578L6.59,7.463z"/>
	<path fill="#263C94" d="M8.401,6.539l-0.159,0.15l-0.425-0.16C7.779,6.516,7.741,6.507,7.702,6.503
		C7.664,6.5,7.625,6.5,7.587,6.506C7.55,6.512,7.514,6.523,7.479,6.54C7.444,6.556,7.413,6.578,7.384,6.604L7.113,6.859l0.512,0.409
		L7.479,7.407L6.28,6.449l0.49-0.46C6.799,5.96,6.828,5.934,6.856,5.911c0.028-0.024,0.057-0.045,0.086-0.064S7.003,5.812,7.035,5.8
		C7.067,5.788,7.102,5.78,7.14,5.776C7.206,5.77,7.27,5.777,7.332,5.797c0.063,0.02,0.119,0.049,0.167,0.088
		c0.042,0.033,0.075,0.069,0.099,0.108c0.023,0.039,0.038,0.079,0.044,0.121s0.003,0.084-0.009,0.128
		C7.62,6.287,7.599,6.33,7.568,6.373l0.003,0.003c0.103-0.052,0.235-0.05,0.395,0.006L8.401,6.539z M6.97,6.745l0.328-0.309
		c0.045-0.042,0.081-0.082,0.105-0.118c0.026-0.037,0.041-0.071,0.045-0.104C7.453,6.181,7.447,6.149,7.43,6.119
		c-0.017-0.03-0.044-0.061-0.083-0.092C7.278,5.973,7.208,5.95,7.136,5.96C7.063,5.971,6.988,6.013,6.909,6.088l-0.35,0.33
		L6.97,6.745z"/>
	<path fill="#263C94" d="M9.03,5.13c0.355,0.363,0.322,0.7-0.1,1.011l-0.395,0.29L7.481,5.354l0.395-0.29
		C8.298,4.753,8.683,4.775,9.03,5.13z M8.861,5.255C8.799,5.192,8.737,5.141,8.673,5.102c-0.063-0.04-0.13-0.064-0.2-0.073
		c-0.069-0.008-0.143,0-0.221,0.026C8.174,5.08,8.09,5.126,7.999,5.193L7.771,5.361l0.804,0.821l0.228-0.167
		C8.893,5.948,8.959,5.883,9,5.82c0.042-0.063,0.063-0.125,0.063-0.188c0-0.063-0.017-0.125-0.053-0.187
		C8.975,5.384,8.925,5.321,8.861,5.255z"/>
	<path fill="#263C94" d="M10.12,3.673c0.099-0.047,0.2-0.076,0.303-0.085c0.103-0.01,0.203-0.001,0.299,0.026
		c0.096,0.027,0.186,0.071,0.27,0.133c0.084,0.063,0.157,0.142,0.218,0.237c0.061,0.095,0.099,0.189,0.116,0.284
		c0.017,0.094,0.013,0.185-0.011,0.27c-0.024,0.085-0.068,0.164-0.132,0.235c-0.063,0.071-0.145,0.131-0.245,0.179
		c-0.1,0.048-0.202,0.077-0.305,0.085c-0.104,0.01-0.203,0-0.3-0.027c-0.096-0.027-0.187-0.072-0.27-0.134
		C9.979,4.813,9.906,4.735,9.845,4.639c-0.061-0.096-0.1-0.192-0.116-0.287c-0.016-0.095-0.011-0.185,0.013-0.27
		C9.767,3.998,9.812,3.92,9.875,3.85C9.94,3.779,10.021,3.72,10.12,3.673z M10.846,4.812c0.072-0.034,0.13-0.077,0.175-0.129
		c0.045-0.051,0.076-0.108,0.091-0.172c0.016-0.063,0.016-0.132,0.001-0.205c-0.016-0.073-0.048-0.149-0.098-0.228
		c-0.051-0.079-0.108-0.144-0.172-0.193c-0.063-0.05-0.131-0.086-0.201-0.108s-0.142-0.03-0.215-0.023
		c-0.073,0.006-0.144,0.026-0.214,0.059c-0.071,0.035-0.129,0.077-0.175,0.128C9.993,3.992,9.962,4.05,9.946,4.113
		C9.93,4.177,9.929,4.245,9.944,4.318c0.015,0.073,0.047,0.149,0.097,0.227c0.05,0.079,0.107,0.143,0.17,0.193
		c0.064,0.05,0.131,0.086,0.202,0.108c0.07,0.022,0.143,0.03,0.217,0.024S10.776,4.846,10.846,4.812z"/>
	<path fill="#263C94" d="M12.285,3.043L11.46,3.321l0.182,0.408l0.717-0.242l0.07,0.156l-0.717,0.242l0.268,0.597l-0.201,0.067
		l-0.591-1.317l1.026-0.346L12.285,3.043z"/>
	<path fill="#263C94" d="M14.557,2.591l-0.531,0.084L14.283,3.9l-0.212,0.033l-0.257-1.225l-0.527,0.083l-0.035-0.166l1.271-0.2
		L14.557,2.591z"/>
	<path fill="#263C94" d="M16.159,3.755l-1.216,0.052l-0.08-1.412l1.179-0.05l0.009,0.168l-0.963,0.041l0.024,0.429l0.901-0.039
		l0.009,0.168l-0.9,0.039l0.027,0.479l1-0.042L16.159,3.755z"/>
	<path fill="#263C94" d="M17.796,2.885l-0.221-0.018c0.001-0.045-0.007-0.087-0.027-0.125c-0.021-0.037-0.048-0.071-0.084-0.099
		s-0.079-0.051-0.129-0.069c-0.05-0.018-0.105-0.029-0.165-0.034c-0.082-0.006-0.158,0-0.226,0.02
		c-0.069,0.019-0.129,0.051-0.18,0.095c-0.052,0.044-0.094,0.101-0.126,0.169c-0.033,0.068-0.054,0.148-0.064,0.24
		c-0.009,0.091-0.006,0.173,0.012,0.245c0.018,0.073,0.047,0.136,0.088,0.188c0.041,0.052,0.092,0.093,0.155,0.124
		c0.063,0.03,0.134,0.049,0.215,0.056c0.063,0.005,0.121,0.002,0.175-0.007c0.053-0.009,0.101-0.026,0.142-0.049
		c0.041-0.023,0.075-0.054,0.103-0.09c0.026-0.036,0.045-0.08,0.056-0.13l0.221,0.018c-0.016,0.074-0.045,0.139-0.087,0.195
		c-0.042,0.055-0.094,0.101-0.155,0.137c-0.063,0.036-0.134,0.061-0.212,0.076c-0.079,0.015-0.164,0.019-0.254,0.011
		c-0.116-0.009-0.219-0.034-0.308-0.076c-0.09-0.042-0.165-0.097-0.223-0.166c-0.059-0.069-0.101-0.15-0.126-0.243
		c-0.026-0.093-0.033-0.194-0.021-0.305c0.012-0.111,0.041-0.21,0.085-0.297c0.045-0.087,0.104-0.16,0.176-0.217
		c0.072-0.058,0.158-0.101,0.254-0.128c0.097-0.026,0.203-0.036,0.318-0.026c0.086,0.007,0.166,0.024,0.24,0.052
		C17.5,2.459,17.565,2.495,17.62,2.54c0.055,0.044,0.098,0.095,0.129,0.154C17.78,2.752,17.796,2.816,17.796,2.885z"/>
	<path fill="#263C94" d="M19.121,4.161L18.91,4.117l0.183-0.647l-0.824-0.175l-0.183,0.646l-0.21-0.044l0.388-1.373l0.21,0.044
		l-0.158,0.563l0.823,0.175l0.159-0.563l0.211,0.044L19.121,4.161z"/>
	<path fill="#263C94" d="M20.551,4.648l-0.205-0.072l-0.31-1.312l-0.483,1.033L19.364,4.23l0.612-1.309l0.208,0.073l0.305,1.313
		l0.484-1.034l0.191,0.067L20.551,4.648z"/>
	<path fill="#263C94" d="M21.004,4.865l-0.189-0.086l0.755-1.252l0.189,0.086L21.004,4.865z"/>
	<path fill="#263C94" d="M23.021,4.784L22.836,4.68c0.025-0.039,0.039-0.08,0.041-0.121c0.003-0.042-0.004-0.082-0.021-0.122
		C22.84,4.398,22.814,4.36,22.78,4.324c-0.036-0.036-0.078-0.068-0.129-0.096c-0.069-0.039-0.139-0.063-0.211-0.073
		c-0.07-0.01-0.141-0.006-0.21,0.012s-0.137,0.052-0.202,0.099s-0.127,0.109-0.185,0.187c-0.058,0.077-0.098,0.151-0.121,0.222
		s-0.03,0.138-0.022,0.201c0.008,0.063,0.032,0.12,0.071,0.172c0.039,0.052,0.093,0.097,0.16,0.135
		c0.054,0.03,0.106,0.052,0.159,0.065c0.052,0.013,0.103,0.018,0.152,0.013c0.048-0.004,0.095-0.017,0.138-0.039
		C22.424,5.201,22.464,5.17,22.5,5.13l0.186,0.104c-0.053,0.059-0.113,0.105-0.18,0.137c-0.066,0.033-0.137,0.052-0.211,0.059
		s-0.15,0.001-0.229-0.018c-0.078-0.019-0.155-0.05-0.231-0.092c-0.098-0.055-0.175-0.119-0.232-0.191
		c-0.057-0.073-0.094-0.152-0.108-0.237c-0.016-0.084-0.01-0.173,0.018-0.265c0.026-0.093,0.074-0.186,0.145-0.279
		c0.069-0.093,0.148-0.169,0.234-0.229c0.087-0.059,0.178-0.1,0.273-0.122c0.095-0.022,0.192-0.026,0.292-0.011
		c0.101,0.015,0.2,0.05,0.297,0.104c0.072,0.041,0.134,0.088,0.185,0.143c0.051,0.054,0.089,0.112,0.113,0.173
		c0.025,0.061,0.035,0.124,0.032,0.189C23.079,4.66,23.058,4.723,23.021,4.784z"/>
	<path fill="#263C94" d="M23.584,6.468l-0.187-0.137l0.174-0.434l-0.522-0.381l-0.456,0.228l-0.175-0.127l1.528-0.732l0.179,0.131
		L23.584,6.468z M23.635,5.748l0.266-0.661l-0.694,0.348L23.635,5.748z"/>
	<path fill="#263C94" d="M24.337,7.16l-0.701-0.631l1.173-0.981l0.15,0.135l-1.033,0.865l0.551,0.495L24.337,7.16z"/>
	<path fill="#263C94" d="M25.603,8.611L24.9,7.749l1.332-0.815l0.681,0.836l-0.157,0.097l-0.558-0.683l-0.404,0.248l0.521,0.638
		l-0.159,0.097l-0.52-0.638l-0.452,0.277l0.578,0.709L25.603,8.611z"/>
	<path fill="#263C94" d="M27.089,9.436c-0.479,0.232-0.854,0.138-1.124-0.281l-0.252-0.392l1.423-0.689l0.252,0.392
		C27.659,8.886,27.559,9.209,27.089,9.436z M26.981,9.268c0.083-0.04,0.153-0.083,0.211-0.129c0.057-0.046,0.097-0.099,0.12-0.156
		c0.023-0.058,0.028-0.122,0.014-0.193c-0.014-0.071-0.05-0.152-0.108-0.243L27.072,8.32l-1.084,0.525l0.146,0.226
		c0.058,0.09,0.118,0.158,0.181,0.206c0.063,0.047,0.13,0.077,0.201,0.09c0.069,0.012,0.144,0.009,0.221-0.009
		C26.813,9.34,26.895,9.31,26.981,9.268z"/>
	<path fill="#263C94" d="M26.681,10.465c-0.04-0.08-0.064-0.152-0.073-0.215s-0.007-0.12,0.007-0.17
		c0.014-0.05,0.037-0.094,0.069-0.131c0.032-0.037,0.07-0.071,0.113-0.1s0.09-0.055,0.141-0.077s0.101-0.042,0.15-0.061l0.867-0.32
		l0.085,0.173l-0.863,0.318c-0.101,0.037-0.179,0.075-0.234,0.113s-0.094,0.078-0.115,0.12c-0.021,0.042-0.028,0.086-0.02,0.133
		c0.007,0.047,0.024,0.098,0.051,0.152c0.027,0.055,0.058,0.102,0.092,0.139c0.033,0.037,0.074,0.064,0.124,0.079
		s0.11,0.019,0.18,0.01c0.07-0.009,0.155-0.032,0.255-0.068l0.864-0.319l0.084,0.173l-0.866,0.32c-0.104,0.039-0.2,0.065-0.289,0.08
		c-0.089,0.014-0.172,0.013-0.247-0.004s-0.144-0.054-0.206-0.109S26.731,10.566,26.681,10.465z"/>
	<path fill="#263C94" d="M28.533,12.009l-0.064-0.183c0.048-0.016,0.089-0.039,0.121-0.069c0.033-0.031,0.058-0.065,0.074-0.105
		c0.016-0.04,0.024-0.083,0.023-0.13c0-0.047-0.009-0.095-0.026-0.145c-0.024-0.068-0.061-0.126-0.107-0.173
		c-0.047-0.047-0.104-0.084-0.171-0.108c-0.066-0.024-0.143-0.037-0.229-0.037c-0.085,0-0.179,0.014-0.279,0.041
		c-0.101,0.027-0.187,0.062-0.258,0.104c-0.071,0.042-0.126,0.089-0.166,0.141c-0.04,0.053-0.063,0.11-0.072,0.172
		s-0.001,0.126,0.023,0.193c0.019,0.052,0.043,0.099,0.073,0.138c0.031,0.039,0.065,0.07,0.106,0.094
		c0.041,0.024,0.086,0.04,0.136,0.047c0.049,0.008,0.103,0.006,0.159-0.004l0.065,0.183c-0.085,0.016-0.164,0.018-0.239,0.005
		c-0.075-0.013-0.144-0.037-0.206-0.073s-0.116-0.083-0.162-0.141c-0.046-0.059-0.082-0.125-0.108-0.2
		c-0.035-0.096-0.047-0.188-0.037-0.276c0.011-0.088,0.041-0.168,0.092-0.242c0.051-0.074,0.121-0.138,0.21-0.194
		s0.194-0.101,0.317-0.133s0.239-0.047,0.35-0.045c0.109,0.003,0.209,0.022,0.299,0.059c0.09,0.036,0.167,0.087,0.232,0.155
		c0.066,0.067,0.116,0.149,0.15,0.245c0.025,0.072,0.038,0.142,0.036,0.212c-0.001,0.07-0.015,0.135-0.041,0.196
		c-0.026,0.061-0.064,0.115-0.115,0.163C28.668,11.945,28.606,11.982,28.533,12.009z"/>
	<path fill="#263C94" d="M27.765,13.616l-0.05-0.208l0.446-0.247l-0.138-0.58l-0.521-0.066l-0.046-0.193l1.723,0.245l0.048,0.2
		L27.765,13.616z M28.319,13.077L29,12.701l-0.794-0.1L28.319,13.077z"/>
	<path fill="#263C94" d="M29.331,14.55l-0.063-0.465l-1.427,0.146l-0.024-0.186l1.426-0.145l-0.063-0.461l0.193-0.02l0.15,1.112
		L29.331,14.55z"/>
	<path fill="#263C94" d="M27.917,15.043l-0.012-0.186l1.627-0.083l0.013,0.186L27.917,15.043z"/>
	<path fill="#263C94" d="M29.596,15.942c-0.002,0.098-0.023,0.188-0.064,0.27c-0.042,0.082-0.101,0.153-0.175,0.212
		c-0.075,0.059-0.164,0.104-0.269,0.138c-0.104,0.032-0.219,0.047-0.346,0.046c-0.125-0.002-0.238-0.02-0.341-0.054
		c-0.104-0.034-0.191-0.082-0.266-0.143c-0.073-0.06-0.13-0.132-0.17-0.216c-0.039-0.083-0.059-0.174-0.057-0.274
		c0.001-0.099,0.023-0.189,0.065-0.271s0.101-0.153,0.176-0.212c0.074-0.059,0.164-0.104,0.269-0.136
		c0.104-0.032,0.22-0.047,0.346-0.045c0.127,0.001,0.241,0.02,0.344,0.055c0.104,0.035,0.192,0.083,0.265,0.144
		c0.072,0.061,0.129,0.133,0.167,0.216C29.58,15.753,29.598,15.844,29.596,15.942z M28.094,15.922
		c-0.001,0.071,0.013,0.136,0.042,0.195c0.029,0.06,0.071,0.112,0.127,0.155c0.057,0.043,0.125,0.078,0.206,0.103
		c0.081,0.024,0.173,0.037,0.277,0.039c0.104,0.001,0.196-0.01,0.278-0.033c0.082-0.022,0.151-0.056,0.208-0.098
		c0.057-0.042,0.1-0.092,0.13-0.15c0.03-0.059,0.045-0.122,0.047-0.19c0.001-0.071-0.013-0.136-0.041-0.195
		c-0.03-0.06-0.071-0.111-0.127-0.155s-0.124-0.078-0.204-0.104c-0.081-0.026-0.173-0.039-0.276-0.04s-0.195,0.01-0.277,0.033
		c-0.082,0.022-0.152,0.055-0.209,0.097c-0.058,0.042-0.102,0.093-0.132,0.151C28.112,15.789,28.096,15.853,28.094,15.922z"/>
	<path fill="#263C94" d="M27.772,17.874l0.023-0.19l1.371-0.615l-1.277-0.123l0.022-0.176l1.62,0.155l-0.024,0.192l-1.373,0.613
		l1.279,0.121l-0.022,0.178L27.772,17.874z"/>
	<path fill="#263C94" d="M25.71,23.379c-0.008,0.004-0.022,0-0.043-0.01c-0.002-0.018,0.001-0.044,0.006-0.086
		c0.022-0.153,0-0.256-0.056-0.305c-0.015-0.015-0.031-0.015-0.049,0.001c-0.025,0.05-0.056,0.099-0.089,0.145
		c-0.102-0.05-0.165-0.081-0.191-0.091c0.039-0.061,0.091-0.143,0.147-0.243c0.045-0.036,0.097-0.041,0.156-0.018
		c0.015,0.003,0.025,0.008,0.038,0.014c0.07,0.031,0.117,0.091,0.142,0.177c0.025,0.087,0.024,0.183,0,0.288
		c-0.013,0.054-0.022,0.083-0.027,0.091C25.738,23.352,25.725,23.367,25.71,23.379L25.71,23.379L25.71,23.379z"/>
	<path fill="#263C94" d="M27.347,23.132c0.066,0.027,0.12,0.072,0.158,0.13c0.024,0.032,0.05,0.089,0.079,0.166
		c0.002,0.006,0.004,0.011,0.006,0.016c-0.01,0.011-0.02,0.02-0.031,0.028c-0.052-0.035-0.096-0.06-0.13-0.074
		c-0.142-0.061-0.448-0.145-0.912-0.265c-0.045-0.012-0.157-0.039-0.341-0.085c-0.042-0.064-0.087-0.148-0.143-0.248
		c0.344,0.079,0.652,0.148,0.92,0.215C27.131,23.058,27.263,23.098,27.347,23.132L27.347,23.132L27.347,23.132z"/>
	<path fill="#263C94" d="M26.967,23.847c0.222,0.094,0.373,0.273,0.442,0.541c0.065,0.252,0.019,0.488-0.138,0.694
		c-0.054,0.074-0.119,0.142-0.192,0.203c-0.018,0.015-0.035,0.029-0.053,0.044c-0.022,0.017-0.044,0.033-0.066,0.049
		c-0.029,0.02-0.058,0.04-0.086,0.059c-0.033,0.021-0.065,0.042-0.099,0.063c0.004-0.017,0.007-0.033,0.01-0.051
		c0.055-0.04,0.096-0.074,0.118-0.096c0.021-0.024,0.044-0.048,0.064-0.071c0.015-0.015,0.029-0.029,0.043-0.044
		c0.063-0.077,0.119-0.18,0.169-0.306c0.102-0.254,0.109-0.489,0.028-0.696c-0.049-0.125-0.104-0.197-0.165-0.219
		c-0.02-0.008-0.039-0.014-0.059-0.021c-0.015-0.003-0.026-0.004-0.035-0.004c-0.015,0.003-0.029,0.007-0.044,0.01
		c0.003,0.018,0.005,0.036,0.008,0.055c0.001,0.024,0.003,0.05,0.005,0.075c-0.007,0.034-0.023,0.072-0.05,0.109
		c-0.044,0.064-0.102,0.112-0.163,0.14c-0.061,0.026-0.119,0.026-0.169,0.002c-0.03-0.012-0.063-0.049-0.1-0.109
		c-0.031-0.06-0.055-0.107-0.063-0.144c-0.021-0.043-0.03-0.084-0.028-0.127s0.015-0.081,0.037-0.113
		c0.039-0.059,0.121-0.096,0.245-0.113c0.058-0.006,0.113-0.006,0.17,0.008c0.028,0.007,0.057,0.013,0.084,0.02
		C26.911,23.819,26.939,23.833,26.967,23.847 M26.673,24.021c-0.023-0.003-0.046,0.002-0.064,0.016
		c-0.024,0.006-0.046,0.025-0.067,0.055c-0.029,0.043-0.027,0.071,0.005,0.093c0.012,0.007,0.03,0.007,0.056,0.003
		c0.005-0.002,0.014-0.006,0.025-0.014c0.009-0.009,0.018-0.018,0.025-0.027c0.017-0.022,0.028-0.045,0.03-0.062
		C26.683,24.071,26.683,24.048,26.673,24.021L26.673,24.021L26.673,24.021z"/>
	<path fill="#263C94" d="M26.185,25.158c-0.239,0.277-0.489,0.54-0.752,0.79c-0.057-0.045-0.114-0.091-0.17-0.137
		c0.209-0.199,0.411-0.408,0.605-0.625c-0.346-0.146-0.687-0.296-1.024-0.453c-0.03,0.018-0.061,0.033-0.09,0.05
		c-0.088-0.063-0.153-0.146-0.195-0.243c0.01-0.004,0.02-0.007,0.03-0.01c0.039,0.028,0.096,0.021,0.165-0.021
		c0.034-0.023,0.088-0.056,0.158-0.102c0.093,0.063,0.15,0.118,0.17,0.171c-0.024,0.017-0.049,0.033-0.073,0.051
		c0.318,0.136,0.642,0.267,0.968,0.391C26.046,25.066,26.116,25.112,26.185,25.158L26.185,25.158z"/>
	<path fill="#263C94" d="M25.371,25.707c0.058,0.045,0.115,0.09,0.173,0.135c-0.058,0.081-0.108,0.153-0.152,0.226
		c-0.109,0.172-0.18,0.304-0.207,0.403c0.247-0.156,0.396-0.257,0.455-0.285c0.045-0.021,0.084-0.016,0.121,0.013
		c0.098,0.078,0.138,0.148,0.122,0.216c-0.032,0.132-0.129,0.318-0.297,0.547s-0.333,0.399-0.485,0.515
		c-0.198,0.149-0.373,0.229-0.524,0.246c-0.225,0.025-0.401-0.038-0.528-0.183c-0.092-0.105-0.123-0.254-0.104-0.438
		c0.021-0.005,0.042-0.01,0.063-0.014c-0.015,0.155,0.007,0.266,0.068,0.335c0.072,0.08,0.19,0.115,0.362,0.1
		c0.2-0.019,0.417-0.111,0.637-0.282c0.187-0.144,0.367-0.336,0.526-0.571c0.146-0.214,0.198-0.332,0.172-0.353
		c-0.02-0.017-0.085,0.012-0.198,0.084c-0.116,0.073-0.234,0.145-0.353,0.213c-0.058,0.032-0.092,0.051-0.104,0.057
		c-0.027,0.014-0.048,0.011-0.062-0.001c-0.043-0.039-0.038-0.146,0.009-0.324C25.083,26.27,25.196,26.059,25.371,25.707
		L25.371,25.707L25.371,25.707z"/>
	<path fill="#263C94" d="M26.111,26.522c0.036,0.028,0.042,0.062,0.021,0.095c-0.094,0.144-0.192,0.284-0.293,0.424
		c-0.021-0.019-0.03-0.037-0.026-0.057c0.001-0.012,0.013-0.041,0.035-0.085C25.938,26.775,26.026,26.649,26.111,26.522
		L26.111,26.522z"/>
	<path fill="#263C94" d="M23.283,27.352c0.042,0.052,0.065,0.112,0.07,0.175c0.005,0.038-0.001,0.096-0.014,0.172
		c-0.001,0.005-0.001,0.01-0.003,0.016c-0.013,0.003-0.025,0.006-0.038,0.008c-0.026-0.052-0.052-0.092-0.073-0.119
		c-0.088-0.114-0.303-0.323-0.629-0.632c-0.033-0.028-0.111-0.103-0.242-0.224c-0.005-0.07-0.002-0.16,0-0.267
		c0.246,0.221,0.469,0.419,0.658,0.596C23.139,27.193,23.229,27.286,23.283,27.352L23.283,27.352L23.283,27.352z"/>
	<path fill="#263C94" d="M12.841,28.844c-0.021,0.062-0.059,0.116-0.112,0.159c-0.03,0.027-0.084,0.061-0.159,0.1
		c-0.005,0.003-0.01,0.006-0.016,0.009c-0.01-0.007-0.021-0.014-0.031-0.021c0.03-0.052,0.05-0.094,0.061-0.126
		c0.047-0.13,0.099-0.404,0.169-0.817c0.007-0.04,0.023-0.141,0.049-0.304c0.06-0.048,0.141-0.103,0.236-0.169
		c-0.043,0.304-0.081,0.577-0.121,0.815C12.894,28.648,12.867,28.767,12.841,28.844L12.841,28.844L12.841,28.844z"/>
	<path fill="#263C94" d="M21.937,26.775c-0.006,0.011-0.017,0.062-0.03,0.148c0.006,0.034,0.029,0.083,0.069,0.147
		c0.044,0.063,0.086,0.126,0.129,0.189c0.024,0.061,0.049,0.121,0.073,0.183c0.036,0.093,0.05,0.217,0.039,0.371
		c0.037,0.015,0.088,0.042,0.151,0.081c0.027,0.026,0.054,0.053,0.081,0.079c0.037,0.056,0.03,0.111-0.015,0.168
		c-0.019,0.022-0.052,0.053-0.103,0.086c-0.028,0.022-0.079,0.049-0.148,0.083c-0.146,0.066-0.293,0.131-0.441,0.191
		c-0.028-0.05-0.056-0.101-0.084-0.15c0.015-0.006,0.029-0.013,0.045-0.019c0.107-0.045,0.202-0.113,0.279-0.2
		c0.06-0.07,0.094-0.149,0.102-0.239c-0.141-0.047-0.232-0.081-0.276-0.096c-0.084-0.021-0.169-0.043-0.252-0.065
		c-0.068-0.019-0.138-0.038-0.206-0.058c-0.115-0.03-0.254-0.061-0.412-0.094c-0.017,0.025-0.034,0.053-0.052,0.079
		c-0.091-0.015-0.181-0.031-0.269-0.047c-0.081-0.027-0.139-0.063-0.167-0.106c-0.027-0.061-0.023-0.128,0.005-0.204
		c0.203,0.027,0.351,0.05,0.441,0.074c0.049,0.013,0.097,0.025,0.146,0.037c0.17,0.055,0.342,0.106,0.519,0.155
		c0.079,0.027,0.16,0.056,0.242,0.082c0.102,0.039,0.205,0.076,0.309,0.113c0.008-0.088,0.002-0.174-0.019-0.253
		c-0.029-0.113-0.071-0.202-0.123-0.269c-0.024-0.029-0.049-0.059-0.072-0.088c-0.017-0.026-0.034-0.053-0.053-0.079
		c-0.045-0.057-0.092-0.113-0.137-0.17c-0.022-0.026-0.032-0.055-0.034-0.082c-0.004-0.013,0.005-0.05,0.027-0.11
		C21.779,26.736,21.857,26.756,21.937,26.775 M22.32,28.008c-0.02-0.015-0.038-0.03-0.058-0.046
		c-0.024-0.017-0.049-0.024-0.073-0.026c-0.005,0.021-0.018,0.06-0.035,0.113c-0.012,0.027-0.033,0.066-0.067,0.117
		c0.014-0.007,0.029-0.014,0.043-0.02C22.272,28.082,22.333,28.035,22.32,28.008L22.32,28.008L22.32,28.008z"/>
	<path fill="#263C94" d="M21.122,26.771c-0.009-0.001-0.018-0.01-0.029-0.028c0.008-0.015,0.023-0.034,0.048-0.064
		c0.095-0.11,0.128-0.199,0.109-0.266c-0.005-0.019-0.018-0.026-0.039-0.024c-0.045,0.026-0.094,0.049-0.143,0.069
		c-0.056-0.09-0.09-0.146-0.105-0.166c0.062-0.027,0.144-0.066,0.238-0.114c0.053-0.008,0.095,0.016,0.131,0.063
		c0.009,0.009,0.017,0.019,0.022,0.029c0.041,0.059,0.048,0.128,0.023,0.208c-0.023,0.079-0.071,0.153-0.144,0.224
		c-0.037,0.037-0.059,0.054-0.067,0.058C21.157,26.764,21.14,26.769,21.122,26.771L21.122,26.771L21.122,26.771z"/>
	<path fill="#263C94" d="M18.761,28.267c-0.009-0.004-0.016-0.014-0.021-0.035c0.013-0.012,0.035-0.027,0.07-0.052
		c0.133-0.087,0.196-0.167,0.198-0.235c0.001-0.02-0.009-0.03-0.031-0.032c-0.056,0.017-0.112,0.028-0.169,0.038
		c-0.027-0.099-0.044-0.161-0.055-0.184c0.073-0.015,0.17-0.034,0.283-0.063c0.056,0.005,0.091,0.035,0.112,0.089
		c0.007,0.011,0.011,0.022,0.015,0.033c0.021,0.066,0.005,0.136-0.045,0.208s-0.124,0.135-0.221,0.188
		c-0.05,0.027-0.077,0.04-0.088,0.042S18.78,28.268,18.761,28.267L18.761,28.267L18.761,28.267z"/>
	<path fill="#263C94" d="M20.415,26.943c0.02,0.039,0.016,0.069-0.009,0.088c-0.109,0.08-0.221,0.159-0.335,0.235
		c-0.011-0.023-0.012-0.044-0.003-0.059c0.003-0.009,0.02-0.03,0.048-0.058C20.217,27.083,20.317,27.013,20.415,26.943
		L20.415,26.943z"/>
	<path fill="#263C94" d="M14.021,28.051c-0.01,0.041-0.034,0.063-0.068,0.067c-0.15,0.012-0.3,0.02-0.453,0.026
		c0.007-0.025,0.02-0.041,0.038-0.05c0.008-0.006,0.038-0.015,0.081-0.022C13.753,28.068,13.887,28.06,14.021,28.051L14.021,28.051z
		"/>
	<path fill="#263C94" d="M11.451,26.672c-0.022,0.038-0.051,0.054-0.084,0.05c-0.142-0.021-0.284-0.045-0.426-0.072
		c0.015-0.023,0.031-0.036,0.05-0.041c0.01-0.003,0.04-0.005,0.083-0.003C11.2,26.63,11.326,26.652,11.451,26.672L11.451,26.672z"/>
	<path fill="#263C94" d="M20.16,28.889c-0.318,0.089-0.64,0.167-0.964,0.234c-0.019-0.065-0.036-0.13-0.055-0.195
		c0.272-0.056,0.543-0.12,0.812-0.192c-0.03-0.084-0.074-0.144-0.126-0.184c-0.034-0.028-0.106-0.059-0.22-0.092
		c0.027-0.072,0.053-0.145,0.077-0.216c0.105,0.038,0.177,0.075,0.219,0.111c0.054,0.045,0.104,0.134,0.155,0.267
		C20.091,28.711,20.125,28.8,20.16,28.889 M20.298,29.115c-0.034,0.069-0.068,0.138-0.104,0.207
		c-0.115-0.005-0.229-0.012-0.342-0.018c0.032-0.065,0.063-0.131,0.094-0.196C20.063,29.112,20.18,29.115,20.298,29.115
		 M19.774,29.264c-0.032,0.065-0.065,0.13-0.1,0.194c-0.117-0.005-0.234-0.013-0.352-0.021c0.034-0.063,0.067-0.126,0.1-0.189
		C19.54,29.254,19.657,29.26,19.774,29.264L19.774,29.264z"/>
	<path fill="#263C94" d="M19.271,29.109c-0.368,0.077-0.741,0.142-1.115,0.19c-0.068,0.009-0.135,0.005-0.194-0.009
		c-0.073-0.018-0.109-0.046-0.115-0.083c-0.006-0.039-0.006-0.065-0.004-0.08c0.001-0.021,0.004-0.048,0.016-0.08
		c0.015-0.002,0.028-0.003,0.043-0.005c0.029,0.054,0.104,0.074,0.219,0.059c0.25-0.033,0.497-0.072,0.744-0.118
		c-0.075-0.293-0.278-0.436-0.604-0.449c-0.005-0.074-0.011-0.149-0.016-0.224c0.214,0.031,0.386,0.108,0.512,0.232
		c0.036,0.036,0.085,0.119,0.139,0.249c0.051,0.113,0.078,0.171,0.086,0.17c0.078-0.017,0.156-0.031,0.234-0.048
		C19.234,28.978,19.252,29.042,19.271,29.109L19.271,29.109z"/>
	<path fill="#263C94" d="M18.744,29.361c0.01,0.042-0.004,0.07-0.04,0.086c-0.151,0.063-0.307,0.124-0.463,0.183
		c-0.005-0.026,0-0.046,0.015-0.06c0.007-0.008,0.032-0.026,0.075-0.049C18.469,29.469,18.608,29.417,18.744,29.361L18.744,29.361z"
		/>
	<path fill="#263C94" d="M16.846,28.827c0.001,0.021-0.001,0.047-0.007,0.078c-0.003,0.014-0.005,0.032-0.012,0.055
		c-0.094-0.069-0.207-0.103-0.35-0.103c-0.108-0.001-0.223,0.04-0.344,0.119c-0.114,0.072-0.171,0.128-0.172,0.167
		c0,0.013,0.011,0.024,0.039,0.032c0.023,0.008,0.071,0.013,0.146,0.014c0.052,0,0.104,0,0.155,0
		c0.144-0.001,0.267,0.001,0.367,0.008c0.064,0.005,0.097,0.03,0.1,0.079c0.011,0.211-0.152,0.376-0.51,0.477
		c-0.267,0.075-0.618,0.107-1.04,0.08c-0.517-0.035-0.754-0.185-0.716-0.409c0.021-0.139,0.116-0.281,0.276-0.434
		c0.009-0.009,0.055-0.049,0.139-0.124c0.025,0.009,0.05,0.018,0.075,0.025c-0.185,0.169-0.292,0.304-0.307,0.414
		c-0.028,0.185,0.177,0.305,0.619,0.334c0.34,0.021,0.699-0.026,1.063-0.14c0.143-0.046,0.214-0.079,0.214-0.101
		c-0.001-0.023-0.038-0.033-0.107-0.033c-0.153,0.003-0.307,0.003-0.461,0c-0.057,0-0.105-0.013-0.149-0.04
		c-0.043-0.022-0.062-0.053-0.06-0.094c0.002-0.063,0.05-0.143,0.142-0.236c0.084-0.087,0.167-0.156,0.251-0.208
		c0.127-0.075,0.25-0.113,0.379-0.119c0.072-0.004,0.137,0.011,0.191,0.041C16.813,28.736,16.838,28.775,16.846,28.827
		L16.846,28.827L16.846,28.827z"/>
	<path fill="#263C94" d="M15.47,28.587c-0.007-0.005-0.01-0.017-0.008-0.038c0.015-0.009,0.043-0.019,0.084-0.033
		c0.157-0.052,0.245-0.113,0.27-0.178c0.008-0.019,0.001-0.031-0.021-0.038c-0.059,0.002-0.117,0-0.175-0.005
		c0.006-0.102,0.01-0.164,0.008-0.189c0.075,0.004,0.176,0.008,0.293,0.009c0.053,0.018,0.078,0.056,0.08,0.112
		c0.003,0.012,0.003,0.023,0.003,0.036c-0.001,0.067-0.04,0.131-0.112,0.188c-0.072,0.057-0.164,0.099-0.275,0.127
		c-0.057,0.014-0.088,0.02-0.099,0.019C15.507,28.597,15.489,28.593,15.47,28.587L15.47,28.587L15.47,28.587z"/>
	<path fill="#263C94" d="M12.231,27.303c-0.005-0.008-0.003-0.019,0.006-0.039c0.017-0.004,0.045-0.007,0.088-0.011
		c0.16-0.011,0.26-0.047,0.306-0.104c0.014-0.015,0.012-0.028-0.004-0.04c-0.054-0.013-0.105-0.029-0.155-0.048
		c0.042-0.096,0.068-0.155,0.075-0.178c0.066,0.021,0.155,0.05,0.26,0.079c0.042,0.029,0.049,0.072,0.031,0.127
		c-0.001,0.013-0.006,0.022-0.01,0.034c-0.026,0.064-0.083,0.116-0.168,0.152c-0.085,0.037-0.182,0.054-0.292,0.054
		c-0.057-0.001-0.086-0.003-0.096-0.007C12.261,27.321,12.246,27.313,12.231,27.303L12.231,27.303L12.231,27.303z"/>
	<path fill="#263C94" d="M9.528,26.673c-0.003-0.009,0.002-0.02,0.016-0.037c0.019,0,0.049,0.004,0.094,0.012
		c0.167,0.03,0.28,0.019,0.341-0.025c0.019-0.012,0.02-0.025,0.006-0.042c-0.052-0.024-0.102-0.054-0.148-0.085
		c0.067-0.084,0.11-0.136,0.123-0.157c0.063,0.038,0.147,0.089,0.248,0.144c0.035,0.04,0.033,0.083,0,0.134
		c-0.004,0.011-0.012,0.021-0.019,0.03c-0.043,0.058-0.114,0.094-0.212,0.108c-0.097,0.016-0.202,0.009-0.315-0.02
		c-0.058-0.015-0.088-0.025-0.098-0.031S9.54,26.686,9.528,26.673L9.528,26.673L9.528,26.673z"/>
	<path fill="#263C94" d="M14.015,29.112c-0.032,0.212-0.165,0.396-0.409,0.545c-0.228,0.141-0.475,0.185-0.725,0.132
		c-0.089-0.017-0.175-0.045-0.258-0.082c-0.02-0.009-0.04-0.018-0.059-0.027c-0.023-0.012-0.046-0.024-0.069-0.036
		c-0.028-0.017-0.056-0.032-0.083-0.049c-0.031-0.019-0.062-0.037-0.093-0.057c0.018-0.003,0.036-0.006,0.053-0.01
		c0.058,0.03,0.104,0.052,0.132,0.061c0.03,0.01,0.06,0.018,0.089,0.027c0.019,0.006,0.038,0.012,0.057,0.018
		c0.096,0.023,0.214,0.034,0.353,0.029c0.282-0.008,0.515-0.083,0.696-0.222c0.108-0.082,0.166-0.152,0.17-0.209
		c0-0.019,0.002-0.037,0.004-0.055c-0.001-0.012-0.003-0.021-0.006-0.03c-0.007-0.01-0.015-0.021-0.022-0.032
		c-0.017,0.009-0.034,0.018-0.051,0.025c-0.024,0.011-0.048,0.021-0.074,0.03c-0.034,0.007-0.076,0.007-0.12-0.002
		c-0.076-0.013-0.139-0.042-0.182-0.082c-0.044-0.04-0.06-0.088-0.05-0.137c0.003-0.028,0.032-0.069,0.082-0.119
		c0.049-0.046,0.091-0.081,0.125-0.102c0.037-0.031,0.074-0.054,0.117-0.066c0.043-0.015,0.083-0.017,0.122-0.01
		c0.067,0.012,0.126,0.064,0.177,0.159c0.022,0.045,0.037,0.09,0.038,0.14c0.001,0.026,0.003,0.051,0.004,0.076
		C14.027,29.055,14.021,29.083,14.015,29.112 M13.766,28.933c-0.003-0.02-0.015-0.036-0.033-0.047
		c-0.012-0.017-0.037-0.028-0.073-0.035c-0.049-0.008-0.077,0.003-0.089,0.037c-0.003,0.012,0,0.026,0.012,0.046
		c0.004,0.003,0.01,0.008,0.021,0.016c0.011,0.004,0.023,0.008,0.034,0.012c0.027,0.004,0.051,0.006,0.069,0.002
		C13.719,28.958,13.741,28.951,13.766,28.933L13.766,28.933L13.766,28.933z"/>
	<path fill="#263C94" d="M12.61,27.614c-0.013,0.003-0.064,0.028-0.15,0.074c-0.026,0.027-0.054,0.074-0.086,0.142
		c-0.029,0.068-0.058,0.138-0.087,0.206c-0.038,0.056-0.076,0.111-0.114,0.166c-0.06,0.083-0.16,0.173-0.303,0.265
		c0.011,0.034,0.019,0.085,0.024,0.151c-0.006,0.035-0.013,0.07-0.019,0.105c-0.025,0.059-0.079,0.091-0.157,0.098
		c-0.032,0.002-0.079-0.001-0.142-0.012c-0.038-0.005-0.093-0.021-0.167-0.045c-0.152-0.053-0.303-0.108-0.452-0.167
		c0.027-0.052,0.054-0.103,0.081-0.153c0.015,0.006,0.03,0.012,0.045,0.018c0.109,0.042,0.23,0.062,0.356,0.056
		c0.099-0.006,0.192-0.034,0.276-0.086c-0.047-0.124-0.076-0.205-0.091-0.244c-0.035-0.068-0.069-0.139-0.102-0.208
		c-0.027-0.058-0.054-0.115-0.08-0.172c-0.047-0.097-0.11-0.207-0.18-0.333c-0.035,0.006-0.07,0.011-0.106,0.016
		c-0.044-0.068-0.088-0.138-0.13-0.207c-0.028-0.071-0.033-0.133-0.013-0.179c0.035-0.057,0.098-0.098,0.185-0.128
		c0.107,0.151,0.183,0.265,0.219,0.34c0.02,0.04,0.04,0.08,0.061,0.12c0.06,0.147,0.125,0.294,0.194,0.44
		c0.026,0.071,0.053,0.142,0.081,0.213c0.03,0.092,0.063,0.184,0.096,0.276c0.083-0.052,0.155-0.111,0.212-0.176
		c0.082-0.093,0.134-0.177,0.159-0.254c0.01-0.034,0.021-0.068,0.032-0.103c0.013-0.029,0.025-0.059,0.037-0.087
		c0.021-0.065,0.042-0.132,0.063-0.198c0.01-0.032,0.028-0.057,0.052-0.077c0.009-0.01,0.047-0.027,0.114-0.052
		C12.546,27.484,12.578,27.549,12.61,27.614 M11.763,28.659c0.001-0.022,0.002-0.045,0.004-0.066
		c-0.001-0.028-0.009-0.049-0.023-0.066c-0.022,0.011-0.064,0.026-0.123,0.051c-0.031,0.009-0.08,0.021-0.146,0.03
		c0.015,0.005,0.03,0.011,0.045,0.016C11.669,28.674,11.747,28.684,11.763,28.659L11.763,28.659L11.763,28.659z"/>
	<path fill="#263C94" d="M9.995,28.005C9.7,27.86,9.412,27.703,9.13,27.536c0.044-0.056,0.088-0.11,0.132-0.166
		c0.237,0.142,0.479,0.274,0.725,0.4c0.051-0.076,0.074-0.145,0.073-0.205c0-0.041-0.023-0.107-0.071-0.203
		c0.081-0.03,0.161-0.063,0.24-0.094c0.039,0.094,0.055,0.165,0.052,0.215c-0.002,0.064-0.045,0.157-0.125,0.278
		C10.103,27.842,10.048,27.924,9.995,28.005 M9.624,28.122c-0.078,0.024-0.156,0.047-0.235,0.07c-0.078-0.08-0.153-0.16-0.228-0.241
		c0.078-0.021,0.155-0.042,0.231-0.064C9.468,27.965,9.545,28.044,9.624,28.122L9.624,28.122z"/>
	<path fill="#263C94" d="M8.861,27.007c0.033-0.031,0.012-0.084-0.056-0.157c-0.049-0.055-0.108-0.103-0.177-0.153
		c-0.114-0.08-0.257-0.15-0.428-0.216c-0.12-0.045-0.263-0.101-0.437-0.17c0.228,0.189,0.462,0.37,0.703,0.541
		C8.683,27.004,8.817,27.052,8.861,27.007L8.861,27.007 M7.059,25.972c-0.05-0.047-0.09-0.097-0.127-0.154
		c-0.03-0.047-0.056-0.098-0.075-0.154c-0.034-0.009-0.068-0.018-0.103-0.027c-0.037-0.013-0.063-0.028-0.077-0.043
		c-0.111-0.115-0.22-0.234-0.327-0.356c0.061-0.041,0.122-0.082,0.183-0.123c0.097,0.11,0.196,0.219,0.297,0.323
		c0.024,0.027,0.054,0.039,0.091,0.036c0.037-0.002,0.067-0.016,0.094-0.035c0.021-0.015,0.037-0.031,0.053-0.048
		c0.02-0.021,0.04-0.04,0.053-0.063c0.038,0.003,0.076,0.007,0.114,0.011c-0.127,0.214-0.107,0.403,0.056,0.556
		c0.084,0.078,0.197,0.157,0.348,0.238c0.141,0.078,0.264,0.128,0.373,0.158s0.23,0.062,0.367,0.097
		c0.219,0.066,0.399,0.146,0.549,0.249c0.134,0.093,0.219,0.183,0.253,0.278c0.035,0.093,0.014,0.178-0.058,0.259
		c-0.042,0.007-0.083,0.015-0.125,0.021c0.111,0.07,0.223,0.139,0.336,0.206c-0.046,0.058-0.091,0.117-0.138,0.175
		C8.428,27.124,7.709,26.589,7.059,25.972L7.059,25.972z"/>
	<path fill="#263C94" d="M8.837,25.75c-0.033,0.032-0.067,0.041-0.1,0.027c-0.139-0.06-0.278-0.123-0.417-0.189
		c0.021-0.02,0.042-0.027,0.063-0.026c0.011,0,0.042,0.006,0.085,0.02C8.591,25.64,8.714,25.697,8.837,25.75L8.837,25.75z"/>
	<path fill="#263C94" d="M6.404,25.297c-0.063-0.069-0.124-0.14-0.185-0.212c-0.105-0.124-0.102-0.256,0.01-0.386
		c0.043-0.05,0.12-0.119,0.231-0.203c0,0,0.087-0.063,0.259-0.184c0.071-0.048,0.12-0.085,0.154-0.113
		c0.064-0.057,0.104-0.106,0.121-0.148C7.014,24,7.023,23.953,7.02,23.909c0.117,0.019,0.233,0.034,0.348,0.048
		c-0.061,0.086-0.149,0.178-0.266,0.276c-0.071,0.056-0.175,0.133-0.314,0.229c-0.148,0.101-0.253,0.176-0.313,0.227
		c-0.057,0.049-0.092,0.104-0.102,0.161c-0.005,0.046,0.002,0.083,0.031,0.116c0.06,0.07,0.12,0.14,0.181,0.209
		C6.525,25.215,6.464,25.256,6.404,25.297L6.404,25.297z"/>
	<path fill="#263C94" d="M5.689,24.249c-0.129,0.073-0.292,0.083-0.493,0.024c-0.219-0.063-0.396-0.2-0.521-0.407
		c-0.038-0.063-0.071-0.13-0.099-0.204C4.556,23.599,4.53,23.51,4.5,23.385c0.025,0.015,0.049,0.03,0.074,0.045
		c0.012,0.028,0.028,0.068,0.051,0.125c0.01,0.024,0.028,0.055,0.045,0.09c0.059,0.102,0.137,0.19,0.227,0.262
		c0.104,0.079,0.214,0.148,0.322,0.203c0.148,0.071,0.249,0.089,0.305,0.064c0.028-0.011,0.058-0.059,0.089-0.139
		c0.034-0.081,0.061-0.127,0.082-0.137c0.012-0.006,0.04-0.007,0.081-0.001c0.053,0.008,0.105,0.016,0.157,0.022
		c-0.022,0.078-0.053,0.148-0.095,0.203C5.796,24.177,5.745,24.218,5.689,24.249L5.689,24.249L5.689,24.249z"/>
	<path fill="#263C94" d="M5.052,24.568c-0.042,0.022-0.08,0.019-0.111-0.01c-0.135-0.122-0.268-0.25-0.398-0.38
		c0.026-0.013,0.05-0.014,0.071-0.005c0.012,0.004,0.042,0.023,0.086,0.057C4.816,24.346,4.933,24.458,5.052,24.568L5.052,24.568z"
		/>
</g>
</svg>
