<?xml version="1.0" encoding="utf-8"?>
<!-- Generator: Adobe Illustrator 16.0.0, SVG Export Plug-In . SVG Version: 6.00 Build 0)  -->
<!DOCTYPE svg PUBLIC "-//W3C//DTD SVG 1.1//EN" "http://www.w3.org/Graphics/SVG/1.1/DTD/svg11.dtd">
<svg version="1.1" id="Layer_1" xmlns="http://www.w3.org/2000/svg" xmlns:xlink="http://www.w3.org/1999/xlink" x="0px" y="0px"
	 width="250px" height="86px" viewBox="0 0 250 86" enable-background="new 0 0 250 86" xml:space="preserve">
<path fill="#FFFFFF" d="M38.791,79.477c-9.551,0-18.524-3.744-25.265-10.542C6.818,62.169,3.125,53.181,3.125,43.625
	c0-9.556,3.693-18.542,10.4-25.307C20.266,11.519,29.239,7.774,38.79,7.774c9.553,0,18.525,3.745,25.265,10.543
	c6.709,6.765,10.403,15.752,10.403,25.307c0,9.556-3.694,18.544-10.403,25.308C57.315,75.732,48.343,79.477,38.791,79.477z"/>
<path fill="#244094" d="M38.791,8.533c19.215,0,34.793,15.712,34.793,35.092c0,19.381-15.578,35.092-34.793,35.092
	c-19.214,0-34.792-15.711-34.792-35.092C3.999,24.245,19.577,8.533,38.791,8.533 M38.791,7.016c-4.965,0-9.783,0.98-14.314,2.914
	c-4.356,1.857-8.264,4.513-11.613,7.893c-3.333,3.363-5.95,7.274-7.774,11.625C3.205,33.941,2.25,38.71,2.25,43.625
	c0,4.916,0.956,9.684,2.839,14.177c1.824,4.354,4.44,8.265,7.774,11.626c3.35,3.379,7.257,6.035,11.613,7.895
	c4.531,1.932,9.349,2.913,14.314,2.913c4.967,0,9.783-0.981,14.315-2.913c4.356-1.859,8.264-4.515,11.614-7.895
	c3.334-3.361,5.949-7.272,7.772-11.626c1.885-4.493,2.84-9.262,2.84-14.177c0-4.914-0.955-9.685-2.841-14.178
	c-1.823-4.351-4.438-8.262-7.772-11.625c-3.35-3.379-7.257-6.035-11.615-7.893C48.573,7.996,43.758,7.016,38.791,7.016L38.791,7.016
	z"/>
<ellipse fill="#244094" cx="38.791" cy="43.626" rx="26.777" ry="27.009"/>
<path fill="#FFFFFF" d="M39.434,65.359l0.233-39.252c0,0-1.634-1.054-5.134,0.47c0,0-0.702-4.921,5.952-5.039
	c6.649-0.117,6.649,0,6.649,0v4.804H42v39.253C41.999,65.596,41.416,66.648,39.434,65.359z"/>
<path fill="#FFFFFF" d="M45.966,36.652l-1.05,27.332c0,0,0,1.435-0.584,1.551c-0.583,0.119-0.873-0.994-0.7-2.577
	c0.176-1.58,0.117-23.843,0.117-23.843s-0.174-3.045,1.401-3.105C45.15,36.009,45.966,36.069,45.966,36.652z"/>
<path fill="#FFFFFF" d="M45.558,35.071c0,0-1.399,1.64-1.633-0.819c-0.233-2.46,0.234-3.632,0.701-3.573
	C45.091,30.736,45.674,31.088,45.558,35.071z"/>
<path fill="#FFFFFF" d="M43.823,28.086c0,0,0.262-1.889,1.181-1.012c0.919,0.88,1.444,2.505,0.22,3.121
	C43.997,30.81,43.734,29.053,43.823,28.086z"/>
<path fill="#FFFFFF" d="M35.685,59.019l0.045-26.67c0,0-1.751-0.044-1.795-3.253c-0.044-3.208,4.507-2.153,4.507-2.153
	s0.612,0.191,0.525,1.011c-0.087,0.82-0.963,0.585-1.545,0.585c-0.584,0-0.526,0.411-0.526,0.704c0,0.293-0.116,1.2,0.701,1.083
	c0.815-0.118,1.283,0.233,1.283,0.879c0,0.644,0.204,0.819-0.934,0.907c0,0-0.203,0.059-0.116,0.908
	c0.087,0.852-0.117,26.891-0.117,26.891s-0.059,0.321,0.32,0.645c0.378,0.322,0.934,1.142,0.758,2.283
	c-0.174,1.144-0.437,2.11-2.421,2.694c-1.984,0.586-2.771,0.119-2.829-0.965c-0.059-1.084,0.611-0.878,0.875-0.907
	c0.263-0.03,1.341,0.117,1.225-0.705c-0.117-0.817-0.058-1.17-0.758-1.142c-0.701,0.03-1.312,0.06-1.284-0.79
	c0.03-0.851,0.351-0.938,0.817-0.938C34.883,60.088,35.67,60.322,35.685,59.019z"/>
<path fill="#FFFFFF" d="M34.822,52.665c-3.117-0.784-5.423-3.563-5.423-6.873c0-3.333,2.34-6.13,5.491-6.886l0.023-1.944
	c-4.27,0-7.73,3.954-7.73,8.83c0,4.734,3.476,8.579,7.57,8.805L34.822,52.665z"/>
<path fill="#FFFFFF" d="M34.965,56.564l0.004-0.08l-0.005-0.001l-0.006-0.474c-4.792-0.687-8.535-4.972-8.535-10.158
	c0-5.182,3.686-9.466,8.472-10.157l-0.011-0.787l0.026-1.946l-2.392-0.118l-0.263,2.192c-1.113,0.363-2.143,0.941-3.056,1.696
	c-0.404-0.506-1.225-1.313-2.076-0.811c-1.196,0.703-2.07,2.343-1.196,3.016c0.348,0.27,0.622,0.509,0.826,0.702
	c-0.716,1.236-1.22,2.643-1.457,4.153c-0.467-0.217-1.988-0.811-2.11,0.627c-0.145,1.696-0.525,3.044,1.196,2.986
	c0.396-0.014,0.669-0.041,0.856-0.077c0.19,1.528,0.649,2.961,1.328,4.226c-0.44,0.316-1.324,1.018-1.192,1.417
	c0.175,0.526,1.313,1.902,1.313,1.902s0.73,1.379,1.838,0.294c0.212-0.208,0.379-0.372,0.511-0.508
	c0.897,0.773,1.914,1.377,3.013,1.763c-0.056,0.655-0.113,2.096,0.471,2.229c0.758,0.179,2.333-0.027,2.333-0.027l0.093-1.698
	c0.009,0,0.016,0,0.023,0L34.965,56.564z"/>
<path fill="#FFFFFF" d="M46.141,47.142c1.92,0.479,3.065,1.747,3.065,3.786c0,2.055-1.4,3.164-3.342,3.63l0.033,1.428
	c2.629,0,4.813-2.104,4.813-5.108c0-2.916-2.141-5.286-4.664-5.424L46.141,47.142z"/>
<path fill="#FFFFFF" d="M46.05,57.392c3.566-0.471,5.644-3.143,5.644-6.664c0-3.52-1.71-5.863-5.281-6.329
	c0,0-0.097-0.274-0.126-1.037c-0.029-0.762-0.262-1.699,0.468-1.699c0.729,0,0.671,0.175,0.642,0.967
	c-0.03,0.791-0.205,0.674,0.613,1.055c0.816,0.381,1.313,0.645,1.313,0.645s1.049-1.26,1.458-0.967
	c0.408,0.293,1.546,0.996,1.107,1.961c-0.437,0.968-0.758,0.762-0.262,1.26s0.758,1.761,0.758,1.761s1.516-0.325,1.574,0.378
	c0.058,0.704-0.029,1.904-0.029,1.904s-0.963-0.119-1.137,0.41c-0.175,0.527-0.466,2.344,0.203,2.9
	c0.671,0.557,0.788,0.469,0.41,1.082c-0.38,0.616-0.758,1.495-1.282,1.056c-0.526-0.439-0.964-0.763-1.429,0
	c-0.467,0.763-0.876,1.084-0.41,1.846c0.468,0.761,0,0.588-0.728,1.261c-0.73,0.672-0.963-0.265-1.518-0.646
	c-0.554-0.378-1.05-0.557-1.895-0.177c0,0-0.205,0.089-0.205,0.499c0,0.411-0.467,0.292-0.32-0.764
	C45.617,58.094,45.639,57.36,46.05,57.392z"/>
<path fill="#244094" d="M9.708,44.884c0.015,0.241-0.003,0.452-0.058,0.634c-0.055,0.182-0.137,0.338-0.247,0.462
	C9.294,46.104,9.159,46.202,9,46.271c-0.157,0.071-0.337,0.11-0.531,0.125l-0.028-0.43c0.148-0.019,0.273-0.061,0.379-0.122
	c0.105-0.063,0.19-0.138,0.257-0.232c0.064-0.092,0.11-0.196,0.138-0.313c0.025-0.115,0.035-0.238,0.027-0.37
	c-0.009-0.125-0.031-0.241-0.068-0.344c-0.037-0.103-0.088-0.189-0.15-0.26c-0.063-0.073-0.137-0.125-0.222-0.163
	c-0.085-0.035-0.18-0.051-0.282-0.046c-0.107,0.005-0.197,0.026-0.27,0.066c-0.072,0.043-0.135,0.105-0.183,0.191
	c-0.051,0.086-0.094,0.198-0.13,0.336c-0.037,0.135-0.072,0.304-0.106,0.503c-0.038,0.192-0.084,0.36-0.139,0.501
	c-0.055,0.143-0.125,0.26-0.206,0.351c-0.079,0.091-0.174,0.164-0.283,0.211c-0.108,0.049-0.235,0.076-0.383,0.084
	c-0.156,0.007-0.303-0.016-0.439-0.068c-0.139-0.05-0.258-0.128-0.361-0.229c-0.103-0.101-0.186-0.226-0.25-0.373
	c-0.065-0.145-0.102-0.307-0.113-0.488c-0.011-0.191,0.003-0.367,0.048-0.524c0.043-0.162,0.112-0.3,0.208-0.419
	c0.094-0.117,0.212-0.215,0.353-0.284c0.142-0.072,0.304-0.115,0.488-0.128l0.029,0.436c-0.471,0.067-0.69,0.361-0.657,0.879
	c0.016,0.251,0.083,0.444,0.2,0.574c0.116,0.133,0.265,0.194,0.45,0.185c0.083-0.003,0.153-0.02,0.21-0.048
	c0.058-0.028,0.105-0.072,0.146-0.137c0.041-0.062,0.077-0.145,0.105-0.246c0.031-0.1,0.06-0.228,0.085-0.378
	c0.017-0.101,0.037-0.208,0.058-0.316c0.021-0.107,0.048-0.218,0.083-0.32c0.035-0.104,0.077-0.201,0.129-0.295
	c0.052-0.093,0.116-0.175,0.193-0.245c0.076-0.074,0.169-0.132,0.277-0.176c0.108-0.044,0.236-0.071,0.386-0.076
	c0.172-0.01,0.332,0.015,0.48,0.068c0.149,0.058,0.279,0.139,0.39,0.248c0.11,0.105,0.2,0.236,0.269,0.388
	C9.657,44.536,9.697,44.703,9.708,44.884z"/>
<path fill="#244094" d="M9.589,42.655l-0.006,0.45l-3.925-0.049l0.005-0.449L9.589,42.655z"/>
<path fill="#244094" d="M9.798,39.328l-0.039,0.461l-3.236,1.59l3.089,0.192l-0.036,0.426L5.66,41.754l0.039-0.465l3.242-1.584
	l-3.094-0.192l0.035-0.429L9.798,39.328z"/>
<path fill="#244094" d="M8.463,35.702c1.303,0.192,1.843,0.859,1.62,1.998l-0.209,1.066l-3.871-0.57l0.208-1.065
	C6.436,35.989,7.185,35.513,8.463,35.702z M8.373,36.161c-0.227-0.035-0.433-0.045-0.621-0.033
	c-0.187,0.015-0.354,0.058-0.497,0.135c-0.145,0.077-0.265,0.19-0.363,0.343c-0.099,0.152-0.172,0.35-0.221,0.596l-0.119,0.616
	l2.949,0.435l0.121-0.615c0.047-0.243,0.054-0.452,0.018-0.624c-0.035-0.172-0.108-0.315-0.217-0.431
	c-0.111-0.117-0.254-0.207-0.431-0.273C8.814,36.246,8.608,36.194,8.373,36.161z"/>
<path fill="#244094" d="M11.352,32.989l-0.14,0.439l-1.784-0.426l-0.54,1.708l1.784,0.425l-0.138,0.436l-3.787-0.902l0.139-0.435
	l1.551,0.369l0.542-1.708l-1.552-0.369l0.14-0.439L11.352,32.989z"/>
<path fill="#244094" d="M12.296,28.308c0.34,0.129,0.548,0.326,0.628,0.592c0.079,0.264,0.022,0.589-0.173,0.971l-0.594,1.17
	l-3.593-1.37l0.562-1.109c0.083-0.163,0.178-0.302,0.289-0.418c0.108-0.115,0.227-0.204,0.354-0.269
	c0.127-0.062,0.259-0.097,0.397-0.104c0.14-0.006,0.279,0.017,0.422,0.071c0.175,0.068,0.308,0.163,0.396,0.283
	c0.086,0.123,0.134,0.273,0.141,0.458c0.077-0.092,0.165-0.163,0.261-0.217c0.096-0.055,0.194-0.091,0.296-0.114
	c0.102-0.02,0.205-0.026,0.31-0.016C12.094,28.246,12.196,28.269,12.296,28.308z M10.279,29.832l0.352-0.694
	c0.116-0.229,0.159-0.412,0.13-0.552c-0.028-0.14-0.142-0.247-0.339-0.323c-0.089-0.034-0.173-0.052-0.252-0.053
	c-0.079-0.001-0.154,0.018-0.227,0.057c-0.073,0.038-0.142,0.099-0.21,0.18c-0.067,0.082-0.134,0.188-0.201,0.319L9.2,29.42
	L10.279,29.832z M11.939,30.464l0.383-0.755c0.249-0.491,0.167-0.814-0.245-0.972c-0.107-0.042-0.206-0.063-0.296-0.068
	c-0.091-0.005-0.177,0.013-0.259,0.055c-0.082,0.042-0.162,0.11-0.238,0.202c-0.076,0.093-0.152,0.217-0.231,0.37L10.7,29.993
	L11.939,30.464z"/>
<path fill="#244094" d="M10.939,25.319c0.135-0.204,0.302-0.373,0.5-0.502c0.198-0.131,0.417-0.221,0.653-0.271
	c0.238-0.049,0.486-0.054,0.75-0.016c0.263,0.038,0.525,0.122,0.788,0.252c0.263,0.131,0.478,0.285,0.648,0.461
	c0.169,0.176,0.292,0.366,0.364,0.568c0.072,0.201,0.095,0.411,0.067,0.627c-0.029,0.215-0.112,0.427-0.25,0.634
	c-0.137,0.208-0.306,0.376-0.505,0.507c-0.199,0.13-0.418,0.22-0.655,0.269c-0.238,0.048-0.489,0.054-0.751,0.015
	c-0.264-0.04-0.525-0.124-0.789-0.255c-0.265-0.132-0.481-0.287-0.65-0.465c-0.17-0.179-0.291-0.369-0.362-0.571
	c-0.071-0.201-0.09-0.41-0.06-0.624C10.719,25.732,10.804,25.523,10.939,25.319z M14.074,26.883
	c0.098-0.148,0.156-0.299,0.176-0.453c0.019-0.155,0-0.308-0.059-0.455c-0.059-0.148-0.157-0.29-0.294-0.424
	c-0.136-0.134-0.314-0.254-0.531-0.362c-0.216-0.109-0.426-0.179-0.63-0.214c-0.205-0.033-0.395-0.036-0.571-0.003
	c-0.175,0.031-0.335,0.091-0.476,0.183c-0.143,0.092-0.261,0.21-0.356,0.352c-0.096,0.149-0.156,0.3-0.176,0.454
	c-0.021,0.154-0.001,0.305,0.056,0.454c0.06,0.149,0.156,0.291,0.292,0.426c0.136,0.135,0.311,0.256,0.525,0.363
	c0.217,0.108,0.427,0.18,0.63,0.214c0.203,0.035,0.393,0.036,0.571,0.006c0.176-0.03,0.337-0.091,0.482-0.184
	C13.856,27.148,13.977,27.029,14.074,26.883z"/>
<path fill="#244094" d="M17.522,23.05l-0.348,0.412l-1.232-0.294l-0.972,1.151l0.704,0.916l-0.323,0.382l-2.276-3.065l0.333-0.395
	L17.522,23.05z M15.517,23.06l-1.875-0.446l1.076,1.39L15.517,23.06z"/>
<path fill="#244094" d="M19.88,20.834l-0.384,0.362l-1.023-0.384c-0.09-0.032-0.182-0.054-0.276-0.062
	c-0.093-0.01-0.187-0.008-0.276,0.006c-0.09,0.015-0.178,0.042-0.261,0.08c-0.083,0.041-0.161,0.092-0.229,0.157l-0.653,0.615
	l1.233,0.985l-0.352,0.333l-2.887-2.307l1.179-1.11c0.071-0.067,0.141-0.129,0.208-0.187c0.069-0.059,0.138-0.11,0.209-0.155
	c0.07-0.045,0.145-0.083,0.222-0.112c0.078-0.029,0.161-0.049,0.252-0.058c0.158-0.014,0.312,0.003,0.463,0.052
	c0.152,0.048,0.286,0.118,0.402,0.211c0.101,0.081,0.179,0.167,0.236,0.262c0.058,0.094,0.093,0.19,0.108,0.291
	c0.013,0.102,0.006,0.204-0.022,0.31c-0.028,0.105-0.08,0.209-0.154,0.312l0.006,0.006c0.249-0.125,0.565-0.12,0.951,0.016
	L19.88,20.834z M16.433,21.331l0.791-0.744c0.109-0.102,0.193-0.197,0.254-0.285c0.062-0.088,0.098-0.171,0.108-0.25
	c0.011-0.08-0.004-0.156-0.045-0.229c-0.041-0.073-0.106-0.147-0.198-0.221c-0.166-0.131-0.336-0.186-0.51-0.161
	c-0.173,0.025-0.355,0.126-0.545,0.306l-0.843,0.793L16.433,21.331z"/>
<path fill="#244094" d="M21.396,17.443c0.855,0.875,0.775,1.686-0.243,2.434l-0.95,0.7l-2.541-2.595l0.951-0.7
	C19.631,16.533,20.56,16.586,21.396,17.443z M20.989,17.743c-0.148-0.153-0.3-0.276-0.453-0.371
	c-0.152-0.095-0.313-0.154-0.481-0.175c-0.167-0.02-0.345,0-0.532,0.062c-0.189,0.062-0.392,0.172-0.611,0.335l-0.549,0.405
	l1.937,1.977l0.548-0.403c0.217-0.161,0.376-0.317,0.477-0.469c0.101-0.152,0.151-0.302,0.152-0.451
	c0.001-0.15-0.041-0.3-0.127-0.45C21.263,18.054,21.143,17.9,20.989,17.743z"/>
<path fill="#244094" d="M24.021,13.931c0.238-0.114,0.481-0.183,0.729-0.205c0.249-0.023,0.488-0.002,0.72,0.063
	s0.449,0.171,0.651,0.322c0.203,0.151,0.378,0.341,0.524,0.57c0.146,0.229,0.239,0.458,0.279,0.685s0.032,0.445-0.027,0.649
	c-0.057,0.206-0.163,0.395-0.316,0.566c-0.152,0.172-0.35,0.316-0.59,0.432c-0.241,0.116-0.487,0.185-0.736,0.207
	c-0.248,0.022-0.487,0.001-0.72-0.065c-0.233-0.064-0.45-0.173-0.651-0.323c-0.201-0.153-0.376-0.342-0.522-0.571
	c-0.147-0.232-0.241-0.462-0.28-0.69c-0.038-0.231-0.026-0.447,0.032-0.651c0.06-0.205,0.168-0.393,0.322-0.561
	C23.587,14.188,23.784,14.045,24.021,13.931z M25.771,16.675c0.171-0.082,0.311-0.185,0.421-0.309
	c0.108-0.125,0.182-0.263,0.22-0.416c0.038-0.153,0.039-0.318,0.001-0.494c-0.037-0.177-0.115-0.36-0.236-0.549
	c-0.122-0.191-0.26-0.345-0.414-0.465c-0.154-0.121-0.316-0.206-0.485-0.26c-0.169-0.053-0.342-0.071-0.519-0.056
	c-0.177,0.014-0.348,0.062-0.515,0.142c-0.172,0.083-0.312,0.187-0.422,0.308c-0.108,0.125-0.183,0.263-0.222,0.416
	c-0.04,0.152-0.041,0.318-0.006,0.494c0.036,0.177,0.114,0.359,0.234,0.548c0.121,0.189,0.258,0.345,0.411,0.466
	c0.153,0.121,0.315,0.207,0.485,0.26c0.169,0.054,0.343,0.072,0.522,0.058S25.601,16.758,25.771,16.675z"/>
<path fill="#244094" d="M29.235,12.414l-1.987,0.67l0.439,0.981l1.727-0.583l0.17,0.377l-1.727,0.583l0.643,1.437l-0.484,0.163
	l-1.424-3.172l2.473-0.834L29.235,12.414z"/>
<path fill="#244094" d="M34.708,11.326l-1.278,0.201l0.619,2.951l-0.512,0.081l-0.617-2.951l-1.271,0.2l-0.084-0.398l3.061-0.483
	L34.708,11.326z"/>
<path fill="#244094" d="M38.565,14.13l-2.929,0.126l-0.193-3.401l2.839-0.12l0.023,0.404l-2.32,0.099l0.058,1.032l2.17-0.092
	l0.021,0.405l-2.168,0.092l0.066,1.154l2.41-0.103L38.565,14.13z"/>
<path fill="#244094" d="M42.51,12.034l-0.53-0.042c0.002-0.11-0.018-0.21-0.066-0.301c-0.048-0.09-0.115-0.17-0.201-0.238
	c-0.086-0.068-0.19-0.124-0.311-0.166c-0.121-0.044-0.253-0.07-0.398-0.081c-0.197-0.017-0.379-0.001-0.543,0.047
	c-0.166,0.047-0.311,0.124-0.434,0.23c-0.124,0.106-0.226,0.242-0.304,0.407c-0.078,0.165-0.128,0.357-0.152,0.579
	c-0.022,0.219-0.015,0.416,0.027,0.59c0.043,0.175,0.112,0.327,0.211,0.451c0.098,0.126,0.222,0.225,0.374,0.298
	c0.152,0.074,0.324,0.119,0.518,0.135c0.151,0.011,0.292,0.007,0.422-0.017c0.127-0.022,0.243-0.063,0.341-0.119
	c0.098-0.055,0.18-0.129,0.245-0.217c0.066-0.088,0.11-0.191,0.135-0.313l0.53,0.043c-0.037,0.179-0.105,0.335-0.205,0.468
	c-0.102,0.133-0.227,0.242-0.377,0.329c-0.149,0.087-0.32,0.147-0.512,0.183c-0.19,0.035-0.394,0.045-0.611,0.028
	c-0.277-0.022-0.526-0.083-0.741-0.185c-0.217-0.1-0.396-0.233-0.538-0.398c-0.142-0.166-0.243-0.361-0.306-0.584
	c-0.061-0.223-0.079-0.467-0.049-0.736c0.028-0.267,0.097-0.505,0.206-0.715c0.109-0.209,0.251-0.383,0.425-0.523
	c0.173-0.14,0.379-0.242,0.612-0.307c0.234-0.064,0.489-0.087,0.766-0.064c0.208,0.017,0.4,0.058,0.578,0.125
	c0.178,0.067,0.333,0.153,0.465,0.26c0.132,0.108,0.235,0.23,0.313,0.373C42.472,11.714,42.51,11.869,42.51,12.034z"/>
<path fill="#244094" d="M45.701,15.107L45.193,15l0.44-1.558l-1.985-0.421l-0.439,1.557l-0.506-0.106l0.935-3.306l0.505,0.107
	l-0.384,1.354l1.986,0.422l0.383-1.355l0.508,0.108L45.701,15.107z"/>
<path fill="#244094" d="M49.146,16.28l-0.492-0.174l-0.745-3.159l-1.165,2.488l-0.457-0.162l1.476-3.153l0.5,0.175l0.734,3.162
	l1.168-2.493l0.46,0.163L49.146,16.28z"/>
<path fill="#244094" d="M50.239,16.802l-0.458-0.208l1.819-3.016l0.458,0.208L50.239,16.802z"/>
<path fill="#244094" d="M55.097,16.608l-0.446-0.251c0.061-0.094,0.095-0.192,0.101-0.292c0.005-0.1-0.011-0.198-0.051-0.293
	c-0.04-0.094-0.103-0.184-0.187-0.271c-0.085-0.086-0.188-0.163-0.309-0.232c-0.167-0.093-0.336-0.152-0.507-0.177
	c-0.172-0.024-0.341-0.015-0.508,0.03c-0.167,0.043-0.329,0.124-0.485,0.237c-0.159,0.114-0.308,0.265-0.445,0.451
	c-0.138,0.184-0.235,0.362-0.292,0.534c-0.057,0.172-0.074,0.333-0.055,0.484c0.021,0.151,0.078,0.289,0.174,0.415
	c0.095,0.126,0.223,0.234,0.385,0.327c0.129,0.071,0.256,0.124,0.382,0.156c0.126,0.031,0.249,0.042,0.367,0.031
	c0.117-0.01,0.229-0.042,0.333-0.093c0.105-0.052,0.201-0.126,0.288-0.223l0.447,0.251c-0.129,0.143-0.272,0.253-0.435,0.331
	c-0.16,0.079-0.329,0.125-0.508,0.141c-0.178,0.017-0.361,0.001-0.55-0.043c-0.188-0.045-0.374-0.119-0.558-0.222
	c-0.235-0.132-0.421-0.286-0.559-0.461c-0.139-0.175-0.225-0.366-0.262-0.569c-0.038-0.203-0.023-0.417,0.042-0.638
	c0.064-0.225,0.18-0.449,0.348-0.672c0.167-0.226,0.356-0.409,0.565-0.552c0.209-0.141,0.428-0.24,0.658-0.293
	c0.229-0.054,0.464-0.062,0.706-0.026c0.242,0.037,0.481,0.121,0.714,0.251c0.174,0.098,0.323,0.212,0.445,0.344
	c0.122,0.129,0.212,0.27,0.272,0.416c0.061,0.147,0.086,0.3,0.077,0.454C55.233,16.309,55.187,16.462,55.097,16.608z"/>
<path fill="#244094" d="M56.454,20.664l-0.45-0.329l0.42-1.044l-1.26-0.918l-1.1,0.548l-0.419-0.305l3.681-1.765l0.432,0.315
	L56.454,20.664z M56.573,18.928l0.642-1.592l-1.673,0.839L56.573,18.928z"/>
<path fill="#244094" d="M58.268,22.331l-1.689-1.519l2.825-2.363l0.36,0.324l-2.489,2.083l1.328,1.193L58.268,22.331z"/>
<path fill="#244094" d="M61.316,25.826l-1.693-2.076l3.206-1.964l1.642,2.012l-0.38,0.234l-1.341-1.644l-0.976,0.597l1.255,1.537
	l-0.381,0.233l-1.254-1.538l-1.088,0.667l1.394,1.708L61.316,25.826z"/>
<path fill="#244094" d="M64.896,27.814c-1.154,0.558-2.057,0.333-2.707-0.677l-0.608-0.943l3.429-1.659l0.607,0.944
	C66.266,26.488,66.027,27.266,64.896,27.814z M64.634,27.408c0.201-0.097,0.372-0.201,0.508-0.313
	c0.136-0.111,0.234-0.236,0.289-0.375c0.056-0.138,0.067-0.293,0.035-0.465c-0.034-0.172-0.121-0.367-0.261-0.585l-0.35-0.545
	l-2.613,1.265l0.352,0.544c0.138,0.216,0.285,0.38,0.436,0.496c0.152,0.114,0.313,0.187,0.483,0.218
	c0.168,0.029,0.346,0.021,0.533-0.021C64.23,27.583,64.427,27.509,64.634,27.408z"/>
<path fill="#244094" d="M63.912,30.292c-0.096-0.193-0.153-0.368-0.176-0.519c-0.021-0.153-0.016-0.29,0.017-0.411
	c0.032-0.12,0.087-0.226,0.166-0.315c0.078-0.09,0.171-0.171,0.274-0.241c0.104-0.072,0.217-0.133,0.339-0.186
	c0.122-0.053,0.241-0.102,0.362-0.147l2.088-0.771l0.204,0.415l-2.08,0.768c-0.242,0.089-0.43,0.179-0.564,0.272
	c-0.133,0.093-0.225,0.189-0.276,0.288c-0.051,0.102-0.068,0.208-0.048,0.321c0.019,0.112,0.06,0.234,0.124,0.366
	c0.066,0.131,0.14,0.244,0.22,0.333c0.081,0.09,0.18,0.154,0.301,0.191c0.119,0.036,0.263,0.044,0.431,0.023
	s0.374-0.077,0.614-0.166l2.08-0.768l0.205,0.416l-2.088,0.772c-0.249,0.092-0.481,0.156-0.696,0.192
	c-0.214,0.034-0.413,0.033-0.593-0.012c-0.182-0.042-0.347-0.129-0.498-0.261C64.167,30.723,64.033,30.535,63.912,30.292z"/>
<path fill="#244094" d="M68.374,34.01l-0.158-0.44c0.118-0.039,0.216-0.094,0.293-0.168c0.078-0.074,0.138-0.158,0.179-0.253
	c0.038-0.095,0.059-0.199,0.058-0.311c0-0.114-0.021-0.23-0.065-0.349c-0.059-0.165-0.146-0.306-0.259-0.419
	c-0.113-0.113-0.25-0.201-0.411-0.259c-0.161-0.059-0.344-0.088-0.552-0.088c-0.204,0-0.43,0.034-0.674,0.099
	c-0.243,0.065-0.449,0.148-0.62,0.248c-0.17,0.101-0.303,0.215-0.399,0.341c-0.096,0.127-0.153,0.266-0.175,0.414
	c-0.021,0.149-0.002,0.304,0.056,0.466c0.045,0.125,0.104,0.237,0.177,0.333c0.074,0.093,0.16,0.169,0.257,0.227
	c0.098,0.058,0.208,0.095,0.325,0.114c0.119,0.019,0.248,0.016,0.385-0.011l0.157,0.441c-0.204,0.039-0.396,0.043-0.577,0.013
	c-0.18-0.029-0.345-0.088-0.496-0.174c-0.15-0.087-0.279-0.201-0.389-0.34c-0.11-0.14-0.198-0.3-0.264-0.482
	c-0.083-0.232-0.112-0.452-0.088-0.664c0.023-0.212,0.098-0.406,0.221-0.583c0.124-0.177,0.292-0.333,0.506-0.468
	c0.213-0.135,0.469-0.242,0.765-0.321c0.294-0.08,0.576-0.115,0.841-0.108c0.266,0.008,0.505,0.054,0.72,0.141
	c0.216,0.086,0.403,0.209,0.561,0.373c0.16,0.162,0.28,0.359,0.361,0.589c0.062,0.173,0.093,0.342,0.088,0.511
	c-0.003,0.169-0.036,0.326-0.1,0.472c-0.063,0.147-0.156,0.277-0.277,0.391C68.699,33.859,68.549,33.948,68.374,34.01z"/>
<path fill="#244094" d="M66.522,37.882l-0.119-0.5l1.076-0.595l-0.331-1.397l-1.257-0.16l-0.11-0.465l4.15,0.59l0.114,0.481
	L66.522,37.882z M67.857,36.584l1.64-0.907l-1.914-0.239L67.857,36.584z"/>
<path fill="#244094" d="M70.294,40.133l-0.152-1.12l-3.437,0.349l-0.06-0.448l3.435-0.35l-0.149-1.112l0.464-0.048l0.363,2.68
	L70.294,40.133z"/>
<path fill="#244094" d="M66.889,41.32l-0.029-0.448l3.918-0.199l0.031,0.449L66.889,41.32z"/>
<path fill="#244094" d="M70.934,43.483c-0.005,0.234-0.057,0.452-0.157,0.649c-0.1,0.199-0.241,0.371-0.42,0.512
	c-0.179,0.145-0.395,0.252-0.646,0.333c-0.251,0.074-0.529,0.113-0.833,0.11c-0.301-0.007-0.576-0.049-0.822-0.13
	c-0.248-0.083-0.46-0.198-0.638-0.342c-0.177-0.146-0.314-0.32-0.411-0.521c-0.095-0.201-0.142-0.419-0.138-0.661
	c0.003-0.237,0.056-0.455,0.157-0.654c0.102-0.199,0.243-0.371,0.424-0.513c0.179-0.141,0.396-0.251,0.647-0.328
	c0.251-0.077,0.529-0.113,0.832-0.11c0.306,0.003,0.583,0.049,0.83,0.132c0.25,0.085,0.461,0.2,0.636,0.346
	c0.175,0.147,0.311,0.321,0.402,0.522C70.894,43.03,70.937,43.249,70.934,43.483z M67.316,43.438
	c-0.002,0.169,0.031,0.327,0.103,0.471c0.07,0.143,0.171,0.269,0.305,0.373c0.136,0.104,0.299,0.188,0.495,0.249
	c0.196,0.058,0.417,0.089,0.668,0.094c0.251,0.003,0.474-0.022,0.672-0.081c0.198-0.054,0.363-0.133,0.5-0.235
	s0.239-0.224,0.314-0.363c0.071-0.142,0.11-0.295,0.113-0.458c0.002-0.17-0.032-0.327-0.1-0.47c-0.071-0.143-0.17-0.269-0.304-0.374
	c-0.135-0.105-0.3-0.188-0.493-0.25c-0.195-0.062-0.416-0.093-0.664-0.096c-0.25-0.002-0.473,0.023-0.669,0.08
	c-0.198,0.054-0.366,0.132-0.502,0.233c-0.139,0.102-0.245,0.224-0.319,0.365C67.36,43.115,67.32,43.268,67.316,43.438z"/>
<path fill="#244094" d="M66.539,48.139l0.057-0.462l3.303-1.481L66.822,45.9l0.054-0.423l3.902,0.373l-0.057,0.464l-3.309,1.475
	l3.082,0.292l-0.053,0.43L66.539,48.139z"/>
<path fill="#244094" d="M61.574,61.399c-0.02,0.009-0.053,0.002-0.104-0.024c-0.004-0.042,0-0.105,0.014-0.207
	c0.054-0.37,0.001-0.615-0.133-0.731c-0.036-0.038-0.075-0.036-0.118,0.001c-0.062,0.12-0.136,0.235-0.215,0.348
	c-0.245-0.12-0.398-0.196-0.461-0.218c0.096-0.146,0.219-0.344,0.356-0.587c0.107-0.088,0.231-0.099,0.375-0.042
	c0.035,0.008,0.063,0.018,0.092,0.032c0.169,0.074,0.283,0.219,0.341,0.427c0.06,0.209,0.059,0.439,0,0.692
	c-0.03,0.132-0.053,0.199-0.066,0.221C61.641,61.333,61.611,61.369,61.574,61.399L61.574,61.399L61.574,61.399z"/>
<path fill="#244094" d="M65.515,60.806c0.16,0.065,0.291,0.172,0.383,0.312c0.058,0.078,0.12,0.215,0.191,0.399
	c0.005,0.015,0.01,0.025,0.015,0.039c-0.025,0.024-0.05,0.045-0.076,0.068c-0.125-0.087-0.232-0.144-0.314-0.181
	c-0.341-0.146-1.08-0.347-2.196-0.636c-0.108-0.027-0.379-0.096-0.821-0.206c-0.102-0.152-0.211-0.356-0.344-0.597
	c0.827,0.192,1.569,0.358,2.216,0.521C64.998,60.628,65.314,60.724,65.515,60.806L65.515,60.806L65.515,60.806z"/>
<path fill="#244094" d="M64.601,62.527c0.536,0.226,0.9,0.656,1.066,1.303c0.157,0.606,0.044,1.174-0.33,1.672
	c-0.131,0.18-0.287,0.343-0.466,0.488c-0.042,0.036-0.083,0.071-0.126,0.105c-0.054,0.041-0.108,0.079-0.162,0.118
	c-0.068,0.049-0.137,0.096-0.204,0.142c-0.08,0.05-0.16,0.102-0.237,0.154c0.007-0.043,0.015-0.082,0.022-0.124
	c0.131-0.097,0.231-0.18,0.284-0.231c0.054-0.057,0.106-0.113,0.158-0.171c0.035-0.035,0.068-0.071,0.102-0.105
	c0.152-0.187,0.288-0.433,0.407-0.736c0.246-0.611,0.264-1.179,0.07-1.679c-0.12-0.3-0.251-0.476-0.398-0.527
	c-0.048-0.016-0.096-0.03-0.143-0.049c-0.033-0.006-0.063-0.008-0.084-0.008c-0.035,0.007-0.071,0.017-0.106,0.021
	c0.007,0.044,0.013,0.087,0.02,0.131c0.003,0.062,0.008,0.122,0.012,0.184c-0.017,0.081-0.056,0.174-0.12,0.263
	c-0.108,0.154-0.245,0.271-0.393,0.336c-0.147,0.064-0.289,0.064-0.409,0.005c-0.072-0.027-0.152-0.118-0.239-0.265
	c-0.075-0.141-0.13-0.258-0.152-0.344c-0.05-0.103-0.072-0.199-0.068-0.305c0.003-0.105,0.035-0.196,0.089-0.274
	c0.097-0.14,0.291-0.23,0.592-0.271c0.139-0.015,0.272-0.015,0.41,0.018c0.066,0.017,0.134,0.03,0.202,0.047
	C64.465,62.457,64.534,62.491,64.601,62.527 M63.893,62.942c-0.056-0.007-0.11,0.008-0.156,0.039
	c-0.056,0.016-0.111,0.062-0.16,0.133c-0.072,0.103-0.067,0.17,0.01,0.223c0.029,0.018,0.074,0.019,0.135,0.006
	c0.011-0.003,0.034-0.013,0.062-0.03c0.021-0.021,0.042-0.044,0.063-0.066c0.039-0.054,0.067-0.109,0.071-0.148
	C63.917,63.065,63.917,63.011,63.893,62.942L63.893,62.942L63.893,62.942z"/>
<path fill="#244094" d="M62.719,65.682c-0.576,0.669-1.182,1.302-1.813,1.906c-0.139-0.11-0.274-0.221-0.411-0.331
	c0.504-0.483,0.992-0.984,1.459-1.505c-0.832-0.351-1.655-0.714-2.469-1.094c-0.071,0.042-0.144,0.083-0.215,0.12
	c-0.212-0.15-0.372-0.351-0.47-0.585c0.023-0.009,0.047-0.017,0.071-0.023c0.096,0.068,0.231,0.052,0.396-0.049
	c0.084-0.055,0.212-0.134,0.383-0.244c0.223,0.148,0.361,0.283,0.408,0.41c-0.059,0.042-0.116,0.081-0.176,0.123
	c0.768,0.328,1.546,0.643,2.332,0.941C62.383,65.462,62.55,65.571,62.719,65.682L62.719,65.682z"/>
<path fill="#244094" d="M60.758,67.006c0.137,0.106,0.276,0.216,0.414,0.322c-0.139,0.198-0.262,0.372-0.367,0.545
	c-0.263,0.412-0.432,0.73-0.498,0.971c0.594-0.378,0.955-0.62,1.095-0.687c0.108-0.052,0.203-0.039,0.291,0.029
	c0.236,0.188,0.333,0.36,0.294,0.522c-0.078,0.317-0.31,0.766-0.715,1.315c-0.404,0.552-0.802,0.964-1.17,1.241
	c-0.476,0.358-0.897,0.551-1.261,0.592c-0.542,0.06-0.969-0.089-1.274-0.439c-0.222-0.255-0.297-0.61-0.25-1.058
	c0.05-0.01,0.101-0.021,0.152-0.032c-0.036,0.374,0.017,0.641,0.166,0.808c0.172,0.192,0.458,0.279,0.873,0.24
	c0.481-0.046,1.002-0.268,1.533-0.68c0.448-0.346,0.883-0.81,1.267-1.378c0.353-0.514,0.479-0.798,0.415-0.848
	c-0.047-0.039-0.204,0.025-0.479,0.201c-0.281,0.177-0.564,0.349-0.85,0.514c-0.137,0.076-0.22,0.122-0.249,0.135
	c-0.065,0.034-0.115,0.027-0.147-0.002c-0.105-0.094-0.093-0.354,0.019-0.779C60.063,68.363,60.335,67.854,60.758,67.006
	L60.758,67.006L60.758,67.006z"/>
<path fill="#244094" d="M62.537,68.967c0.087,0.071,0.102,0.15,0.053,0.232c-0.226,0.344-0.463,0.684-0.706,1.021
	c-0.051-0.046-0.071-0.091-0.063-0.14c0.002-0.025,0.03-0.098,0.085-0.202C62.124,69.578,62.335,69.275,62.537,68.967L62.537,68.967
	z"/>
<path fill="#244094" d="M55.726,70.967c0.101,0.127,0.159,0.272,0.169,0.424c0.01,0.091-0.002,0.229-0.033,0.412
	c-0.003,0.013-0.005,0.023-0.007,0.038c-0.031,0.009-0.062,0.015-0.093,0.02c-0.063-0.126-0.124-0.222-0.176-0.288
	c-0.212-0.274-0.729-0.777-1.515-1.521c-0.076-0.069-0.269-0.248-0.584-0.542c-0.01-0.168-0.002-0.383,0.001-0.639
	c0.594,0.53,1.13,1.009,1.587,1.433C55.381,70.584,55.598,70.81,55.726,70.967L55.726,70.967L55.726,70.967z"/>
<path fill="#244094" d="M30.575,74.563c-0.049,0.147-0.143,0.28-0.271,0.381c-0.072,0.068-0.202,0.147-0.382,0.24
	c-0.013,0.008-0.026,0.016-0.038,0.022c-0.025-0.02-0.051-0.034-0.076-0.052c0.073-0.122,0.12-0.223,0.148-0.302
	c0.112-0.312,0.237-0.975,0.408-1.97c0.017-0.097,0.055-0.337,0.119-0.731c0.146-0.116,0.342-0.246,0.569-0.408
	c-0.105,0.732-0.196,1.39-0.291,1.963C30.701,74.09,30.637,74.377,30.575,74.563L30.575,74.563L30.575,74.563z"/>
<path fill="#244094" d="M52.485,69.578c-0.014,0.026-0.042,0.149-0.073,0.357c0.015,0.084,0.072,0.199,0.168,0.356
	c0.104,0.152,0.207,0.304,0.31,0.456c0.059,0.145,0.118,0.29,0.177,0.438c0.086,0.228,0.121,0.522,0.095,0.897
	c0.089,0.032,0.211,0.098,0.364,0.193c0.065,0.063,0.13,0.128,0.195,0.191c0.088,0.134,0.073,0.269-0.035,0.405
	c-0.044,0.055-0.125,0.126-0.246,0.207c-0.07,0.054-0.192,0.117-0.359,0.198c-0.35,0.16-0.706,0.316-1.063,0.462
	c-0.069-0.123-0.134-0.243-0.204-0.364c0.037-0.015,0.072-0.029,0.11-0.046c0.259-0.105,0.487-0.27,0.672-0.479
	c0.144-0.169,0.225-0.362,0.244-0.576c-0.337-0.113-0.559-0.194-0.665-0.23c-0.204-0.052-0.407-0.104-0.606-0.157
	c-0.165-0.047-0.332-0.093-0.496-0.142c-0.276-0.072-0.611-0.144-0.992-0.226c-0.042,0.063-0.085,0.125-0.127,0.188
	c-0.216-0.032-0.433-0.073-0.645-0.11c-0.196-0.068-0.333-0.154-0.402-0.26c-0.066-0.141-0.058-0.303,0.012-0.489
	c0.489,0.066,0.845,0.12,1.063,0.18c0.117,0.029,0.234,0.061,0.352,0.09c0.409,0.129,0.823,0.258,1.247,0.374
	c0.193,0.066,0.388,0.132,0.584,0.196c0.246,0.095,0.495,0.187,0.746,0.272c0.019-0.211,0.003-0.42-0.045-0.609
	c-0.071-0.272-0.171-0.487-0.298-0.646c-0.057-0.07-0.115-0.142-0.172-0.213c-0.042-0.062-0.083-0.125-0.127-0.191
	c-0.11-0.135-0.22-0.271-0.33-0.407c-0.054-0.066-0.077-0.131-0.084-0.199c-0.007-0.029,0.014-0.12,0.066-0.265
	C52.104,69.484,52.293,69.531,52.485,69.578 M53.407,72.55c-0.045-0.037-0.091-0.074-0.138-0.11c-0.06-0.042-0.117-0.06-0.177-0.066
	c-0.012,0.054-0.043,0.145-0.086,0.276c-0.026,0.063-0.078,0.158-0.161,0.28c0.035-0.017,0.07-0.031,0.104-0.047
	C53.291,72.726,53.438,72.611,53.407,72.55L53.407,72.55L53.407,72.55z"/>
<path fill="#244094" d="M50.521,69.568c-0.021-0.001-0.044-0.022-0.071-0.068c0.018-0.035,0.056-0.084,0.115-0.155
	c0.23-0.265,0.309-0.48,0.264-0.638c-0.012-0.049-0.043-0.064-0.094-0.059c-0.109,0.063-0.225,0.117-0.342,0.166
	c-0.133-0.216-0.217-0.353-0.256-0.399c0.148-0.067,0.347-0.16,0.574-0.277c0.127-0.018,0.229,0.037,0.317,0.154
	c0.022,0.021,0.039,0.046,0.055,0.069c0.097,0.144,0.113,0.309,0.056,0.502c-0.057,0.191-0.175,0.369-0.347,0.54
	c-0.089,0.089-0.14,0.126-0.164,0.138S50.564,69.563,50.521,69.568L50.521,69.568L50.521,69.568z"/>
<path fill="#244094" d="M44.835,73.171c-0.022-0.008-0.037-0.032-0.05-0.081c0.029-0.029,0.083-0.067,0.168-0.128
	c0.32-0.209,0.472-0.4,0.478-0.566c0.003-0.045-0.021-0.071-0.076-0.076c-0.133,0.041-0.269,0.068-0.407,0.091
	c-0.065-0.236-0.105-0.386-0.131-0.442c0.175-0.034,0.409-0.083,0.681-0.151c0.135,0.012,0.22,0.086,0.272,0.216
	c0.015,0.026,0.026,0.054,0.034,0.08c0.05,0.16,0.014,0.327-0.106,0.501c-0.124,0.172-0.301,0.324-0.531,0.452
	c-0.121,0.067-0.187,0.096-0.214,0.101C44.928,73.171,44.881,73.176,44.835,73.171L44.835,73.171L44.835,73.171z"/>
<path fill="#244094" d="M48.818,69.985c0.046,0.093,0.037,0.164-0.022,0.209c-0.262,0.191-0.531,0.383-0.806,0.566
	c-0.026-0.055-0.028-0.107-0.008-0.141c0.007-0.021,0.049-0.07,0.117-0.137C48.343,70.319,48.584,70.152,48.818,69.985
	L48.818,69.985z"/>
<path fill="#244094" d="M33.416,72.654c-0.023,0.097-0.081,0.152-0.164,0.16c-0.361,0.029-0.724,0.049-1.09,0.063
	c0.017-0.061,0.048-0.1,0.091-0.122c0.021-0.011,0.091-0.032,0.195-0.05C32.772,72.691,33.095,72.675,33.416,72.654L33.416,72.654z"
	/>
<path fill="#244094" d="M27.227,69.332c-0.055,0.091-0.123,0.13-0.204,0.12c-0.341-0.051-0.682-0.109-1.024-0.174
	c0.035-0.056,0.075-0.088,0.122-0.098c0.025-0.01,0.095-0.013,0.199-0.01C26.622,69.229,26.925,69.283,27.227,69.332L27.227,69.332z
	"/>
<path fill="#244094" d="M48.203,74.67c-0.766,0.216-1.54,0.404-2.32,0.566c-0.043-0.157-0.087-0.312-0.133-0.471
	c0.658-0.135,1.31-0.292,1.956-0.464c-0.074-0.201-0.178-0.346-0.302-0.442c-0.083-0.068-0.258-0.142-0.529-0.223
	c0.063-0.174,0.125-0.346,0.185-0.519c0.254,0.092,0.426,0.182,0.526,0.268c0.128,0.108,0.251,0.321,0.374,0.642
	C48.04,74.243,48.122,74.459,48.203,74.67 M48.539,75.215c-0.083,0.166-0.167,0.331-0.253,0.497
	c-0.275-0.012-0.549-0.026-0.823-0.043c0.078-0.157,0.152-0.313,0.226-0.472C47.971,75.209,48.254,75.214,48.539,75.215
	 M47.274,75.575c-0.077,0.156-0.157,0.313-0.238,0.467c-0.283-0.013-0.565-0.032-0.847-0.05c0.083-0.156,0.162-0.305,0.241-0.457
	C46.708,75.551,46.99,75.565,47.274,75.575L47.274,75.575z"/>
<path fill="#244094" d="M46.064,75.2c-0.889,0.187-1.785,0.341-2.688,0.458c-0.165,0.022-0.325,0.015-0.468-0.02
	c-0.176-0.042-0.263-0.11-0.276-0.199c-0.016-0.095-0.016-0.159-0.011-0.195c0.002-0.05,0.011-0.113,0.038-0.192
	c0.036-0.004,0.07-0.007,0.104-0.012c0.07,0.13,0.251,0.18,0.527,0.141c0.601-0.077,1.198-0.173,1.792-0.283
	c-0.182-0.707-0.669-1.05-1.454-1.082c-0.013-0.181-0.024-0.36-0.038-0.54c0.516,0.076,0.93,0.261,1.232,0.56
	c0.088,0.089,0.206,0.287,0.337,0.6c0.12,0.272,0.187,0.412,0.207,0.411c0.188-0.039,0.375-0.078,0.562-0.117
	C45.974,74.884,46.019,75.042,46.064,75.2L46.064,75.2z"/>
<path fill="#244094" d="M44.794,75.808c0.023,0.101-0.011,0.17-0.096,0.206c-0.367,0.155-0.739,0.301-1.116,0.44
	c-0.012-0.063,0-0.108,0.033-0.144c0.018-0.019,0.081-0.063,0.182-0.119C44.133,76.068,44.465,75.941,44.794,75.808L44.794,75.808z"
	/>
<path fill="#244094" d="M40.221,74.52c0.003,0.052-0.003,0.113-0.017,0.189c-0.009,0.034-0.014,0.078-0.031,0.132
	c-0.226-0.167-0.497-0.249-0.841-0.249c-0.259-0.001-0.537,0.096-0.83,0.289c-0.274,0.172-0.412,0.305-0.414,0.404
	c0,0.029,0.028,0.055,0.093,0.074c0.057,0.02,0.172,0.032,0.354,0.032c0.125,0,0.25,0,0.375,0c0.346,0,0.642,0.005,0.882,0.02
	c0.154,0.012,0.234,0.073,0.24,0.193c0.027,0.508-0.367,0.903-1.227,1.146c-0.643,0.181-1.488,0.26-2.505,0.193
	c-1.245-0.088-1.817-0.446-1.726-0.986c0.053-0.334,0.278-0.678,0.665-1.045c0.02-0.02,0.13-0.118,0.333-0.298
	c0.061,0.02,0.12,0.042,0.18,0.06c-0.446,0.407-0.701,0.733-0.74,0.998c-0.067,0.442,0.428,0.734,1.489,0.803
	c0.821,0.052,1.684-0.062,2.56-0.334c0.344-0.114,0.517-0.191,0.516-0.242c-0.002-0.057-0.091-0.082-0.258-0.081
	c-0.37,0.007-0.74,0.007-1.11,0c-0.138,0-0.253-0.03-0.359-0.099c-0.105-0.052-0.148-0.125-0.146-0.224
	c0.007-0.152,0.12-0.344,0.343-0.569c0.203-0.208,0.401-0.377,0.604-0.5c0.307-0.182,0.604-0.274,0.913-0.289
	c0.174-0.01,0.33,0.026,0.461,0.1C40.143,74.302,40.204,74.396,40.221,74.52L40.221,74.52L40.221,74.52z"/>
<path fill="#244094" d="M36.908,73.945c-0.019-0.014-0.024-0.042-0.02-0.093c0.037-0.021,0.104-0.045,0.204-0.078
	c0.378-0.126,0.588-0.273,0.648-0.432c0.019-0.043,0.004-0.072-0.048-0.091c-0.143,0.005-0.284,0-0.422-0.011
	c0.015-0.245,0.024-0.396,0.019-0.456c0.182,0.01,0.423,0.02,0.707,0.02c0.127,0.042,0.187,0.137,0.191,0.271
	c0.008,0.029,0.008,0.059,0.007,0.086c-0.004,0.164-0.095,0.316-0.27,0.455c-0.175,0.136-0.396,0.238-0.663,0.308
	c-0.139,0.032-0.213,0.046-0.239,0.044C36.997,73.968,36.953,73.96,36.908,73.945L36.908,73.945L36.908,73.945z"/>
<path fill="#244094" d="M29.106,70.849c-0.012-0.017-0.008-0.044,0.014-0.091c0.042-0.012,0.109-0.018,0.212-0.026
	c0.385-0.024,0.627-0.113,0.736-0.248c0.034-0.037,0.03-0.069-0.011-0.099c-0.129-0.029-0.254-0.07-0.374-0.114
	c0.103-0.229,0.165-0.374,0.18-0.428c0.161,0.052,0.373,0.12,0.626,0.189c0.099,0.071,0.118,0.174,0.074,0.307
	c-0.004,0.029-0.015,0.056-0.024,0.083c-0.062,0.155-0.198,0.279-0.404,0.366c-0.206,0.09-0.439,0.132-0.703,0.13
	c-0.136-0.001-0.208-0.008-0.232-0.016C29.178,70.893,29.141,70.874,29.106,70.849L29.106,70.849L29.106,70.849z"/>
<path fill="#244094" d="M22.594,69.333c-0.008-0.02,0.004-0.047,0.038-0.089c0.045,0,0.118,0.01,0.227,0.029
	c0.401,0.071,0.676,0.045,0.822-0.061c0.044-0.028,0.048-0.063,0.014-0.102c-0.125-0.061-0.245-0.132-0.357-0.206
	c0.161-0.201,0.264-0.328,0.294-0.378c0.152,0.093,0.354,0.216,0.599,0.346c0.084,0.094,0.078,0.201,0,0.322
	c-0.011,0.027-0.028,0.051-0.045,0.075c-0.105,0.138-0.276,0.224-0.511,0.259c-0.235,0.039-0.487,0.021-0.759-0.047
	c-0.14-0.035-0.213-0.062-0.235-0.074C22.659,69.394,22.625,69.366,22.594,69.333L22.594,69.333L22.594,69.333z"/>
<path fill="#244094" d="M33.402,75.207c-0.077,0.51-0.396,0.955-0.984,1.313c-0.55,0.337-1.144,0.446-1.746,0.317
	c-0.215-0.04-0.421-0.11-0.622-0.197c-0.047-0.021-0.095-0.042-0.142-0.066c-0.055-0.028-0.11-0.058-0.166-0.088
	c-0.067-0.039-0.134-0.076-0.201-0.115c-0.074-0.046-0.149-0.091-0.224-0.137c0.043-0.008,0.085-0.018,0.128-0.023
	c0.139,0.071,0.25,0.123,0.319,0.146c0.071,0.021,0.144,0.042,0.215,0.066c0.045,0.015,0.091,0.027,0.137,0.042
	c0.233,0.056,0.516,0.081,0.85,0.07c0.678-0.02,1.241-0.201,1.675-0.534c0.262-0.197,0.399-0.366,0.41-0.504
	c0.001-0.046,0.006-0.088,0.01-0.132c-0.003-0.027-0.009-0.052-0.015-0.071c-0.019-0.024-0.034-0.052-0.053-0.078
	c-0.041,0.021-0.081,0.041-0.123,0.061c-0.059,0.025-0.118,0.05-0.178,0.073c-0.083,0.014-0.184,0.014-0.29-0.005
	c-0.183-0.031-0.335-0.103-0.438-0.198c-0.105-0.096-0.144-0.211-0.122-0.328c0.008-0.067,0.077-0.167,0.198-0.287
	c0.118-0.11,0.218-0.196,0.3-0.246c0.087-0.075,0.177-0.127,0.281-0.159c0.104-0.035,0.2-0.04,0.292-0.024
	c0.163,0.029,0.304,0.157,0.427,0.385c0.054,0.106,0.088,0.217,0.092,0.337c0.002,0.062,0.007,0.122,0.01,0.182
	C33.432,75.072,33.417,75.139,33.402,75.207 M32.802,74.777c-0.007-0.049-0.036-0.09-0.079-0.113
	c-0.031-0.039-0.09-0.068-0.176-0.085c-0.12-0.02-0.184,0.007-0.215,0.088c-0.009,0.029,0,0.066,0.028,0.112
	c0.009,0.006,0.025,0.019,0.049,0.037c0.028,0.01,0.055,0.02,0.083,0.029c0.065,0.01,0.123,0.013,0.166,0.003
	C32.689,74.841,32.744,74.819,32.802,74.777L32.802,74.777L32.802,74.777z"/>
<path fill="#244094" d="M30.02,71.6c-0.031,0.008-0.156,0.068-0.361,0.18c-0.064,0.065-0.129,0.177-0.208,0.339
	c-0.07,0.166-0.139,0.333-0.208,0.498c-0.091,0.135-0.184,0.268-0.275,0.399c-0.145,0.201-0.386,0.415-0.731,0.638
	c0.026,0.082,0.045,0.204,0.058,0.363c-0.015,0.088-0.031,0.169-0.045,0.256c-0.063,0.14-0.19,0.218-0.379,0.232
	c-0.079,0.008-0.191-0.002-0.34-0.026c-0.092-0.013-0.226-0.05-0.404-0.106c-0.366-0.127-0.729-0.265-1.089-0.404
	c0.065-0.123,0.129-0.247,0.194-0.368c0.036,0.013,0.072,0.027,0.108,0.042c0.263,0.101,0.553,0.147,0.858,0.133
	c0.239-0.013,0.462-0.082,0.665-0.207c-0.114-0.297-0.183-0.493-0.221-0.588c-0.084-0.165-0.166-0.334-0.245-0.503
	c-0.065-0.138-0.13-0.273-0.192-0.411c-0.114-0.234-0.265-0.498-0.434-0.804c-0.086,0.015-0.169,0.026-0.255,0.039
	c-0.108-0.165-0.212-0.332-0.314-0.499c-0.069-0.171-0.08-0.318-0.032-0.432c0.083-0.135,0.234-0.233,0.444-0.305
	c0.259,0.364,0.441,0.634,0.527,0.815c0.048,0.096,0.097,0.194,0.146,0.29c0.145,0.355,0.299,0.709,0.467,1.063
	c0.063,0.169,0.126,0.341,0.194,0.513c0.073,0.219,0.151,0.443,0.233,0.665c0.2-0.125,0.373-0.269,0.51-0.423
	c0.197-0.225,0.324-0.425,0.383-0.611c0.026-0.085,0.052-0.166,0.078-0.249c0.03-0.067,0.059-0.139,0.09-0.207
	c0.049-0.159,0.101-0.318,0.152-0.479c0.022-0.078,0.066-0.137,0.124-0.186c0.02-0.024,0.113-0.067,0.273-0.126
	C29.865,71.286,29.942,71.442,30.02,71.6 M27.979,74.117c0.003-0.056,0.006-0.108,0.009-0.161c-0.001-0.066-0.02-0.118-0.054-0.158
	c-0.054,0.022-0.155,0.063-0.296,0.121c-0.073,0.021-0.193,0.049-0.353,0.071c0.036,0.012,0.073,0.026,0.11,0.037
	C27.752,74.154,27.941,74.177,27.979,74.117L27.979,74.117L27.979,74.117z"/>
<path fill="#244094" d="M23.719,72.544c-0.709-0.353-1.403-0.732-2.082-1.134c0.107-0.134,0.212-0.269,0.318-0.401
	c0.571,0.341,1.152,0.664,1.745,0.966c0.124-0.184,0.177-0.348,0.177-0.493c0-0.098-0.055-0.26-0.171-0.488
	c0.195-0.073,0.388-0.149,0.579-0.229c0.092,0.229,0.131,0.399,0.126,0.521c-0.006,0.153-0.109,0.376-0.303,0.67
	C23.979,72.149,23.848,72.346,23.719,72.544 M22.825,72.822c-0.188,0.059-0.376,0.114-0.566,0.167
	c-0.188-0.189-0.37-0.383-0.549-0.577c0.188-0.052,0.373-0.103,0.558-0.155C22.449,72.448,22.636,72.636,22.825,72.822
	L22.825,72.822z"/>
<path fill="#244094" d="M20.989,70.138c0.079-0.076,0.029-0.201-0.135-0.379c-0.119-0.13-0.26-0.247-0.427-0.367
	c-0.274-0.192-0.619-0.365-1.03-0.521c-0.288-0.11-0.634-0.243-1.051-0.41c0.548,0.457,1.113,0.891,1.692,1.304
	C20.559,70.132,20.882,70.247,20.989,70.138L20.989,70.138 M16.647,67.646c-0.12-0.115-0.217-0.233-0.307-0.373
	c-0.072-0.115-0.135-0.237-0.181-0.371c-0.081-0.021-0.165-0.044-0.247-0.067c-0.09-0.028-0.152-0.067-0.186-0.104
	c-0.268-0.277-0.531-0.563-0.788-0.856c0.147-0.101,0.294-0.198,0.442-0.297c0.233,0.267,0.471,0.524,0.714,0.778
	c0.058,0.065,0.13,0.093,0.219,0.088c0.088-0.005,0.162-0.039,0.226-0.086c0.049-0.037,0.088-0.078,0.128-0.117
	c0.047-0.048,0.096-0.094,0.126-0.153c0.091,0.01,0.182,0.018,0.274,0.027c-0.305,0.514-0.256,0.972,0.134,1.337
	c0.203,0.189,0.476,0.379,0.839,0.575c0.34,0.188,0.636,0.307,0.898,0.38s0.556,0.15,0.886,0.233
	c0.526,0.161,0.961,0.353,1.324,0.601c0.324,0.222,0.527,0.439,0.608,0.668c0.084,0.224,0.034,0.43-0.138,0.625
	c-0.101,0.018-0.199,0.033-0.3,0.05c0.268,0.169,0.537,0.336,0.809,0.495c-0.11,0.141-0.22,0.282-0.332,0.422
	C19.945,70.417,18.215,69.129,16.647,67.646L16.647,67.646z"/>
<path fill="#244094" d="M20.931,67.109c-0.079,0.078-0.162,0.098-0.239,0.063c-0.337-0.142-0.672-0.295-1.004-0.456
	c0.05-0.045,0.1-0.066,0.15-0.063c0.027-0.001,0.101,0.015,0.206,0.049C20.338,66.845,20.633,66.979,20.931,67.109L20.931,67.109z"
	/>
<path fill="#244094" d="M15.069,66.021c-0.15-0.168-0.298-0.34-0.445-0.512c-0.253-0.3-0.245-0.618,0.025-0.929
	c0.104-0.122,0.29-0.289,0.556-0.492c0,0,0.21-0.147,0.624-0.439c0.172-0.115,0.29-0.204,0.371-0.274
	c0.156-0.134,0.252-0.254,0.291-0.356c0.049-0.123,0.072-0.238,0.062-0.342c0.281,0.043,0.561,0.081,0.839,0.114
	c-0.147,0.208-0.36,0.429-0.642,0.665c-0.17,0.135-0.42,0.321-0.755,0.552c-0.358,0.242-0.612,0.422-0.754,0.545
	c-0.135,0.119-0.221,0.25-0.243,0.388c-0.013,0.112,0.006,0.2,0.074,0.281c0.145,0.17,0.289,0.337,0.437,0.503
	C15.361,65.821,15.215,65.921,15.069,66.021L15.069,66.021z"/>
<path fill="#244094" d="M13.349,63.492c-0.312,0.179-0.704,0.201-1.188,0.059c-0.529-0.151-0.954-0.482-1.254-0.981
	c-0.092-0.152-0.171-0.31-0.238-0.49c-0.049-0.15-0.113-0.364-0.184-0.666c0.059,0.035,0.119,0.074,0.178,0.108
	c0.029,0.069,0.069,0.165,0.124,0.303c0.024,0.058,0.067,0.13,0.108,0.215c0.144,0.246,0.328,0.459,0.546,0.631
	c0.252,0.191,0.516,0.356,0.776,0.488c0.355,0.172,0.598,0.214,0.733,0.155c0.068-0.024,0.14-0.141,0.214-0.332
	c0.081-0.198,0.146-0.307,0.198-0.333c0.027-0.013,0.094-0.015,0.195-0.001c0.125,0.021,0.252,0.037,0.378,0.057
	c-0.054,0.187-0.126,0.355-0.229,0.488C13.604,63.322,13.482,63.421,13.349,63.492L13.349,63.492L13.349,63.492z"/>
<path fill="#244094" d="M11.814,64.265c-0.101,0.052-0.192,0.042-0.269-0.026c-0.324-0.294-0.643-0.6-0.958-0.915
	c0.063-0.029,0.12-0.032,0.171-0.011c0.028,0.01,0.102,0.057,0.206,0.135C11.243,63.728,11.527,63.997,11.814,64.265L11.814,64.265z
	"/>
<path fill="#FFFFFF" d="M88.437,29.512c0-0.286-0.011-0.565-0.034-0.84c-0.023-0.275-0.081-0.518-0.171-0.729
	c-0.091-0.212-0.231-0.384-0.42-0.515c-0.188-0.131-0.448-0.198-0.779-0.198c-0.398,0-0.718,0.091-0.957,0.274
	c-0.239,0.183-0.359,0.492-0.359,0.927c0,0.24,0.036,0.449,0.11,0.627c0.074,0.178,0.17,0.335,0.292,0.472
	c0.12,0.137,0.262,0.266,0.428,0.386c0.165,0.119,0.345,0.237,0.539,0.352c0.194,0.127,0.425,0.274,0.693,0.446
	s0.539,0.354,0.813,0.549c0.273,0.194,0.534,0.389,0.778,0.583c0.245,0.195,0.454,0.372,0.625,0.532
	c0.411,0.401,0.693,0.81,0.847,1.228c0.153,0.417,0.231,0.907,0.231,1.467c0,0.608-0.097,1.141-0.291,1.605
	c-0.195,0.463-0.465,0.849-0.813,1.157c-0.348,0.31-0.764,0.544-1.249,0.704c-0.485,0.161-1.019,0.24-1.599,0.24
	c-0.72,0-1.327-0.097-1.823-0.292c-0.496-0.194-0.898-0.463-1.206-0.807c-0.307-0.343-0.53-0.755-0.667-1.235
	c-0.137-0.481-0.205-1.006-0.205-1.579v-0.944h2.394v0.755c-0.022,0.629,0.075,1.147,0.292,1.552c0.216,0.407,0.621,0.61,1.215,0.61
	c0.992,0,1.487-0.503,1.487-1.511c0-0.378-0.082-0.7-0.247-0.969c-0.167-0.269-0.403-0.512-0.71-0.729
	c-0.308-0.24-0.632-0.472-0.975-0.695c-0.341-0.223-0.682-0.449-1.019-0.679c-0.337-0.229-0.659-0.471-0.966-0.729
	c-0.309-0.259-0.583-0.547-0.821-0.867c-0.412-0.605-0.617-1.264-0.617-1.973c0-1.109,0.308-1.953,0.923-2.532
	c0.616-0.577,1.563-0.865,2.841-0.865c0.638,0,1.17,0.074,1.599,0.222c0.428,0.149,0.782,0.346,1.061,0.593
	c0.28,0.245,0.49,0.521,0.633,0.823c0.142,0.304,0.245,0.612,0.307,0.928c0.063,0.314,0.101,0.617,0.111,0.91
	c0.012,0.292,0.018,0.54,0.018,0.746H88.437z"/>
<path fill="#FFFFFF" d="M96.289,38.47V25.6h2.396v12.87H96.289z"/>
<path fill="#FFFFFF" d="M109.976,25.6h2.396v12.87h-2.498l-1.865-4.582c-0.32-0.767-0.613-1.557-0.882-2.369
	c-0.268-0.812-0.544-1.728-0.83-2.745h-0.034c0.046,0.538,0.092,1.121,0.137,1.75s0.086,1.27,0.121,1.922
	c0.034,0.653,0.062,1.287,0.085,1.905c0.022,0.618,0.034,1.184,0.034,1.698v2.42h-2.395V25.6h2.48l1.866,4.685
	c0.309,0.744,0.596,1.521,0.864,2.334c0.267,0.812,0.55,1.739,0.846,2.78h0.036c-0.046-0.584-0.09-1.185-0.128-1.802
	c-0.04-0.618-0.077-1.236-0.111-1.853c-0.035-0.617-0.063-1.229-0.086-1.835c-0.023-0.607-0.034-1.201-0.034-1.785V25.6H109.976z"/>
<path fill="#FFFFFF" d="M117.981,38.47V25.6h4.995c0.148,0,0.325,0.019,0.531,0.06c0.206,0.041,0.421,0.114,0.65,0.223
	c0.227,0.109,0.455,0.258,0.683,0.447c0.229,0.189,0.433,0.431,0.615,0.73c0.276,0.445,0.461,1.029,0.559,1.75
	c0.096,0.721,0.146,1.619,0.146,2.694c0,0.641-0.013,1.291-0.035,1.947c-0.023,0.659-0.095,1.287-0.214,1.889
	c-0.12,0.601-0.313,1.144-0.581,1.631c-0.269,0.486-0.648,0.872-1.139,1.157c-0.263,0.161-0.55,0.258-0.864,0.292
	c-0.313,0.034-0.618,0.052-0.916,0.052L117.981,38.47L117.981,38.47z M121.42,36.583c0.536,0,0.955-0.078,1.258-0.232
	c0.302-0.154,0.53-0.42,0.684-0.797c0.154-0.378,0.249-0.878,0.282-1.501c0.034-0.625,0.052-1.4,0.052-2.325
	c0-0.757-0.024-1.402-0.069-1.941c-0.045-0.537-0.134-0.977-0.265-1.32c-0.13-0.343-0.311-0.593-0.539-0.747
	c-0.228-0.154-0.519-0.232-0.873-0.232h-1.573v9.096L121.42,36.583L121.42,36.583z"/>
<path fill="#FFFFFF" d="M131.582,38.47V25.6h2.396v5.096h3.354V25.6h2.394v12.87h-2.394v-5.886h-3.354v5.886H131.582z"/>
<path fill="#FFFFFF" d="M152.692,38.47V25.6h3.867c0.251,0,0.504,0.008,0.759,0.026c0.26,0.017,0.5,0.056,0.729,0.119
	c0.228,0.063,0.446,0.158,0.657,0.283c0.213,0.126,0.404,0.298,0.572,0.515c0.276,0.355,0.45,0.721,0.522,1.098
	c0.075,0.377,0.112,0.785,0.112,1.219c0,0.274-0.02,0.548-0.061,0.823c-0.038,0.275-0.113,0.529-0.224,0.764
	c-0.106,0.235-0.265,0.45-0.47,0.644c-0.203,0.196-0.466,0.35-0.785,0.463v0.035c0.673,0.093,1.151,0.403,1.436,0.936
	c0.285,0.531,0.43,1.215,0.43,2.051c0,0.262-0.012,0.526-0.036,0.789c-0.022,0.264-0.068,0.526-0.136,0.79
	c-0.263,0.813-0.641,1.401-1.129,1.768c-0.492,0.365-1.163,0.548-2.019,0.548h-4.227V38.47z M155.532,30.799
	c0.297,0,0.606-0.015,0.932-0.043c0.325-0.028,0.585-0.162,0.78-0.403c0.113-0.16,0.185-0.354,0.214-0.583
	c0.027-0.229,0.042-0.498,0.042-0.807c0-0.481-0.079-0.841-0.24-1.081c-0.159-0.24-0.514-0.372-1.06-0.395h-1.112v3.312
	L155.532,30.799L155.532,30.799z M155.603,36.583c0.249,0,0.494,0,0.734,0c0.251,0,0.485-0.045,0.701-0.137
	c0.162-0.07,0.288-0.173,0.384-0.309c0.098-0.138,0.174-0.287,0.224-0.447c0.054-0.159,0.086-0.332,0.103-0.514
	c0.017-0.183,0.026-0.354,0.026-0.515c0-0.343-0.023-0.641-0.07-0.893c-0.044-0.253-0.13-0.458-0.255-0.618
	c-0.126-0.162-0.305-0.277-0.53-0.353c-0.229-0.074-0.532-0.112-0.908-0.112h-0.923v3.897H155.603z"/>
<path fill="#FFFFFF" d="M165.353,31.005c0.022-0.825,0.073-1.584,0.155-2.283c0.08-0.698,0.259-1.301,0.537-1.811
	c0.281-0.508,0.693-0.906,1.243-1.192c0.546-0.287,1.297-0.429,2.258-0.429c0.957,0,1.708,0.143,2.258,0.429
	c0.548,0.286,0.959,0.683,1.241,1.192c0.278,0.51,0.459,1.113,0.538,1.811c0.079,0.699,0.13,1.458,0.154,2.283v1.835
	c0,0.858-0.032,1.65-0.104,2.376c-0.068,0.728-0.242,1.354-0.521,1.88c-0.278,0.526-0.698,0.938-1.257,1.236
	c-0.56,0.297-1.33,0.446-2.31,0.446s-1.75-0.148-2.311-0.446c-0.56-0.298-0.978-0.71-1.255-1.236
	c-0.281-0.525-0.454-1.152-0.524-1.88c-0.066-0.726-0.102-1.518-0.102-2.376v-1.835H165.353z M167.816,34.043
	c0,0.263,0.015,0.557,0.044,0.883c0.027,0.327,0.096,0.632,0.204,0.918c0.109,0.287,0.279,0.523,0.513,0.712
	c0.237,0.189,0.559,0.284,0.969,0.284c0.422,0,0.748-0.098,0.982-0.293c0.232-0.193,0.409-0.442,0.521-0.746
	c0.114-0.303,0.18-0.629,0.196-0.978c0.018-0.349,0.027-0.677,0.027-0.987v-3.295c0-0.25-0.009-0.566-0.018-0.943
	c-0.012-0.378-0.07-0.744-0.179-1.098c-0.11-0.354-0.279-0.655-0.515-0.901c-0.233-0.246-0.572-0.369-1.017-0.369
	c-0.469,0-0.822,0.124-1.063,0.369c-0.238,0.246-0.407,0.541-0.503,0.884c-0.098,0.342-0.149,0.699-0.154,1.064
	c-0.007,0.367-0.01,0.675-0.01,0.926V34.043L167.816,34.043z"/>
<path fill="#FFFFFF" d="M178.132,38.47l3.063-12.87h3.232l2.908,12.87h-2.564l-0.634-3.26h-2.807l-0.631,3.26H178.132z
	 M181.71,33.322h2.05l-0.648-3.655c-0.055-0.298-0.103-0.595-0.138-0.892c-0.034-0.297-0.066-0.595-0.101-0.893
	c-0.012-0.148-0.022-0.294-0.036-0.438c-0.011-0.143-0.029-0.283-0.052-0.42h-0.032c-0.022,0.137-0.041,0.277-0.054,0.42
	c-0.013,0.144-0.021,0.29-0.032,0.438c-0.036,0.298-0.071,0.595-0.104,0.893c-0.034,0.297-0.08,0.594-0.137,0.892L181.71,33.322z"/>
<path fill="#FFFFFF" d="M194.229,32.926v5.543h-2.395V25.6h4.534c0.514,0,0.991,0.048,1.437,0.145
	c0.446,0.098,0.829,0.266,1.155,0.506c0.326,0.239,0.582,0.558,0.772,0.953c0.188,0.395,0.28,0.89,0.28,1.484
	c0,0.355-0.029,0.704-0.084,1.047c-0.059,0.343-0.159,0.658-0.301,0.944c-0.145,0.286-0.342,0.529-0.6,0.729
	c-0.255,0.2-0.584,0.329-0.984,0.385v0.034c0.708,0.092,1.191,0.35,1.454,0.773c0.264,0.422,0.395,0.943,0.395,1.562
	c0,0.091,0,0.245,0,0.463c0,0.217,0.003,0.466,0.008,0.746c0.009,0.281,0.019,0.575,0.036,0.885
	c0.018,0.309,0.042,0.598,0.076,0.866c0.034,0.27,0.083,0.508,0.146,0.712c0.062,0.207,0.146,0.338,0.248,0.396v0.24h-2.637
	c-0.067-0.207-0.119-0.451-0.152-0.738c-0.037-0.286-0.062-0.58-0.077-0.884c-0.019-0.302-0.026-0.597-0.026-0.883
	c0-0.286,0-0.538,0-0.755c0-0.195-0.007-0.403-0.017-0.627c-0.013-0.223-0.043-0.434-0.096-0.635c-0.05-0.2-0.129-0.378-0.236-0.532
	c-0.11-0.155-0.27-0.26-0.474-0.317c-0.331-0.091-0.667-0.144-1.009-0.155c-0.341-0.011-0.685-0.018-1.025-0.018H194.229z
	 M194.229,31.039h1.885c0.386-0.021,0.717-0.177,0.989-0.463c0.275-0.286,0.412-0.75,0.412-1.39c0-0.355-0.037-0.644-0.112-0.866
	c-0.072-0.223-0.177-0.395-0.307-0.514c-0.131-0.12-0.288-0.204-0.47-0.25c-0.184-0.045-0.388-0.069-0.616-0.069h-1.781V31.039
	L194.229,31.039z"/>
<path fill="#FFFFFF" d="M205.606,38.47V25.6h4.996c0.147,0,0.323,0.019,0.529,0.06s0.422,0.114,0.65,0.223
	c0.229,0.109,0.456,0.258,0.685,0.447s0.435,0.431,0.616,0.73c0.274,0.445,0.459,1.029,0.557,1.75
	c0.096,0.721,0.145,1.619,0.145,2.694c0,0.641-0.014,1.291-0.033,1.947c-0.022,0.659-0.092,1.287-0.214,1.889
	c-0.122,0.601-0.313,1.144-0.582,1.631c-0.268,0.486-0.647,0.872-1.138,1.157c-0.263,0.161-0.55,0.258-0.862,0.292
	c-0.313,0.034-0.62,0.052-0.917,0.052L205.606,38.47L205.606,38.47z M209.046,36.583c0.535,0,0.955-0.078,1.257-0.232
	c0.302-0.154,0.53-0.42,0.685-0.797c0.152-0.378,0.248-0.878,0.282-1.501c0.034-0.625,0.052-1.4,0.052-2.325
	c0-0.757-0.024-1.402-0.069-1.941c-0.046-0.537-0.134-0.977-0.265-1.32c-0.132-0.343-0.31-0.593-0.54-0.747
	c-0.228-0.154-0.518-0.232-0.871-0.232h-1.575v9.096L209.046,36.583L209.046,36.583z"/>
<path fill="#FFFFFF" d="M226.58,31.005c0.024-0.825,0.075-1.584,0.156-2.283c0.081-0.698,0.26-1.301,0.538-1.811
	c0.279-0.508,0.691-0.906,1.241-1.192c0.548-0.287,1.3-0.429,2.26-0.429c0.957,0,1.708,0.143,2.255,0.429
	c0.551,0.286,0.962,0.683,1.242,1.192c0.279,0.51,0.459,1.113,0.54,1.811c0.08,0.699,0.128,1.458,0.152,2.283v1.835
	c0,0.858-0.034,1.65-0.102,2.376c-0.068,0.728-0.242,1.354-0.522,1.88c-0.277,0.526-0.697,0.938-1.256,1.236
	c-0.56,0.297-1.33,0.446-2.31,0.446c-0.981,0-1.752-0.148-2.31-0.446c-0.561-0.298-0.979-0.71-1.259-1.236
	c-0.279-0.525-0.453-1.152-0.521-1.88c-0.067-0.726-0.102-1.518-0.102-2.376v-1.835H226.58z M229.045,34.043
	c0,0.263,0.014,0.557,0.043,0.883c0.028,0.327,0.096,0.632,0.206,0.918c0.105,0.287,0.277,0.523,0.512,0.712
	s0.556,0.284,0.968,0.284c0.422,0,0.748-0.098,0.983-0.293c0.233-0.193,0.407-0.442,0.522-0.746
	c0.111-0.303,0.178-0.629,0.194-0.978c0.018-0.349,0.027-0.677,0.027-0.987v-3.295c0-0.25-0.006-0.566-0.018-0.943
	c-0.012-0.378-0.069-0.744-0.179-1.098c-0.11-0.354-0.28-0.655-0.516-0.901c-0.232-0.246-0.572-0.369-1.016-0.369
	c-0.469,0-0.822,0.124-1.063,0.369c-0.238,0.246-0.408,0.541-0.504,0.884c-0.098,0.342-0.148,0.699-0.152,1.064
	c-0.009,0.367-0.01,0.675-0.01,0.926V34.043L229.045,34.043z"/>
<path fill="#FFFFFF" d="M240.454,38.47V25.6h6.792v1.888h-4.396v3.26h4.123v1.888h-4.123v5.834H240.454z"/>
<path fill="#FFFFFF" d="M82.671,46.192h7.989v1.889h-2.788v10.984h-2.396V48.081h-2.806V46.192z"/>
<path fill="#FFFFFF" d="M92.03,59.063V46.192h6.74v1.889h-4.346v3.244h4.003v1.886h-4.003v3.967h4.346v1.888h-6.74V59.063z"/>
<path fill="#FFFFFF" d="M108.248,54.483c-0.011,0.125-0.02,0.248-0.025,0.368c-0.005,0.121-0.015,0.243-0.026,0.368
	c-0.035,0.585-0.113,1.132-0.24,1.64c-0.126,0.508-0.325,0.949-0.598,1.32c-0.273,0.373-0.633,0.663-1.078,0.876
	s-0.998,0.318-1.66,0.318c-0.981,0-1.751-0.149-2.309-0.446c-0.559-0.299-0.979-0.709-1.258-1.238
	c-0.28-0.523-0.453-1.151-0.521-1.878c-0.068-0.727-0.103-1.519-0.103-2.376v-1.838c0.023-0.822,0.074-1.584,0.153-2.282
	s0.26-1.302,0.54-1.811c0.279-0.51,0.693-0.907,1.241-1.192c0.546-0.287,1.299-0.43,2.257-0.43c2.167,0.034,3.336,1.144,3.507,3.328
	c0.022,0.162,0.04,0.324,0.052,0.488c0.012,0.167,0.011,0.331,0,0.49h-2.361c-0.022-0.206-0.042-0.446-0.059-0.721
	c-0.018-0.273-0.06-0.531-0.128-0.771c-0.069-0.242-0.179-0.448-0.334-0.62c-0.153-0.172-0.379-0.258-0.676-0.258
	c-0.468,0-0.822,0.125-1.06,0.37c-0.239,0.246-0.41,0.54-0.504,0.882c-0.098,0.345-0.148,0.701-0.154,1.066
	c-0.006,0.364-0.009,0.675-0.009,0.925v3.571c0,0.263,0.015,0.557,0.042,0.883c0.029,0.326,0.097,0.633,0.206,0.918
	c0.108,0.285,0.279,0.522,0.512,0.71c0.235,0.19,0.557,0.284,0.967,0.284c0.331,0,0.576-0.115,0.736-0.342
	c0.16-0.23,0.273-0.505,0.341-0.826c0.069-0.319,0.106-0.646,0.112-0.977c0.004-0.332,0.014-0.6,0.026-0.808h2.411V54.483z"/>
<path fill="#FFFFFF" d="M110.163,59.063V46.192h2.395v5.099h3.354v-5.099h2.395v12.871h-2.395v-5.885h-3.354v5.885H110.163z"/>
<path fill="#FFFFFF" d="M126.348,46.192h2.394v12.871h-2.498l-1.863-4.582c-0.319-0.768-0.612-1.558-0.882-2.368
	c-0.268-0.812-0.544-1.728-0.829-2.746h-0.034c0.045,0.537,0.091,1.122,0.136,1.748c0.046,0.631,0.086,1.272,0.12,1.924
	c0.034,0.652,0.063,1.288,0.085,1.906c0.023,0.618,0.036,1.185,0.036,1.698v2.42h-2.396V46.192h2.48l1.866,4.685
	c0.308,0.745,0.593,1.523,0.864,2.334c0.266,0.813,0.55,1.741,0.847,2.782h0.034c-0.046-0.586-0.088-1.184-0.129-1.802
	c-0.037-0.618-0.076-1.238-0.11-1.853c-0.034-0.618-0.063-1.229-0.086-1.838c-0.024-0.606-0.035-1.202-0.035-1.784V46.192
	L126.348,46.192z"/>
<path fill="#FFFFFF" d="M131.086,59.063V46.192h2.396v12.871H131.086z"/>
<path fill="#FFFFFF" d="M143.42,54.483c-0.013,0.125-0.02,0.248-0.024,0.368c-0.006,0.121-0.016,0.243-0.024,0.368
	c-0.037,0.585-0.115,1.132-0.24,1.64c-0.124,0.51-0.324,0.949-0.598,1.32c-0.274,0.373-0.635,0.663-1.079,0.876
	s-0.998,0.318-1.659,0.318c-0.98,0-1.75-0.149-2.309-0.446c-0.562-0.299-0.979-0.709-1.257-1.238
	c-0.281-0.523-0.454-1.151-0.524-1.878c-0.066-0.727-0.102-1.519-0.102-2.376v-1.838c0.022-0.822,0.072-1.584,0.155-2.282
	c0.079-0.698,0.26-1.302,0.537-1.811c0.28-0.51,0.694-0.907,1.242-1.192c0.547-0.287,1.298-0.43,2.257-0.43
	c2.169,0.034,3.336,1.144,3.509,3.328c0.022,0.162,0.04,0.324,0.053,0.488c0.01,0.167,0.01,0.331,0,0.49h-2.361
	c-0.024-0.206-0.044-0.446-0.061-0.721c-0.016-0.273-0.06-0.531-0.129-0.771c-0.067-0.242-0.179-0.448-0.333-0.62
	s-0.378-0.258-0.677-0.258c-0.467,0-0.818,0.125-1.059,0.37c-0.242,0.246-0.407,0.54-0.506,0.882
	c-0.096,0.345-0.149,0.701-0.154,1.066c-0.007,0.364-0.009,0.675-0.009,0.925v3.571c0,0.263,0.014,0.557,0.043,0.883
	s0.099,0.633,0.206,0.918c0.108,0.285,0.28,0.522,0.512,0.71c0.234,0.19,0.557,0.284,0.967,0.284c0.333,0,0.576-0.115,0.737-0.342
	c0.16-0.23,0.272-0.505,0.342-0.826c0.068-0.319,0.105-0.646,0.112-0.977c0.005-0.332,0.013-0.6,0.024-0.808h2.408V54.483z"/>
<path fill="#FFFFFF" d="M144.327,59.063l3.063-12.871h3.233l2.906,12.871h-2.564l-0.634-3.26h-2.805l-0.633,3.26H144.327z
	 M147.903,53.915h2.054l-0.65-3.656c-0.057-0.295-0.103-0.592-0.136-0.891c-0.034-0.298-0.068-0.595-0.103-0.892
	c-0.013-0.147-0.024-0.295-0.036-0.438c-0.011-0.144-0.027-0.282-0.052-0.42h-0.034c-0.021,0.138-0.039,0.276-0.05,0.42
	c-0.013,0.144-0.024,0.291-0.036,0.438c-0.034,0.297-0.067,0.594-0.102,0.892c-0.034,0.299-0.081,0.596-0.137,0.891L147.903,53.915z
	"/>
<path fill="#FFFFFF" d="M154.848,59.063V46.192h2.396v10.985h4.449v1.888h-6.846V59.063z"/>
<path fill="#FFFFFF" d="M167.612,59.063V46.192h6.739v1.889h-4.347v3.244h4.005v1.886h-4.005v3.967h4.347v1.888h-6.739V59.063z"/>
<path fill="#FFFFFF" d="M176.302,59.063V46.192h4.994c0.147,0,0.326,0.021,0.53,0.059c0.206,0.042,0.422,0.115,0.651,0.226
	c0.229,0.108,0.457,0.256,0.683,0.446c0.231,0.188,0.435,0.431,0.618,0.729c0.272,0.446,0.459,1.028,0.555,1.749
	c0.097,0.722,0.147,1.618,0.147,2.694c0,0.641-0.013,1.291-0.036,1.949c-0.021,0.657-0.091,1.286-0.212,1.887
	c-0.12,0.602-0.313,1.146-0.583,1.632c-0.268,0.486-0.646,0.874-1.137,1.16c-0.263,0.158-0.552,0.256-0.864,0.292
	c-0.312,0.032-0.618,0.05-0.915,0.05h-4.432V59.063z M179.74,57.178c0.537,0,0.954-0.078,1.258-0.234
	c0.302-0.153,0.53-0.418,0.685-0.796c0.153-0.38,0.248-0.879,0.282-1.502c0.034-0.625,0.05-1.4,0.05-2.325
	c0-0.756-0.021-1.401-0.068-1.939c-0.043-0.537-0.133-0.979-0.264-1.322c-0.132-0.342-0.312-0.592-0.539-0.744
	c-0.23-0.157-0.519-0.233-0.872-0.233h-1.575v9.097H179.74z"/>
<path fill="#FFFFFF" d="M192.436,46.192h2.393v8.976c0,0.708-0.065,1.328-0.195,1.852c-0.131,0.527-0.35,0.964-0.66,1.314
	c-0.31,0.349-0.72,0.608-1.24,0.78c-0.521,0.172-1.172,0.258-1.96,0.258s-1.442-0.086-1.968-0.258
	c-0.523-0.172-0.943-0.432-1.259-0.78c-0.312-0.351-0.535-0.787-0.665-1.314c-0.13-0.523-0.197-1.144-0.197-1.852v-8.976h2.396v8.77
	c0,0.31,0.015,0.613,0.044,0.911c0.029,0.297,0.096,0.56,0.206,0.788c0.106,0.229,0.275,0.416,0.503,0.557
	c0.227,0.145,0.548,0.216,0.957,0.216c0.388,0,0.692-0.071,0.916-0.216c0.221-0.141,0.388-0.327,0.498-0.557
	c0.105-0.229,0.174-0.491,0.194-0.788c0.023-0.298,0.036-0.602,0.036-0.911v-8.77H192.436z"/>
<path fill="#FFFFFF" d="M204.734,54.483c-0.012,0.125-0.021,0.248-0.026,0.368c-0.007,0.121-0.013,0.243-0.022,0.368
	c-0.036,0.585-0.117,1.132-0.24,1.64c-0.125,0.51-0.324,0.949-0.601,1.32c-0.272,0.373-0.631,0.663-1.075,0.876
	c-0.447,0.213-0.999,0.318-1.659,0.318c-0.983,0-1.752-0.149-2.312-0.446c-0.559-0.299-0.977-0.709-1.256-1.238
	c-0.278-0.523-0.454-1.151-0.523-1.878c-0.066-0.727-0.103-1.519-0.103-2.376v-1.838c0.024-0.822,0.073-1.584,0.156-2.282
	c0.079-0.698,0.259-1.302,0.536-1.811c0.281-0.51,0.694-0.907,1.241-1.192c0.548-0.287,1.301-0.43,2.26-0.43
	c2.165,0.034,3.335,1.144,3.507,3.328c0.022,0.162,0.041,0.324,0.054,0.488c0.01,0.167,0.01,0.331,0,0.49h-2.362
	c-0.024-0.206-0.042-0.446-0.06-0.721c-0.018-0.273-0.061-0.531-0.128-0.771c-0.07-0.242-0.181-0.448-0.333-0.62
	c-0.155-0.172-0.38-0.258-0.676-0.258c-0.47,0-0.821,0.125-1.062,0.37c-0.24,0.246-0.407,0.54-0.504,0.882
	c-0.096,0.345-0.149,0.701-0.154,1.066c-0.008,0.364-0.01,0.675-0.01,0.925v3.571c0,0.263,0.015,0.557,0.044,0.883
	s0.097,0.633,0.206,0.918c0.106,0.285,0.278,0.522,0.511,0.71c0.233,0.19,0.557,0.284,0.969,0.284c0.33,0,0.574-0.115,0.734-0.342
	c0.16-0.23,0.274-0.505,0.342-0.826c0.068-0.319,0.107-0.646,0.112-0.977c0.005-0.332,0.013-0.6,0.024-0.808h2.409V54.483z"/>
<path fill="#FFFFFF" d="M205.643,59.063l3.063-12.871h3.232l2.908,12.871h-2.565l-0.633-3.26h-2.807l-0.632,3.26H205.643z
	 M209.218,53.915h2.054l-0.652-3.656c-0.056-0.295-0.101-0.592-0.135-0.891c-0.034-0.298-0.069-0.595-0.104-0.892
	c-0.012-0.147-0.023-0.295-0.033-0.438c-0.013-0.144-0.027-0.282-0.053-0.42h-0.034c-0.024,0.138-0.039,0.276-0.051,0.42
	c-0.011,0.144-0.022,0.291-0.035,0.438c-0.034,0.297-0.066,0.594-0.104,0.892c-0.032,0.299-0.077,0.596-0.134,0.891L209.218,53.915z
	"/>
<path fill="#FFFFFF" d="M214.349,46.192h7.99v1.889h-2.788v10.984h-2.394V48.081h-2.808L214.349,46.192L214.349,46.192z"/>
<path fill="#FFFFFF" d="M223.792,59.063V46.192h2.396v12.871H223.792z"/>
<path fill="#FFFFFF" d="M228.412,51.599c0.024-0.823,0.072-1.585,0.155-2.283c0.078-0.696,0.257-1.3,0.539-1.811
	c0.278-0.508,0.69-0.905,1.24-1.19c0.549-0.287,1.3-0.431,2.259-0.431c0.957,0,1.708,0.144,2.256,0.431
	c0.548,0.285,0.96,0.683,1.242,1.19c0.279,0.511,0.458,1.114,0.539,1.811c0.081,0.698,0.13,1.46,0.154,2.283v1.837
	c0,0.857-0.034,1.649-0.103,2.376c-0.069,0.729-0.245,1.354-0.524,1.878c-0.277,0.529-0.697,0.941-1.254,1.238
	c-0.561,0.297-1.33,0.446-2.31,0.446c-0.982,0-1.753-0.149-2.31-0.446c-0.56-0.297-0.979-0.709-1.259-1.238
	c-0.279-0.523-0.453-1.149-0.522-1.878c-0.068-0.727-0.103-1.519-0.103-2.376L228.412,51.599L228.412,51.599z M230.876,54.637
	c0,0.264,0.015,0.557,0.044,0.883c0.027,0.328,0.096,0.633,0.204,0.918c0.107,0.286,0.277,0.522,0.513,0.712
	c0.235,0.19,0.557,0.282,0.969,0.282c0.42,0,0.747-0.097,0.982-0.292c0.233-0.194,0.407-0.442,0.521-0.746
	c0.114-0.303,0.179-0.629,0.196-0.978c0.019-0.349,0.027-0.679,0.027-0.986v-3.296c0-0.252-0.006-0.566-0.018-0.944
	c-0.011-0.378-0.071-0.743-0.178-1.097c-0.11-0.356-0.281-0.655-0.517-0.902c-0.231-0.244-0.572-0.369-1.015-0.369
	c-0.47,0-0.824,0.125-1.063,0.369c-0.24,0.247-0.409,0.541-0.505,0.883c-0.098,0.344-0.147,0.701-0.154,1.065
	c-0.007,0.367-0.008,0.675-0.008,0.927V54.637L230.876,54.637z"/>
<path fill="#FFFFFF" d="M244.716,46.192h2.396v12.871h-2.498l-1.867-4.582c-0.317-0.768-0.609-1.558-0.879-2.368
	c-0.27-0.812-0.545-1.728-0.83-2.746h-0.034c0.045,0.537,0.091,1.122,0.136,1.748c0.046,0.631,0.086,1.272,0.122,1.924
	c0.034,0.652,0.062,1.288,0.084,1.906c0.024,0.618,0.036,1.185,0.036,1.698v2.42h-2.396V46.192h2.48l1.864,4.685
	c0.308,0.745,0.597,1.523,0.864,2.334c0.27,0.813,0.552,1.741,0.847,2.782h0.036c-0.048-0.586-0.09-1.184-0.132-1.802
	c-0.037-0.618-0.074-1.238-0.108-1.853c-0.034-0.62-0.063-1.229-0.086-1.838c-0.023-0.606-0.034-1.202-0.034-1.784V46.192
	L244.716,46.192z"/>
</svg>
