<?xml version="1.0" encoding="utf-8"?>
<!-- Generator: Adobe Illustrator 16.0.0, SVG Export Plug-In . SVG Version: 6.00 Build 0)  -->
<!DOCTYPE svg PUBLIC "-//W3C//DTD SVG 1.1//EN" "http://www.w3.org/Graphics/SVG/1.1/DTD/svg11.dtd">
<svg version="1.1" id="Layer_1" xmlns="http://www.w3.org/2000/svg" xmlns:xlink="http://www.w3.org/1999/xlink" x="0px" y="0px"
	 width="292px" height="100px" viewBox="0 0 292 100" enable-background="new 0 0 292 100" xml:space="preserve">
<g>
	<g>
		<path fill="#FFFFFF" d="M44.252,91.537c-11.067,0-21.463-4.338-29.271-12.215C7.209,71.484,2.93,61.071,2.93,50
			S7.209,28.517,14.98,20.679c7.809-7.877,18.204-12.215,29.271-12.215s21.462,4.338,29.271,12.215
			C81.294,28.517,85.575,38.93,85.575,50s-4.281,21.483-12.052,29.321C65.714,87.199,55.319,91.537,44.252,91.537z"/>
		<path fill="#263C94" d="M44.252,9.343c22.262,0,40.309,18.203,40.309,40.657c0,22.453-18.047,40.656-40.309,40.656
			C21.99,90.657,3.943,72.454,3.943,50C3.943,27.546,21.99,9.343,44.252,9.343 M44.252,7.585c-5.754,0-11.335,1.136-16.585,3.376
			c-5.047,2.152-9.574,5.229-13.455,9.145c-3.862,3.896-6.893,8.427-9.006,13.468C3.022,38.78,1.916,44.306,1.916,50
			c0,5.695,1.107,11.22,3.29,16.425c2.113,5.043,5.144,9.575,9.006,13.47c3.881,3.914,8.408,6.991,13.455,9.145
			c5.25,2.239,10.831,3.376,16.585,3.376c5.755,0,11.334-1.137,16.584-3.376c5.047-2.153,9.574-5.23,13.456-9.145
			c3.863-3.895,6.892-8.427,9.006-13.47C85.481,61.22,86.588,55.696,86.588,50c0-5.694-1.107-11.221-3.291-16.427
			c-2.114-5.041-5.143-9.572-9.006-13.468c-3.881-3.915-8.408-6.992-13.456-9.145C55.586,8.721,50.007,7.585,44.252,7.585
			L44.252,7.585z"/>
		<ellipse fill="#263C94" cx="44.252" cy="50" rx="31.022" ry="31.291"/>
		<path fill="#FFFFFF" d="M44.996,75.181l0.27-45.476c0,0-1.892-1.222-5.948,0.543c0,0-0.812-5.701,6.895-5.837
			c7.704-0.136,7.704,0,7.704,0v5.565h-5.947v45.477C47.969,75.454,47.293,76.676,44.996,75.181z"/>
		<path fill="#FFFFFF" d="M52.565,41.922l-1.217,31.666c0,0,0,1.662-0.676,1.797c-0.675,0.136-1.013-1.154-0.811-2.987
			c0.204-1.832,0.136-27.625,0.136-27.625s-0.203-3.528,1.622-3.597C51.619,41.176,52.565,41.245,52.565,41.922z"/>
		<path fill="#FFFFFF" d="M52.092,40.09c0,0-1.622,1.9-1.893-0.95C49.929,36.29,50.47,34.932,51.011,35
			C51.551,35.068,52.227,35.475,52.092,40.09z"/>
		<path fill="#FFFFFF" d="M50.082,31.996c0,0,0.304-2.188,1.368-1.171c1.065,1.019,1.673,2.902,0.254,3.615
			C50.284,35.153,49.979,33.116,50.082,31.996z"/>
		<path fill="#FFFFFF" d="M40.653,67.833l0.051-30.898c0,0-2.027-0.052-2.078-3.769c-0.051-3.716,5.221-2.493,5.221-2.493
			s0.709,0.22,0.608,1.17s-1.115,0.679-1.79,0.679c-0.676,0-0.609,0.475-0.609,0.815c0,0.339-0.135,1.391,0.811,1.256
			c0.946-0.136,1.487,0.271,1.487,1.018s0.237,0.95-1.081,1.052c0,0-0.236,0.068-0.135,1.052c0.101,0.985-0.135,31.155-0.135,31.155
			s-0.067,0.372,0.372,0.747c0.438,0.372,1.081,1.322,0.878,2.646c-0.202,1.325-0.506,2.445-2.805,3.122
			c-2.298,0.678-3.21,0.136-3.278-1.12c-0.068-1.256,0.709-1.018,1.014-1.051c0.304-0.035,1.554,0.136,1.419-0.816
			c-0.136-0.949-0.068-1.356-0.878-1.323c-0.812,0.034-1.521,0.068-1.487-0.916c0.034-0.983,0.406-1.085,0.947-1.085
			C39.724,69.074,40.636,69.345,40.653,67.833z"/>
		<path fill="#FFFFFF" d="M39.653,60.472c-3.611-0.905-6.283-4.126-6.283-7.96c0-3.863,2.711-7.104,6.362-7.98l0.026-2.252
			c-4.946,0-8.956,4.581-8.956,10.232c0,5.483,4.026,9.938,8.77,10.199L39.653,60.472z"/>
		<path fill="#FFFFFF" d="M39.82,64.991l0.004-0.093l-0.006-0.002l-0.007-0.549c-5.551-0.793-9.888-5.759-9.888-11.767
			c0-6.005,4.27-10.968,9.816-11.767l-0.013-0.912l0.03-2.255l-2.771-0.136L36.68,40.05c-1.289,0.42-2.483,1.091-3.541,1.964
			c-0.467-0.586-1.418-1.52-2.405-0.939c-1.385,0.814-2.398,2.715-1.385,3.495c0.403,0.311,0.72,0.589,0.956,0.812
			c-0.829,1.432-1.413,3.062-1.688,4.812c-0.54-0.252-2.302-0.94-2.444,0.725c-0.168,1.967-0.608,3.529,1.386,3.462
			c0.459-0.016,0.775-0.049,0.992-0.089c0.22,1.771,0.752,3.431,1.538,4.896c-0.51,0.367-1.534,1.178-1.381,1.64
			c0.202,0.611,1.521,2.205,1.521,2.205s0.845,1.596,2.129,0.34c0.246-0.241,0.439-0.432,0.592-0.588
			c1.039,0.896,2.217,1.595,3.491,2.042c-0.065,0.759-0.131,2.428,0.546,2.584c0.878,0.205,2.703-0.033,2.703-0.033l0.108-1.97
			c0.01,0,0.018,0.002,0.027,0.002L39.82,64.991z"/>
		<path fill="#FFFFFF" d="M52.767,54.073c2.225,0.556,3.552,2.025,3.552,4.389c0,2.379-1.622,3.665-3.872,4.205l0.038,1.654
			c3.046,0,5.577-2.438,5.577-5.919c0-3.38-2.48-6.124-5.404-6.284L52.767,54.073z"/>
		<path fill="#FFFFFF" d="M52.662,65.949c4.132-0.544,6.539-3.641,6.539-7.718c0-4.079-1.981-6.795-6.118-7.334
			c0,0-0.112-0.319-0.146-1.202c-0.034-0.882-0.304-1.968,0.542-1.968c0.844,0,0.777,0.203,0.744,1.119
			c-0.035,0.917-0.238,0.781,0.709,1.222c0.946,0.441,1.521,0.747,1.521,0.747s1.216-1.459,1.69-1.12
			c0.473,0.339,1.791,1.154,1.283,2.273c-0.506,1.122-0.878,0.884-0.304,1.46C59.696,54.004,60,55.465,60,55.465
			s1.757-0.374,1.824,0.439c0.067,0.816-0.033,2.206-0.033,2.206s-1.116-0.137-1.318,0.477c-0.202,0.61-0.54,2.714,0.236,3.359
			c0.777,0.645,0.913,0.543,0.474,1.255c-0.44,0.713-0.878,1.731-1.486,1.224c-0.609-0.511-1.116-0.884-1.656,0
			c-0.541,0.881-1.014,1.255-0.473,2.137c0.541,0.882,0,0.68-0.844,1.46c-0.846,0.779-1.116-0.307-1.757-0.748
			c-0.643-0.439-1.217-0.644-2.197-0.204c0,0-0.236,0.102-0.236,0.578c0,0.476-0.542,0.338-0.372-0.884
			C52.16,66.764,52.185,65.913,52.662,65.949z"/>
		<path fill="#263C94" d="M10.557,51.458c0.018,0.28-0.004,0.524-0.067,0.735c-0.063,0.212-0.158,0.39-0.285,0.535
			c-0.128,0.145-0.283,0.258-0.467,0.337c-0.184,0.081-0.39,0.129-0.616,0.145l-0.032-0.498c0.171-0.023,0.317-0.07,0.439-0.142
			s0.221-0.16,0.297-0.268c0.076-0.106,0.129-0.227,0.16-0.362c0.03-0.135,0.041-0.277,0.032-0.428
			c-0.01-0.147-0.036-0.281-0.079-0.4c-0.043-0.118-0.102-0.219-0.174-0.302c-0.073-0.082-0.159-0.144-0.257-0.187
			c-0.099-0.042-0.208-0.06-0.326-0.054c-0.125,0.005-0.229,0.03-0.313,0.078s-0.156,0.121-0.213,0.22
			c-0.059,0.101-0.108,0.23-0.15,0.389c-0.041,0.158-0.083,0.354-0.123,0.584c-0.044,0.224-0.098,0.416-0.162,0.581
			c-0.064,0.163-0.143,0.299-0.237,0.406c-0.093,0.105-0.203,0.188-0.328,0.243c-0.125,0.057-0.272,0.09-0.443,0.098
			c-0.181,0.008-0.351-0.018-0.509-0.078c-0.16-0.061-0.299-0.149-0.418-0.267c-0.119-0.118-0.215-0.262-0.29-0.432
			c-0.074-0.169-0.118-0.357-0.131-0.566c-0.013-0.221,0.004-0.425,0.055-0.608c0.05-0.187,0.13-0.347,0.241-0.484
			c0.109-0.138,0.246-0.248,0.409-0.331c0.164-0.083,0.352-0.132,0.566-0.147l0.032,0.505c-0.545,0.079-0.799,0.418-0.761,1.017
			c0.018,0.292,0.096,0.516,0.231,0.666c0.135,0.153,0.308,0.224,0.522,0.214c0.096-0.005,0.177-0.023,0.244-0.056
			s0.122-0.084,0.169-0.157c0.047-0.073,0.088-0.168,0.123-0.286c0.035-0.116,0.068-0.264,0.098-0.438
			c0.02-0.119,0.042-0.242,0.067-0.368c0.024-0.124,0.056-0.25,0.095-0.369c0.041-0.12,0.09-0.233,0.15-0.342
			c0.06-0.108,0.135-0.203,0.223-0.286c0.089-0.083,0.197-0.15,0.322-0.202c0.126-0.052,0.274-0.082,0.447-0.089
			c0.2-0.011,0.385,0.017,0.557,0.081c0.172,0.065,0.323,0.16,0.451,0.284c0.129,0.124,0.232,0.274,0.313,0.451
			C10.497,51.056,10.544,51.249,10.557,51.458z"/>
		<path fill="#263C94" d="M10.42,48.877l-0.007,0.52l-4.549-0.056l0.008-0.52L10.42,48.877z"/>
		<path fill="#263C94" d="M10.66,45.021l-0.044,0.533l-3.749,1.844l3.578,0.222l-0.041,0.494l-4.537-0.281l0.044-0.539l3.756-1.835
			l-3.585-0.222l0.041-0.498L10.66,45.021z"/>
		<path fill="#263C94" d="M9.114,40.821c1.511,0.223,2.136,0.995,1.877,2.315l-0.242,1.234l-4.484-0.661l0.242-1.234
			C6.766,41.154,7.635,40.602,9.114,40.821z M9.01,41.351C8.747,41.312,8.508,41.3,8.29,41.314C8.073,41.33,7.88,41.38,7.714,41.47
			c-0.167,0.089-0.307,0.222-0.42,0.398c-0.115,0.176-0.199,0.406-0.255,0.69l-0.139,0.714l3.417,0.504l0.14-0.713
			c0.055-0.282,0.063-0.523,0.021-0.723c-0.041-0.199-0.125-0.365-0.252-0.499c-0.128-0.135-0.294-0.239-0.5-0.316
			C9.521,41.45,9.282,41.39,9.01,41.351z"/>
		<path fill="#263C94" d="M12.461,37.678l-0.162,0.508l-2.066-0.493l-0.627,1.979l2.067,0.492l-0.16,0.505l-4.387-1.045l0.16-0.504
			l1.797,0.428l0.628-1.979l-1.798-0.428l0.161-0.508L12.461,37.678z"/>
		<path fill="#263C94" d="M13.556,32.254c0.394,0.149,0.635,0.378,0.727,0.686c0.092,0.306,0.025,0.682-0.2,1.124l-0.688,1.357
			l-4.164-1.588l0.651-1.285c0.096-0.188,0.207-0.349,0.334-0.484c0.127-0.133,0.264-0.237,0.41-0.31
			c0.147-0.073,0.3-0.113,0.461-0.122c0.161-0.008,0.323,0.02,0.488,0.082c0.204,0.078,0.357,0.188,0.458,0.328
			c0.101,0.141,0.156,0.317,0.164,0.53c0.09-0.105,0.191-0.188,0.302-0.251c0.111-0.063,0.225-0.105,0.343-0.131
			c0.118-0.024,0.237-0.031,0.358-0.02C13.322,32.182,13.44,32.209,13.556,32.254z M11.219,34.02l0.408-0.805
			c0.134-0.265,0.184-0.477,0.151-0.639c-0.033-0.162-0.165-0.287-0.394-0.374c-0.103-0.039-0.2-0.06-0.292-0.061
			c-0.09-0.001-0.178,0.021-0.263,0.066c-0.084,0.045-0.165,0.115-0.243,0.209s-0.156,0.218-0.232,0.368l-0.385,0.758L11.219,34.02z
			 M13.142,34.753l0.444-0.875c0.289-0.569,0.194-0.944-0.284-1.126c-0.124-0.048-0.238-0.074-0.343-0.079
			c-0.106-0.006-0.205,0.016-0.3,0.064s-0.188,0.127-0.275,0.234c-0.089,0.108-0.178,0.251-0.268,0.428l-0.41,0.807L13.142,34.753z"
			/>
		<path fill="#263C94" d="M11.983,28.791c0.157-0.235,0.351-0.431,0.58-0.582c0.23-0.151,0.483-0.255,0.757-0.313
			c0.275-0.056,0.564-0.063,0.869-0.019c0.305,0.044,0.609,0.142,0.914,0.293c0.304,0.151,0.553,0.329,0.75,0.533
			c0.196,0.205,0.338,0.425,0.423,0.659c0.084,0.233,0.11,0.476,0.077,0.726c-0.033,0.249-0.129,0.495-0.289,0.735
			c-0.159,0.24-0.354,0.436-0.585,0.587c-0.231,0.15-0.484,0.255-0.759,0.311c-0.276,0.056-0.566,0.062-0.87,0.017
			c-0.305-0.045-0.609-0.143-0.914-0.296c-0.306-0.152-0.558-0.332-0.754-0.538c-0.197-0.207-0.336-0.428-0.419-0.662
			c-0.082-0.233-0.105-0.475-0.069-0.723C11.729,29.27,11.826,29.028,11.983,28.791z M15.615,30.603
			c0.113-0.172,0.181-0.347,0.204-0.526c0.021-0.179,0-0.355-0.069-0.526c-0.068-0.172-0.181-0.335-0.341-0.492
			c-0.158-0.155-0.363-0.296-0.615-0.42c-0.25-0.126-0.494-0.208-0.73-0.248c-0.237-0.039-0.457-0.041-0.661-0.004
			c-0.204,0.036-0.388,0.107-0.552,0.213c-0.165,0.106-0.302,0.243-0.412,0.408c-0.112,0.172-0.181,0.347-0.204,0.525
			c-0.024,0.18-0.001,0.354,0.065,0.527c0.068,0.173,0.18,0.337,0.337,0.493c0.158,0.156,0.36,0.297,0.609,0.421
			c0.251,0.125,0.495,0.208,0.73,0.248c0.235,0.041,0.456,0.042,0.661,0.007c0.205-0.035,0.391-0.106,0.559-0.213
			C15.363,30.91,15.503,30.772,15.615,30.603z"/>
		<path fill="#263C94" d="M19.61,26.162l-0.403,0.477l-1.427-0.34l-1.126,1.333l0.816,1.061l-0.375,0.442l-2.637-3.551l0.386-0.457
			L19.61,26.162z M17.287,26.174l-2.172-0.518l1.247,1.611L17.287,26.174z"/>
		<path fill="#263C94" d="M22.342,23.595l-0.444,0.418l-1.187-0.445c-0.104-0.036-0.21-0.061-0.319-0.071
			c-0.108-0.011-0.215-0.009-0.32,0.008c-0.104,0.018-0.206,0.048-0.303,0.093c-0.097,0.047-0.186,0.106-0.265,0.182l-0.756,0.712
			l1.429,1.142l-0.409,0.385l-3.345-2.673l1.366-1.285c0.082-0.077,0.163-0.15,0.241-0.216c0.08-0.068,0.16-0.127,0.242-0.18
			c0.082-0.052,0.168-0.096,0.258-0.13c0.089-0.034,0.186-0.057,0.292-0.067c0.183-0.016,0.361,0.004,0.537,0.06
			c0.175,0.056,0.33,0.138,0.465,0.245c0.117,0.094,0.208,0.194,0.274,0.303s0.107,0.221,0.124,0.338
			c0.016,0.117,0.008,0.236-0.025,0.359c-0.034,0.122-0.093,0.242-0.179,0.361l0.008,0.007c0.287-0.145,0.655-0.139,1.101,0.018
			L22.342,23.595z M18.349,24.17l0.915-0.861c0.126-0.118,0.224-0.229,0.294-0.33c0.072-0.103,0.114-0.199,0.126-0.29
			c0.013-0.092-0.005-0.18-0.052-0.265c-0.047-0.085-0.123-0.17-0.23-0.256c-0.192-0.153-0.389-0.216-0.59-0.187
			c-0.202,0.029-0.412,0.146-0.633,0.355l-0.976,0.919L18.349,24.17z"/>
		<path fill="#263C94" d="M24.099,19.666c0.992,1.014,0.898,1.953-0.28,2.82l-1.101,0.81l-2.944-3.006l1.101-0.811
			C22.054,18.612,23.129,18.674,24.099,19.666z M23.626,20.014c-0.172-0.177-0.347-0.32-0.524-0.43
			c-0.176-0.11-0.362-0.178-0.557-0.202c-0.194-0.023-0.4-0.001-0.617,0.071c-0.219,0.071-0.454,0.2-0.708,0.388l-0.636,0.468
			l2.244,2.291l0.635-0.467c0.252-0.186,0.436-0.367,0.552-0.543c0.117-0.176,0.175-0.35,0.177-0.523
			c0.001-0.174-0.048-0.347-0.147-0.521C23.944,20.374,23.804,20.196,23.626,20.014z"/>
		<path fill="#263C94" d="M27.14,15.597c0.275-0.132,0.557-0.211,0.845-0.237c0.288-0.027,0.565-0.003,0.834,0.072
			s0.52,0.199,0.754,0.373c0.235,0.175,0.438,0.395,0.607,0.661c0.169,0.265,0.277,0.529,0.323,0.793
			c0.046,0.263,0.036,0.515-0.031,0.752c-0.066,0.238-0.189,0.457-0.367,0.656c-0.177,0.198-0.405,0.365-0.684,0.5
			c-0.279,0.134-0.564,0.214-0.852,0.239c-0.288,0.026-0.566,0.001-0.836-0.075c-0.269-0.075-0.521-0.201-0.754-0.375
			c-0.233-0.176-0.436-0.396-0.605-0.662c-0.171-0.269-0.279-0.535-0.324-0.8c-0.044-0.267-0.032-0.517,0.037-0.754
			c0.069-0.237,0.194-0.454,0.372-0.65C26.637,15.894,26.865,15.729,27.14,15.597z M29.167,18.777
			c0.199-0.096,0.361-0.215,0.488-0.359c0.126-0.144,0.211-0.304,0.255-0.481c0.044-0.177,0.045-0.368,0.002-0.572
			c-0.043-0.205-0.134-0.417-0.274-0.636c-0.141-0.221-0.3-0.4-0.479-0.539c-0.178-0.141-0.366-0.24-0.562-0.302
			c-0.196-0.061-0.396-0.082-0.601-0.064c-0.205,0.017-0.403,0.072-0.597,0.164c-0.199,0.097-0.361,0.216-0.488,0.358
			c-0.126,0.143-0.212,0.304-0.257,0.48c-0.046,0.178-0.048,0.369-0.007,0.573s0.132,0.416,0.271,0.634
			c0.14,0.219,0.299,0.399,0.476,0.54c0.178,0.14,0.365,0.24,0.562,0.302c0.197,0.062,0.398,0.084,0.605,0.068
			C28.769,18.926,28.97,18.872,29.167,18.777z"/>
		<path fill="#263C94" d="M33.181,13.839l-2.303,0.776l0.509,1.137l2.001-0.675l0.196,0.437l-2.001,0.675l0.746,1.665l-0.562,0.188
			l-1.649-3.675l2.865-0.966L33.181,13.839z"/>
		<path fill="#263C94" d="M39.522,12.579l-1.481,0.234l0.717,3.418l-0.593,0.093l-0.716-3.418l-1.472,0.232l-0.097-0.462l3.546-0.56
			L39.522,12.579z"/>
		<path fill="#263C94" d="M43.991,15.827l-3.394,0.146l-0.224-3.939l3.29-0.14l0.027,0.468l-2.688,0.115l0.068,1.196l2.513-0.107
			l0.026,0.469l-2.513,0.107l0.077,1.337l2.791-0.119L43.991,15.827z"/>
		<path fill="#263C94" d="M48.561,13.399l-0.614-0.048c0.003-0.127-0.021-0.243-0.077-0.348c-0.056-0.104-0.133-0.197-0.233-0.276
			c-0.101-0.079-0.221-0.144-0.36-0.192c-0.14-0.05-0.293-0.081-0.461-0.094c-0.229-0.019-0.439-0.001-0.63,0.055
			c-0.192,0.054-0.36,0.143-0.503,0.267c-0.144,0.123-0.261,0.28-0.352,0.471c-0.091,0.191-0.149,0.414-0.177,0.671
			c-0.026,0.254-0.017,0.482,0.032,0.685c0.05,0.203,0.13,0.378,0.244,0.522c0.114,0.146,0.258,0.26,0.434,0.345
			c0.175,0.085,0.375,0.137,0.6,0.155c0.175,0.014,0.338,0.008,0.488-0.019c0.148-0.025,0.282-0.072,0.396-0.138
			c0.114-0.065,0.208-0.15,0.284-0.252c0.076-0.102,0.128-0.222,0.156-0.362l0.615,0.049c-0.043,0.207-0.123,0.389-0.239,0.543
			c-0.118,0.154-0.262,0.281-0.437,0.382c-0.173,0.1-0.37,0.171-0.592,0.212c-0.221,0.041-0.457,0.052-0.708,0.031
			c-0.322-0.025-0.61-0.096-0.86-0.213c-0.25-0.116-0.458-0.27-0.622-0.462c-0.165-0.192-0.282-0.418-0.354-0.677
			s-0.092-0.542-0.058-0.852c0.033-0.31,0.113-0.586,0.239-0.829s0.291-0.445,0.492-0.606c0.201-0.162,0.439-0.281,0.709-0.356
			c0.271-0.074,0.566-0.1,0.887-0.074c0.24,0.02,0.463,0.068,0.67,0.146s0.386,0.178,0.539,0.301
			c0.153,0.124,0.273,0.267,0.361,0.432C48.516,13.029,48.561,13.208,48.561,13.399z"/>
		<path fill="#263C94" d="M52.258,16.96l-0.589-0.125l0.51-1.805l-2.3-0.488l-0.509,1.805l-0.586-0.124l1.082-3.83l0.586,0.124
			l-0.444,1.569l2.3,0.489l0.444-1.57l0.589,0.125L52.258,16.96z"/>
		<path fill="#263C94" d="M56.25,18.319l-0.571-0.201l-0.863-3.661l-1.35,2.883l-0.529-0.188l1.71-3.653l0.578,0.203l0.851,3.663
			l1.353-2.887l0.533,0.188L56.25,18.319z"/>
		<path fill="#263C94" d="M57.516,18.924l-0.531-0.241l2.107-3.494l0.53,0.24L57.516,18.924z"/>
		<path fill="#263C94" d="M63.144,18.698l-0.517-0.29c0.071-0.109,0.11-0.223,0.117-0.338c0.007-0.116-0.013-0.229-0.059-0.34
			c-0.046-0.109-0.119-0.214-0.216-0.314c-0.098-0.101-0.217-0.189-0.357-0.269c-0.194-0.108-0.39-0.177-0.588-0.205
			c-0.199-0.028-0.395-0.018-0.588,0.035c-0.193,0.051-0.381,0.144-0.563,0.275c-0.183,0.133-0.355,0.307-0.515,0.522
			c-0.16,0.214-0.273,0.421-0.337,0.62c-0.066,0.199-0.087,0.386-0.064,0.561c0.023,0.175,0.09,0.334,0.2,0.48
			s0.259,0.271,0.448,0.378c0.148,0.084,0.296,0.144,0.442,0.181c0.146,0.036,0.288,0.049,0.424,0.036
			c0.136-0.012,0.266-0.049,0.387-0.108c0.122-0.06,0.232-0.146,0.333-0.258l0.518,0.291c-0.149,0.165-0.316,0.293-0.503,0.383
			c-0.186,0.091-0.382,0.145-0.589,0.164c-0.207,0.019-0.419,0.002-0.637-0.05c-0.219-0.053-0.433-0.139-0.646-0.258
			c-0.272-0.152-0.488-0.331-0.648-0.534c-0.16-0.203-0.26-0.424-0.304-0.66c-0.042-0.235-0.026-0.483,0.049-0.74
			c0.075-0.259,0.209-0.519,0.404-0.779c0.194-0.261,0.413-0.473,0.655-0.638c0.242-0.164,0.496-0.278,0.761-0.34
			c0.266-0.063,0.538-0.072,0.818-0.03c0.28,0.043,0.557,0.14,0.827,0.291c0.202,0.113,0.374,0.246,0.515,0.398
			c0.142,0.15,0.247,0.313,0.316,0.482c0.07,0.171,0.099,0.347,0.089,0.527C63.302,18.352,63.247,18.529,63.144,18.698z"/>
		<path fill="#263C94" d="M64.716,23.397l-0.521-0.381l0.486-1.211l-1.459-1.063l-1.274,0.636l-0.486-0.354l4.264-2.045l0.5,0.365
			L64.716,23.397z M64.855,21.387l0.742-1.845l-1.938,0.972L64.855,21.387z"/>
		<path fill="#263C94" d="M66.817,25.328l-1.957-1.76l3.273-2.737l0.418,0.376l-2.885,2.413l1.539,1.382L66.817,25.328z"/>
		<path fill="#263C94" d="M70.349,29.379l-1.961-2.406l3.714-2.275l1.902,2.332L73.563,27.3l-1.554-1.905l-1.13,0.692l1.453,1.78
			l-0.442,0.271l-1.452-1.781l-1.261,0.772l1.614,1.979L70.349,29.379z"/>
		<path fill="#263C94" d="M74.496,31.681c-1.337,0.647-2.383,0.386-3.137-0.784l-0.704-1.093l3.973-1.923l0.703,1.094
			C76.084,30.145,75.807,31.047,74.496,31.681z M74.194,31.211c0.233-0.112,0.429-0.233,0.587-0.362s0.271-0.274,0.335-0.435
			c0.065-0.16,0.079-0.34,0.04-0.539c-0.039-0.199-0.139-0.425-0.302-0.678l-0.406-0.631l-3.027,1.465l0.407,0.631
			c0.161,0.251,0.33,0.441,0.505,0.575c0.177,0.132,0.363,0.216,0.56,0.252c0.196,0.034,0.401,0.025,0.617-0.025
			C73.725,31.413,73.953,31.328,74.194,31.211z"/>
		<path fill="#263C94" d="M73.357,34.552c-0.111-0.224-0.179-0.425-0.204-0.601c-0.025-0.177-0.02-0.335,0.019-0.475
			c0.038-0.14,0.102-0.262,0.192-0.366c0.09-0.104,0.198-0.198,0.317-0.279c0.121-0.082,0.251-0.154,0.393-0.216
			c0.141-0.062,0.28-0.118,0.419-0.17l2.42-0.893l0.236,0.481l-2.41,0.89c-0.281,0.104-0.498,0.208-0.654,0.315
			c-0.155,0.107-0.261,0.219-0.32,0.334c-0.059,0.117-0.078,0.24-0.055,0.37c0.021,0.131,0.069,0.272,0.144,0.425
			c0.076,0.153,0.16,0.282,0.254,0.387c0.094,0.104,0.209,0.178,0.348,0.221c0.139,0.042,0.306,0.052,0.5,0.027
			c0.195-0.024,0.433-0.089,0.712-0.191l2.41-0.89l0.237,0.483l-2.419,0.894c-0.289,0.107-0.558,0.181-0.807,0.222
			c-0.248,0.04-0.478,0.037-0.688-0.013c-0.21-0.049-0.401-0.15-0.576-0.304C73.652,35.052,73.496,34.834,73.357,34.552z"/>
		<path fill="#263C94" d="M78.525,38.861l-0.182-0.511c0.135-0.044,0.25-0.109,0.339-0.194c0.091-0.085,0.16-0.183,0.207-0.293
			c0.045-0.11,0.069-0.23,0.067-0.361c0-0.132-0.025-0.267-0.075-0.405c-0.068-0.19-0.168-0.353-0.3-0.484
			c-0.131-0.132-0.29-0.233-0.477-0.301c-0.186-0.067-0.398-0.102-0.638-0.102c-0.237,0.001-0.498,0.039-0.781,0.114
			c-0.281,0.076-0.52,0.172-0.718,0.288s-0.352,0.248-0.463,0.394c-0.111,0.147-0.178,0.308-0.202,0.48
			c-0.024,0.173-0.003,0.353,0.064,0.539c0.052,0.146,0.121,0.275,0.206,0.386c0.085,0.108,0.184,0.196,0.297,0.263
			c0.114,0.066,0.24,0.11,0.377,0.132c0.138,0.022,0.286,0.018,0.446-0.013l0.182,0.511c-0.236,0.044-0.459,0.05-0.668,0.016
			c-0.209-0.035-0.4-0.103-0.574-0.203s-0.324-0.232-0.452-0.393c-0.128-0.163-0.23-0.348-0.305-0.558
			c-0.096-0.269-0.13-0.524-0.102-0.77s0.114-0.471,0.256-0.675c0.142-0.205,0.338-0.386,0.586-0.542s0.543-0.28,0.886-0.372
			c0.342-0.092,0.668-0.133,0.975-0.125c0.307,0.009,0.585,0.063,0.833,0.163c0.251,0.1,0.468,0.243,0.651,0.432
			c0.184,0.188,0.324,0.416,0.418,0.683c0.071,0.2,0.106,0.396,0.102,0.592s-0.042,0.377-0.116,0.547
			c-0.073,0.17-0.18,0.32-0.321,0.453S78.729,38.788,78.525,38.861z"/>
		<path fill="#263C94" d="M76.381,43.345l-0.138-0.579l1.246-0.689l-0.384-1.619l-1.456-0.185l-0.127-0.538l4.808,0.684l0.132,0.557
			L76.381,43.345z M77.927,41.842l1.9-1.05l-2.217-0.278L77.927,41.842z"/>
		<path fill="#263C94" d="M80.75,45.954l-0.177-1.297l-3.98,0.405l-0.07-0.519l3.98-0.405L80.33,42.85l0.537-0.055l0.42,3.104
			L80.75,45.954z"/>
		<path fill="#263C94" d="M76.806,47.33l-0.034-0.519l4.54-0.23l0.035,0.519L76.806,47.33z"/>
		<path fill="#263C94" d="M81.492,49.836c-0.005,0.272-0.065,0.523-0.181,0.754c-0.116,0.229-0.279,0.427-0.487,0.592
			c-0.208,0.165-0.458,0.291-0.749,0.384c-0.291,0.089-0.612,0.132-0.964,0.128c-0.349-0.006-0.667-0.056-0.953-0.15
			c-0.287-0.096-0.533-0.229-0.739-0.398c-0.205-0.168-0.363-0.369-0.475-0.602c-0.11-0.231-0.164-0.486-0.16-0.765
			c0.004-0.275,0.065-0.528,0.183-0.758c0.117-0.23,0.28-0.428,0.491-0.593c0.208-0.164,0.458-0.292,0.749-0.381
			c0.291-0.089,0.613-0.131,0.964-0.127c0.354,0.004,0.675,0.056,0.961,0.153c0.29,0.099,0.535,0.232,0.737,0.401
			c0.203,0.17,0.36,0.371,0.466,0.604C81.445,49.311,81.496,49.564,81.492,49.836z M77.301,49.783
			c-0.003,0.197,0.036,0.379,0.118,0.545c0.082,0.167,0.199,0.312,0.354,0.433c0.156,0.121,0.347,0.217,0.573,0.286
			c0.227,0.069,0.484,0.104,0.774,0.11c0.29,0.003,0.549-0.027,0.778-0.093c0.229-0.063,0.422-0.156,0.58-0.274
			c0.158-0.117,0.278-0.258,0.364-0.419c0.083-0.164,0.126-0.341,0.13-0.531c0.003-0.197-0.036-0.379-0.116-0.545
			c-0.081-0.166-0.197-0.311-0.352-0.434c-0.156-0.122-0.347-0.218-0.571-0.289c-0.226-0.071-0.482-0.108-0.769-0.111
			c-0.29-0.003-0.548,0.027-0.776,0.092c-0.229,0.063-0.423,0.154-0.582,0.271c-0.16,0.118-0.283,0.259-0.369,0.422
			S77.305,49.587,77.301,49.783z"/>
		<path fill="#263C94" d="M76.4,55.228l0.066-0.532l3.827-1.718l-3.565-0.342l0.062-0.491l4.521,0.433l-0.067,0.536l-3.832,1.71
			l3.571,0.339l-0.063,0.497L76.4,55.228z"/>
		<path fill="#263C94" d="M70.648,70.593c-0.023,0.01-0.062,0.001-0.12-0.028c-0.005-0.048,0.001-0.122,0.016-0.24
			c0.062-0.428,0.001-0.712-0.154-0.848c-0.042-0.043-0.087-0.041-0.137,0.001c-0.071,0.14-0.156,0.274-0.248,0.404
			c-0.284-0.14-0.462-0.227-0.535-0.253c0.111-0.17,0.255-0.399,0.414-0.679c0.124-0.103,0.267-0.114,0.434-0.05
			c0.04,0.008,0.073,0.021,0.106,0.037c0.197,0.087,0.328,0.254,0.397,0.494c0.068,0.243,0.067,0.511,0,0.804
			c-0.036,0.151-0.062,0.23-0.078,0.255C70.725,70.517,70.69,70.557,70.648,70.593L70.648,70.593L70.648,70.593z"/>
		<path fill="#263C94" d="M75.214,69.905c0.186,0.076,0.336,0.201,0.443,0.36c0.067,0.091,0.14,0.25,0.221,0.464
			c0.006,0.016,0.011,0.03,0.017,0.044c-0.029,0.029-0.057,0.054-0.087,0.08c-0.145-0.1-0.269-0.166-0.364-0.209
			c-0.395-0.169-1.25-0.402-2.545-0.737c-0.125-0.032-0.438-0.11-0.951-0.238c-0.118-0.179-0.243-0.414-0.397-0.692
			c0.958,0.223,1.818,0.416,2.566,0.602C74.614,69.697,74.981,69.809,75.214,69.905L75.214,69.905L75.214,69.905z"/>
		<path fill="#263C94" d="M74.155,71.899c0.62,0.262,1.043,0.762,1.234,1.509c0.183,0.703,0.052,1.362-0.382,1.938
			c-0.151,0.208-0.333,0.396-0.539,0.566c-0.049,0.041-0.097,0.082-0.146,0.123c-0.063,0.046-0.125,0.092-0.188,0.137
			c-0.08,0.055-0.159,0.11-0.237,0.162c-0.092,0.059-0.184,0.118-0.275,0.179c0.009-0.047,0.018-0.094,0.027-0.142
			c0.152-0.112,0.268-0.209,0.329-0.269c0.061-0.066,0.122-0.132,0.182-0.198c0.041-0.041,0.08-0.082,0.118-0.122
			c0.175-0.217,0.334-0.501,0.472-0.853c0.284-0.709,0.305-1.367,0.08-1.945c-0.137-0.347-0.291-0.551-0.461-0.61
			c-0.055-0.02-0.11-0.037-0.165-0.057c-0.039-0.008-0.072-0.011-0.098-0.011c-0.041,0.009-0.082,0.019-0.123,0.026
			c0.008,0.051,0.015,0.101,0.022,0.152c0.004,0.07,0.009,0.141,0.015,0.212c-0.02,0.094-0.066,0.2-0.139,0.305
			c-0.125,0.179-0.284,0.313-0.455,0.39c-0.171,0.074-0.334,0.073-0.474,0.006c-0.083-0.034-0.176-0.138-0.277-0.307
			c-0.087-0.164-0.151-0.3-0.177-0.4c-0.058-0.118-0.084-0.232-0.078-0.354c0.004-0.121,0.04-0.226,0.102-0.316
			c0.112-0.163,0.339-0.267,0.687-0.315c0.161-0.018,0.316-0.018,0.474,0.021c0.078,0.02,0.156,0.035,0.235,0.055
			C73.997,71.82,74.077,71.858,74.155,71.899 M73.334,72.382c-0.065-0.008-0.128,0.008-0.18,0.044
			c-0.065,0.018-0.129,0.072-0.186,0.153c-0.083,0.119-0.078,0.199,0.012,0.259c0.033,0.02,0.085,0.021,0.156,0.008
			c0.013-0.004,0.039-0.016,0.071-0.037c0.024-0.025,0.048-0.05,0.072-0.076c0.045-0.064,0.079-0.125,0.083-0.173
			C73.362,72.523,73.362,72.459,73.334,72.382L73.334,72.382L73.334,72.382z"/>
		<path fill="#263C94" d="M71.973,75.555c-0.667,0.773-1.368,1.507-2.1,2.206c-0.159-0.126-0.317-0.254-0.475-0.381
			c0.584-0.559,1.149-1.14,1.691-1.745c-0.964-0.407-1.918-0.827-2.86-1.265c-0.083,0.048-0.167,0.094-0.25,0.139
			c-0.245-0.177-0.43-0.407-0.544-0.68c0.027-0.009,0.054-0.019,0.082-0.027c0.112,0.079,0.268,0.061,0.46-0.056
			c0.097-0.065,0.246-0.154,0.443-0.283c0.259,0.174,0.419,0.329,0.473,0.476c-0.068,0.047-0.135,0.094-0.204,0.142
			c0.89,0.379,1.791,0.744,2.701,1.091C71.585,75.299,71.779,75.427,71.973,75.555L71.973,75.555z"/>
		<path fill="#263C94" d="M69.701,77.087c0.16,0.125,0.321,0.25,0.481,0.376c-0.162,0.228-0.303,0.429-0.426,0.631
			c-0.304,0.478-0.501,0.846-0.577,1.125c0.688-0.438,1.106-0.719,1.269-0.796c0.126-0.06,0.235-0.045,0.337,0.034
			c0.274,0.219,0.387,0.415,0.341,0.604c-0.089,0.368-0.358,0.888-0.827,1.525c-0.469,0.638-0.93,1.115-1.356,1.437
			c-0.552,0.417-1.039,0.639-1.461,0.686c-0.628,0.071-1.122-0.104-1.476-0.509c-0.257-0.295-0.344-0.707-0.289-1.225
			c0.058-0.013,0.116-0.025,0.175-0.037c-0.041,0.434,0.02,0.742,0.192,0.935c0.199,0.225,0.53,0.322,1.011,0.277
			c0.557-0.05,1.162-0.31,1.776-0.786c0.519-0.401,1.023-0.938,1.468-1.595c0.408-0.596,0.554-0.926,0.482-0.984
			c-0.055-0.045-0.238,0.032-0.555,0.234c-0.326,0.205-0.654,0.403-0.985,0.594c-0.159,0.09-0.255,0.142-0.287,0.159
			c-0.077,0.038-0.134,0.03-0.172-0.003c-0.122-0.109-0.108-0.409,0.022-0.905C68.897,78.661,69.212,78.071,69.701,77.087
			L69.701,77.087L69.701,77.087z"/>
		<path fill="#263C94" d="M71.764,79.362c0.101,0.081,0.118,0.172,0.061,0.267c-0.263,0.399-0.537,0.793-0.818,1.183
			c-0.059-0.053-0.083-0.105-0.073-0.16c0.003-0.031,0.035-0.114,0.098-0.236C71.284,80.068,71.529,79.717,71.764,79.362
			L71.764,79.362z"/>
		<path fill="#263C94" d="M63.872,81.678c0.117,0.146,0.184,0.315,0.196,0.49c0.013,0.105-0.001,0.267-0.037,0.478
			c-0.003,0.015-0.005,0.028-0.008,0.045c-0.037,0.008-0.072,0.017-0.108,0.022c-0.074-0.146-0.144-0.257-0.204-0.334
			c-0.246-0.318-0.844-0.9-1.756-1.762c-0.089-0.081-0.311-0.287-0.676-0.626c-0.012-0.196-0.003-0.446,0.001-0.742
			c0.688,0.614,1.309,1.168,1.838,1.66C63.473,81.235,63.724,81.494,63.872,81.678L63.872,81.678L63.872,81.678z"/>
		<path fill="#263C94" d="M34.733,85.845c-0.057,0.17-0.165,0.323-0.313,0.442c-0.084,0.076-0.235,0.169-0.444,0.278
			c-0.014,0.008-0.029,0.017-0.043,0.025c-0.029-0.021-0.059-0.039-0.088-0.059c0.085-0.143,0.14-0.26,0.171-0.35
			c0.13-0.363,0.275-1.13,0.473-2.283c0.02-0.112,0.064-0.391,0.138-0.847c0.168-0.135,0.395-0.286,0.658-0.473
			c-0.121,0.85-0.226,1.611-0.336,2.276C34.879,85.297,34.804,85.629,34.733,85.845L34.733,85.845L34.733,85.845z"/>
		<path fill="#263C94" d="M60.117,80.069c-0.015,0.031-0.047,0.172-0.085,0.413c0.019,0.098,0.084,0.232,0.195,0.414
			c0.121,0.176,0.24,0.352,0.359,0.527c0.069,0.168,0.137,0.338,0.205,0.509c0.1,0.261,0.14,0.605,0.11,1.037
			c0.104,0.04,0.244,0.116,0.422,0.226c0.075,0.073,0.15,0.148,0.226,0.222c0.102,0.155,0.084,0.309-0.041,0.469
			c-0.052,0.063-0.146,0.146-0.285,0.24c-0.082,0.061-0.222,0.136-0.416,0.23c-0.406,0.186-0.817,0.364-1.231,0.535
			c-0.079-0.141-0.156-0.281-0.235-0.422c0.042-0.017,0.083-0.034,0.126-0.052c0.299-0.125,0.564-0.314,0.779-0.558
			c0.166-0.195,0.262-0.418,0.283-0.667c-0.391-0.131-0.647-0.226-0.771-0.267c-0.235-0.059-0.47-0.12-0.701-0.183
			c-0.192-0.053-0.384-0.107-0.575-0.163c-0.321-0.084-0.708-0.167-1.149-0.261c-0.048,0.071-0.098,0.146-0.147,0.22
			c-0.251-0.04-0.501-0.085-0.748-0.131c-0.227-0.076-0.386-0.176-0.465-0.297c-0.078-0.167-0.067-0.354,0.013-0.569
			c0.566,0.076,0.979,0.139,1.231,0.207c0.135,0.035,0.271,0.071,0.408,0.104c0.473,0.152,0.953,0.298,1.444,0.433
			c0.223,0.078,0.449,0.155,0.676,0.229c0.285,0.108,0.573,0.214,0.864,0.315c0.021-0.244,0.004-0.485-0.053-0.706
			c-0.082-0.316-0.198-0.563-0.344-0.749c-0.067-0.081-0.134-0.162-0.2-0.244c-0.048-0.074-0.097-0.148-0.148-0.223
			c-0.127-0.156-0.255-0.314-0.382-0.472c-0.063-0.075-0.089-0.152-0.097-0.231c-0.009-0.034,0.016-0.139,0.077-0.306
			C59.677,79.959,59.896,80.016,60.117,80.069 M61.186,83.511c-0.053-0.042-0.106-0.084-0.16-0.128
			c-0.07-0.048-0.136-0.069-0.204-0.074c-0.015,0.06-0.05,0.166-0.1,0.316c-0.031,0.075-0.091,0.186-0.188,0.326
			c0.041-0.019,0.082-0.036,0.122-0.055C61.051,83.714,61.221,83.583,61.186,83.511L61.186,83.511L61.186,83.511z"/>
		<path fill="#263C94" d="M57.843,80.057c-0.025-0.002-0.051-0.026-0.083-0.079c0.021-0.04,0.064-0.096,0.134-0.18
			c0.265-0.307,0.357-0.556,0.304-0.74c-0.013-0.053-0.049-0.074-0.108-0.067c-0.126,0.073-0.261,0.136-0.397,0.192
			c-0.154-0.25-0.251-0.408-0.296-0.462c0.172-0.078,0.402-0.186,0.666-0.321c0.146-0.02,0.264,0.044,0.366,0.178
			c0.026,0.025,0.046,0.052,0.064,0.081c0.112,0.165,0.131,0.359,0.066,0.581c-0.067,0.222-0.202,0.43-0.402,0.624
			c-0.104,0.104-0.163,0.15-0.189,0.162C57.94,80.038,57.893,80.052,57.843,80.057L57.843,80.057L57.843,80.057z"/>
		<path fill="#263C94" d="M51.254,84.233c-0.025-0.01-0.042-0.038-0.058-0.097c0.034-0.033,0.096-0.078,0.195-0.146
			c0.371-0.242,0.547-0.465,0.553-0.656c0.004-0.055-0.025-0.083-0.088-0.089c-0.155,0.046-0.312,0.079-0.471,0.104
			c-0.076-0.274-0.123-0.447-0.152-0.512c0.203-0.04,0.474-0.096,0.788-0.175c0.157,0.014,0.256,0.1,0.316,0.25
			c0.018,0.029,0.029,0.062,0.04,0.093c0.058,0.184,0.015,0.378-0.124,0.58c-0.142,0.2-0.348,0.376-0.616,0.525
			c-0.139,0.075-0.216,0.11-0.247,0.116C51.361,84.233,51.308,84.236,51.254,84.233L51.254,84.233L51.254,84.233z"/>
		<path fill="#263C94" d="M55.869,80.539c0.054,0.108,0.044,0.191-0.025,0.245c-0.304,0.222-0.616,0.442-0.934,0.656
			c-0.03-0.066-0.033-0.123-0.01-0.165c0.009-0.023,0.057-0.082,0.136-0.158C55.319,80.928,55.597,80.735,55.869,80.539
			L55.869,80.539z"/>
		<path fill="#263C94" d="M38.024,83.631c-0.028,0.114-0.093,0.178-0.19,0.188c-0.418,0.033-0.839,0.056-1.263,0.073
			c0.02-0.07,0.055-0.115,0.105-0.14c0.024-0.016,0.105-0.04,0.227-0.061C37.279,83.676,37.653,83.657,38.024,83.631L38.024,83.631z
			"/>
		<path fill="#263C94" d="M30.854,79.784c-0.063,0.104-0.143,0.149-0.236,0.139c-0.395-0.06-0.791-0.127-1.188-0.203
			c0.041-0.063,0.088-0.1,0.142-0.112c0.028-0.01,0.11-0.015,0.23-0.01C30.153,79.666,30.504,79.726,30.854,79.784L30.854,79.784z"
			/>
		<path fill="#263C94" d="M55.156,85.969c-0.887,0.249-1.784,0.467-2.688,0.655c-0.051-0.183-0.102-0.363-0.153-0.545
			c0.761-0.157,1.517-0.337,2.266-0.537c-0.086-0.234-0.207-0.401-0.351-0.515c-0.097-0.079-0.298-0.162-0.613-0.255
			c0.074-0.202,0.146-0.402,0.215-0.603c0.294,0.106,0.493,0.211,0.609,0.31c0.149,0.126,0.291,0.375,0.433,0.745
			C54.968,85.473,55.062,85.722,55.156,85.969 M55.545,86.6c-0.096,0.191-0.192,0.382-0.293,0.575
			c-0.32-0.014-0.637-0.03-0.954-0.049c0.09-0.182,0.176-0.363,0.261-0.547C54.887,86.591,55.215,86.598,55.545,86.6 M54.08,87.016
			c-0.089,0.182-0.182,0.363-0.276,0.543c-0.328-0.016-0.655-0.037-0.981-0.061c0.095-0.177,0.188-0.352,0.279-0.528
			C53.426,86.989,53.752,87.005,54.08,87.016L54.08,87.016z"/>
		<path fill="#263C94" d="M52.679,86.582c-1.03,0.217-2.068,0.396-3.114,0.531c-0.191,0.026-0.376,0.016-0.542-0.023
			c-0.204-0.05-0.305-0.127-0.321-0.23c-0.017-0.109-0.017-0.185-0.012-0.225c0.002-0.061,0.012-0.134,0.044-0.224
			c0.04-0.005,0.08-0.008,0.121-0.015c0.08,0.151,0.291,0.207,0.611,0.165c0.696-0.092,1.387-0.202,2.075-0.33
			c-0.21-0.818-0.775-1.216-1.685-1.253c-0.014-0.209-0.028-0.418-0.043-0.626c0.597,0.089,1.077,0.303,1.427,0.649
			c0.103,0.103,0.238,0.332,0.39,0.694c0.14,0.317,0.217,0.478,0.239,0.475c0.218-0.045,0.435-0.088,0.652-0.134
			C52.573,86.216,52.626,86.398,52.679,86.582L52.679,86.582z"/>
		<path fill="#263C94" d="M51.207,87.287c0.027,0.116-0.013,0.195-0.111,0.239c-0.425,0.177-0.856,0.347-1.293,0.508
			c-0.013-0.071,0.001-0.126,0.04-0.165c0.02-0.022,0.093-0.072,0.211-0.136C50.441,87.588,50.826,87.441,51.207,87.287
			L51.207,87.287z"/>
		<path fill="#263C94" d="M45.909,85.794c0.004,0.06-0.004,0.131-0.019,0.219c-0.01,0.039-0.017,0.091-0.035,0.151
			c-0.263-0.191-0.577-0.286-0.975-0.286c-0.301-0.002-0.622,0.111-0.961,0.334c-0.318,0.201-0.477,0.355-0.48,0.467
			c0,0.034,0.032,0.066,0.109,0.089c0.065,0.021,0.198,0.036,0.409,0.037c0.145,0,0.289,0,0.434,0
			c0.4-0.001,0.744,0.004,1.023,0.021c0.178,0.016,0.271,0.085,0.278,0.223c0.031,0.589-0.425,1.049-1.421,1.329
			c-0.746,0.21-1.724,0.301-2.903,0.224c-1.442-0.1-2.105-0.515-2-1.142c0.061-0.387,0.323-0.786,0.771-1.21
			c0.024-0.024,0.152-0.137,0.386-0.346c0.07,0.022,0.14,0.047,0.209,0.071c-0.516,0.47-0.813,0.847-0.857,1.154
			c-0.078,0.514,0.495,0.852,1.726,0.931c0.95,0.059,1.95-0.071,2.965-0.388c0.398-0.13,0.598-0.221,0.597-0.28
			c-0.003-0.066-0.105-0.095-0.298-0.093c-0.429,0.007-0.857,0.007-1.287,0c-0.159,0-0.293-0.037-0.416-0.113
			c-0.121-0.063-0.172-0.147-0.168-0.262c0.007-0.176,0.139-0.396,0.397-0.66c0.235-0.24,0.464-0.436,0.7-0.578
			c0.354-0.211,0.699-0.318,1.058-0.334c0.2-0.012,0.381,0.029,0.534,0.114C45.819,85.542,45.889,85.65,45.909,85.794L45.909,85.794
			L45.909,85.794z"/>
		<path fill="#263C94" d="M42.07,85.128c-0.021-0.014-0.028-0.048-0.023-0.107c0.043-0.024,0.12-0.052,0.236-0.092
			c0.438-0.145,0.682-0.316,0.752-0.497c0.022-0.052,0.004-0.086-0.057-0.107c-0.164,0.006-0.328,0-0.488-0.013
			c0.017-0.283,0.028-0.459,0.022-0.528c0.21,0.011,0.49,0.022,0.818,0.023c0.148,0.051,0.217,0.157,0.222,0.314
			c0.009,0.033,0.009,0.066,0.008,0.1c-0.004,0.19-0.11,0.366-0.313,0.526c-0.202,0.158-0.458,0.276-0.768,0.356
			c-0.159,0.037-0.245,0.053-0.277,0.051C42.174,85.154,42.122,85.144,42.07,85.128L42.07,85.128L42.07,85.128z"/>
		<path fill="#263C94" d="M33.031,81.542c-0.014-0.021-0.009-0.052,0.017-0.107c0.048-0.013,0.126-0.021,0.246-0.03
			c0.445-0.029,0.726-0.132,0.852-0.288c0.039-0.043,0.034-0.081-0.012-0.114c-0.149-0.035-0.294-0.08-0.434-0.133
			c0.119-0.266,0.191-0.432,0.209-0.495c0.186,0.06,0.432,0.139,0.725,0.221c0.115,0.082,0.138,0.201,0.087,0.354
			c-0.004,0.035-0.017,0.064-0.028,0.096c-0.072,0.18-0.23,0.323-0.468,0.425c-0.238,0.104-0.509,0.151-0.815,0.149
			c-0.158-0.002-0.241-0.008-0.269-0.019C33.114,81.591,33.071,81.57,33.031,81.542L33.031,81.542L33.031,81.542z"/>
		<path fill="#263C94" d="M25.487,79.785c-0.009-0.023,0.005-0.054,0.044-0.103c0.053,0,0.136,0.012,0.262,0.033
			c0.466,0.084,0.783,0.052,0.952-0.071c0.052-0.032,0.056-0.071,0.017-0.116c-0.146-0.069-0.283-0.152-0.415-0.239
			c0.188-0.233,0.307-0.379,0.342-0.438c0.176,0.106,0.41,0.248,0.693,0.401c0.098,0.11,0.091,0.232,0,0.372
			c-0.012,0.032-0.033,0.059-0.053,0.087c-0.121,0.16-0.319,0.26-0.592,0.302c-0.271,0.043-0.564,0.023-0.879-0.056
			c-0.161-0.04-0.246-0.07-0.272-0.086C25.561,79.854,25.521,79.822,25.487,79.785L25.487,79.785L25.487,79.785z"/>
		<path fill="#263C94" d="M38.009,86.589c-0.09,0.593-0.46,1.108-1.141,1.522c-0.637,0.391-1.325,0.516-2.022,0.368
			c-0.249-0.047-0.489-0.127-0.721-0.23c-0.054-0.024-0.11-0.049-0.164-0.075c-0.064-0.034-0.128-0.067-0.192-0.102
			c-0.078-0.046-0.155-0.089-0.233-0.135c-0.086-0.052-0.173-0.104-0.259-0.158c0.05-0.009,0.099-0.019,0.149-0.027
			c0.16,0.083,0.29,0.143,0.369,0.168c0.083,0.026,0.167,0.05,0.25,0.077c0.052,0.017,0.105,0.033,0.159,0.049
			c0.268,0.065,0.597,0.094,0.984,0.081c0.786-0.021,1.437-0.232,1.941-0.617c0.303-0.229,0.462-0.426,0.474-0.585
			c0.002-0.052,0.007-0.103,0.011-0.152c-0.004-0.033-0.01-0.061-0.017-0.084c-0.021-0.028-0.04-0.058-0.061-0.089
			c-0.047,0.024-0.094,0.047-0.142,0.07c-0.069,0.028-0.136,0.058-0.206,0.085c-0.096,0.017-0.214,0.017-0.335-0.006
			c-0.212-0.037-0.388-0.118-0.508-0.23c-0.122-0.111-0.166-0.245-0.14-0.38c0.009-0.08,0.089-0.193,0.229-0.333
			c0.136-0.128,0.253-0.228,0.347-0.284c0.102-0.086,0.206-0.148,0.326-0.186c0.121-0.039,0.232-0.047,0.339-0.027
			c0.189,0.034,0.353,0.181,0.494,0.445c0.063,0.124,0.103,0.251,0.106,0.391c0.003,0.071,0.008,0.141,0.012,0.21
			C38.043,86.433,38.026,86.512,38.009,86.589 M37.313,86.092c-0.009-0.056-0.042-0.103-0.092-0.131
			c-0.035-0.046-0.104-0.079-0.203-0.098c-0.139-0.023-0.214,0.007-0.25,0.102c-0.009,0.033,0.001,0.075,0.034,0.129
			c0.01,0.008,0.028,0.023,0.057,0.043c0.031,0.011,0.064,0.021,0.095,0.033c0.077,0.013,0.143,0.017,0.193,0.006
			C37.183,86.164,37.246,86.14,37.313,86.092L37.313,86.092L37.313,86.092z"/>
		<path fill="#263C94" d="M34.09,82.409c-0.036,0.01-0.181,0.079-0.418,0.209c-0.075,0.075-0.15,0.206-0.241,0.394
			c-0.081,0.192-0.161,0.385-0.242,0.577c-0.105,0.154-0.212,0.309-0.319,0.462c-0.167,0.232-0.447,0.481-0.846,0.739
			c0.03,0.096,0.052,0.236,0.067,0.422c-0.018,0.1-0.036,0.195-0.053,0.294c-0.072,0.164-0.22,0.254-0.439,0.272
			c-0.09,0.007-0.222-0.002-0.395-0.031c-0.106-0.016-0.26-0.06-0.467-0.125c-0.424-0.148-0.845-0.305-1.262-0.468
			c0.075-0.143,0.15-0.285,0.225-0.427c0.042,0.017,0.083,0.033,0.125,0.05c0.305,0.116,0.641,0.17,0.994,0.153
			c0.277-0.015,0.536-0.096,0.771-0.24c-0.131-0.344-0.212-0.572-0.255-0.68c-0.098-0.192-0.192-0.388-0.284-0.582
			c-0.077-0.16-0.151-0.319-0.224-0.479c-0.13-0.27-0.306-0.576-0.502-0.929c-0.099,0.016-0.196,0.029-0.295,0.045
			c-0.125-0.192-0.246-0.385-0.365-0.579c-0.079-0.199-0.092-0.369-0.036-0.499c0.097-0.158,0.272-0.272,0.515-0.355
			c0.3,0.422,0.511,0.736,0.611,0.946c0.055,0.112,0.112,0.225,0.169,0.337c0.167,0.411,0.347,0.82,0.541,1.229
			c0.072,0.198,0.147,0.396,0.225,0.594c0.085,0.256,0.175,0.514,0.27,0.771c0.231-0.144,0.433-0.31,0.592-0.49
			c0.228-0.258,0.374-0.492,0.443-0.709c0.03-0.096,0.06-0.191,0.09-0.286c0.035-0.081,0.069-0.162,0.104-0.241
			c0.057-0.185,0.116-0.37,0.175-0.555c0.027-0.09,0.078-0.157,0.145-0.215c0.023-0.026,0.13-0.077,0.317-0.145
			C33.91,82.048,33.999,82.229,34.09,82.409 M31.726,85.327c0.003-0.063,0.007-0.125,0.01-0.186
			c-0.002-0.079-0.023-0.136-0.063-0.185c-0.062,0.028-0.179,0.073-0.343,0.141c-0.085,0.025-0.223,0.057-0.409,0.084
			c0.042,0.015,0.085,0.03,0.128,0.044C31.462,85.369,31.681,85.396,31.726,85.327L31.726,85.327L31.726,85.327z"/>
		<path fill="#263C94" d="M26.789,83.503c-0.821-0.406-1.625-0.845-2.411-1.313c0.123-0.153,0.245-0.308,0.367-0.463
			c0.662,0.395,1.335,0.768,2.022,1.117c0.144-0.213,0.206-0.401,0.205-0.57c0.001-0.114-0.065-0.301-0.199-0.567
			c0.226-0.084,0.449-0.174,0.671-0.263c0.107,0.263,0.152,0.46,0.146,0.601c-0.006,0.18-0.126,0.438-0.351,0.777
			C27.091,83.048,26.94,83.276,26.789,83.503 M25.754,83.827c-0.218,0.067-0.436,0.131-0.656,0.195
			c-0.217-0.221-0.428-0.445-0.636-0.671c0.217-0.059,0.432-0.117,0.646-0.18C25.319,83.392,25.535,83.611,25.754,83.827
			L25.754,83.827z"/>
		<path fill="#263C94" d="M23.626,80.718c0.093-0.089,0.034-0.234-0.156-0.44c-0.137-0.15-0.3-0.286-0.494-0.426
			c-0.317-0.224-0.717-0.422-1.193-0.603c-0.334-0.127-0.734-0.281-1.218-0.475c0.635,0.529,1.289,1.032,1.961,1.511
			C23.128,80.71,23.504,80.843,23.626,80.718L23.626,80.718 M18.596,77.83c-0.139-0.133-0.252-0.271-0.355-0.432
			c-0.084-0.132-0.156-0.273-0.209-0.43c-0.094-0.024-0.191-0.051-0.286-0.078c-0.104-0.033-0.176-0.077-0.215-0.12
			c-0.311-0.321-0.615-0.653-0.914-0.993c0.17-0.115,0.341-0.229,0.512-0.343c0.27,0.308,0.546,0.608,0.827,0.902
			c0.068,0.075,0.151,0.107,0.254,0.101c0.102-0.006,0.187-0.044,0.261-0.099c0.058-0.042,0.103-0.089,0.148-0.135
			c0.055-0.056,0.111-0.11,0.147-0.178c0.106,0.011,0.212,0.021,0.318,0.031c-0.354,0.596-0.297,1.126,0.155,1.55
			c0.235,0.219,0.551,0.44,0.972,0.665c0.393,0.219,0.737,0.357,1.041,0.441c0.305,0.085,0.644,0.174,1.026,0.271
			c0.61,0.186,1.114,0.408,1.533,0.695c0.375,0.258,0.611,0.509,0.705,0.775c0.098,0.259,0.04,0.496-0.16,0.722
			c-0.116,0.021-0.23,0.041-0.347,0.059c0.31,0.196,0.622,0.388,0.937,0.573c-0.128,0.163-0.255,0.327-0.385,0.489
			C22.418,81.041,20.413,79.55,18.596,77.83L18.596,77.83z"/>
		<path fill="#263C94" d="M23.56,77.208c-0.091,0.09-0.187,0.113-0.278,0.074c-0.389-0.164-0.777-0.343-1.163-0.528
			c0.058-0.053,0.116-0.076,0.174-0.073c0.032-0.001,0.117,0.017,0.238,0.056C22.872,76.902,23.215,77.059,23.56,77.208
			L23.56,77.208z"/>
		<path fill="#263C94" d="M16.769,75.947c-0.174-0.194-0.346-0.392-0.516-0.592c-0.294-0.348-0.284-0.716,0.029-1.076
			c0.121-0.14,0.335-0.334,0.645-0.569c0,0,0.243-0.172,0.722-0.51c0.199-0.134,0.336-0.237,0.431-0.318
			c0.18-0.156,0.292-0.295,0.336-0.414c0.056-0.142,0.083-0.274,0.072-0.396c0.325,0.051,0.649,0.095,0.971,0.134
			c-0.17,0.239-0.417,0.496-0.743,0.77c-0.197,0.156-0.487,0.372-0.875,0.639c-0.414,0.28-0.708,0.489-0.872,0.632
			c-0.158,0.137-0.257,0.288-0.283,0.45c-0.015,0.128,0.007,0.231,0.086,0.324c0.167,0.196,0.334,0.391,0.505,0.583
			C17.107,75.716,16.938,75.832,16.769,75.947L16.769,75.947z"/>
		<path fill="#263C94" d="M14.775,73.018c-0.361,0.206-0.816,0.231-1.377,0.068c-0.612-0.177-1.105-0.558-1.453-1.137
			c-0.106-0.177-0.199-0.361-0.275-0.568c-0.058-0.176-0.132-0.423-0.213-0.772c0.068,0.042,0.137,0.085,0.205,0.125
			c0.035,0.08,0.08,0.192,0.143,0.351c0.029,0.066,0.078,0.151,0.125,0.249c0.166,0.285,0.381,0.531,0.633,0.731
			c0.292,0.221,0.598,0.414,0.899,0.566c0.412,0.199,0.693,0.248,0.849,0.18c0.079-0.029,0.163-0.164,0.249-0.386
			c0.093-0.228,0.168-0.354,0.229-0.383c0.032-0.017,0.109-0.018,0.226-0.002c0.146,0.022,0.292,0.042,0.438,0.063
			c-0.063,0.218-0.147,0.413-0.265,0.566C15.072,72.821,14.93,72.935,14.775,73.018L14.775,73.018L14.775,73.018z"/>
		<path fill="#263C94" d="M12.997,73.911c-0.116,0.062-0.222,0.05-0.311-0.029c-0.375-0.34-0.746-0.695-1.11-1.059
			c0.072-0.036,0.139-0.039,0.198-0.014c0.033,0.012,0.119,0.065,0.239,0.157C12.336,73.291,12.665,73.603,12.997,73.911
			L12.997,73.911z"/>
	</g>
	<g>
		<path fill="#263C94" d="M101.771,33.649c0-0.331-0.013-0.656-0.04-0.974c-0.027-0.318-0.093-0.6-0.198-0.845
			c-0.106-0.245-0.268-0.444-0.486-0.596c-0.218-0.152-0.519-0.229-0.902-0.229c-0.462,0-0.833,0.106-1.11,0.318
			c-0.277,0.212-0.416,0.57-0.416,1.074c0,0.278,0.042,0.521,0.128,0.726c0.086,0.206,0.198,0.388,0.337,0.547
			c0.139,0.159,0.304,0.308,0.496,0.447s0.4,0.275,0.625,0.408c0.225,0.146,0.492,0.318,0.803,0.517
			c0.311,0.199,0.625,0.411,0.941,0.636c0.317,0.226,0.618,0.451,0.902,0.676c0.284,0.226,0.525,0.431,0.724,0.616
			c0.476,0.464,0.803,0.938,0.981,1.422s0.268,1.051,0.268,1.7c0,0.703-0.112,1.322-0.337,1.859
			c-0.225,0.537-0.539,0.984-0.941,1.342c-0.403,0.358-0.886,0.63-1.447,0.815c-0.562,0.186-1.18,0.278-1.854,0.278
			c-0.833,0-1.536-0.113-2.111-0.338c-0.575-0.226-1.041-0.537-1.397-0.935c-0.356-0.398-0.614-0.875-0.773-1.432
			s-0.238-1.166-0.238-1.829v-1.094H98.5v0.875c-0.027,0.729,0.086,1.329,0.337,1.799c0.251,0.471,0.72,0.706,1.407,0.706
			c1.15,0,1.725-0.583,1.725-1.75c0-0.438-0.096-0.812-0.288-1.123s-0.466-0.593-0.822-0.845c-0.357-0.278-0.733-0.547-1.13-0.805
			c-0.396-0.259-0.79-0.52-1.18-0.786c-0.39-0.265-0.763-0.546-1.12-0.845s-0.674-0.633-0.951-1.004
			c-0.476-0.702-0.714-1.464-0.714-2.286c0-1.286,0.357-2.263,1.07-2.933c0.714-0.669,1.81-1.004,3.291-1.004
			c0.74,0,1.357,0.086,1.853,0.258c0.496,0.173,0.905,0.401,1.229,0.686c0.324,0.285,0.568,0.604,0.733,0.955
			c0.165,0.351,0.284,0.709,0.356,1.074s0.116,0.716,0.129,1.054s0.02,0.626,0.02,0.865H101.771z"/>
		<path fill="#263C94" d="M110.868,44.028V29.116h2.775v14.912H110.868z"/>
		<path fill="#263C94" d="M126.725,29.116h2.775v14.912h-2.894l-2.16-5.309c-0.37-0.888-0.71-1.803-1.021-2.744
			c-0.311-0.941-0.631-2.001-0.961-3.181h-0.04c0.053,0.624,0.106,1.299,0.159,2.028s0.099,1.471,0.139,2.227
			c0.04,0.756,0.073,1.491,0.099,2.207s0.04,1.372,0.04,1.968v2.804h-2.775V29.116h2.874l2.161,5.428
			c0.357,0.862,0.69,1.763,1.001,2.704c0.31,0.941,0.637,2.015,0.981,3.221h0.04c-0.053-0.676-0.103-1.372-0.148-2.087
			c-0.046-0.716-0.089-1.432-0.129-2.147s-0.073-1.425-0.099-2.127c-0.027-0.703-0.04-1.392-0.04-2.068V29.116z"/>
		<path fill="#263C94" d="M136,44.028V29.116h5.788c0.171,0,0.376,0.023,0.614,0.07s0.489,0.132,0.753,0.258
			c0.264,0.126,0.528,0.298,0.792,0.517s0.502,0.5,0.714,0.845c0.317,0.517,0.532,1.193,0.644,2.028
			c0.112,0.835,0.168,1.875,0.168,3.122c0,0.742-0.013,1.495-0.04,2.256c-0.027,0.763-0.109,1.491-0.248,2.188
			c-0.139,0.696-0.363,1.325-0.674,1.889s-0.75,1.011-1.318,1.342c-0.304,0.186-0.638,0.298-1.001,0.338
			c-0.364,0.04-0.717,0.06-1.061,0.06H136z M139.984,41.841c0.621,0,1.106-0.089,1.457-0.269c0.35-0.179,0.615-0.487,0.793-0.924
			c0.178-0.438,0.288-1.017,0.327-1.74s0.06-1.621,0.06-2.694c0-0.875-0.027-1.624-0.08-2.247s-0.155-1.133-0.307-1.531
			c-0.152-0.397-0.36-0.686-0.625-0.865c-0.264-0.179-0.601-0.269-1.011-0.269h-1.823v10.538H139.984z"/>
		<path fill="#263C94" d="M151.758,44.028V29.116h2.775v5.905h3.885v-5.905h2.773v14.912h-2.773v-6.82h-3.885v6.82H151.758z"/>
		<path fill="#263C94" d="M176.215,44.028V29.116h4.48c0.291,0,0.584,0.01,0.881,0.03c0.299,0.02,0.578,0.066,0.844,0.139
			c0.264,0.073,0.518,0.183,0.762,0.328c0.246,0.146,0.467,0.345,0.664,0.597c0.318,0.411,0.52,0.835,0.605,1.272
			s0.129,0.908,0.129,1.412c0,0.318-0.023,0.636-0.07,0.954c-0.045,0.318-0.131,0.613-0.258,0.885
			c-0.125,0.272-0.307,0.521-0.545,0.746c-0.236,0.226-0.541,0.405-0.91,0.537v0.04c0.779,0.106,1.334,0.467,1.664,1.084
			c0.33,0.616,0.496,1.408,0.496,2.376c0,0.305-0.014,0.61-0.041,0.915c-0.025,0.305-0.078,0.61-0.158,0.915
			c-0.303,0.941-0.74,1.624-1.309,2.048s-1.348,0.636-2.338,0.636H176.215z M179.506,35.14c0.344,0,0.703-0.017,1.08-0.05
			c0.377-0.033,0.678-0.188,0.902-0.467c0.131-0.185,0.215-0.411,0.248-0.676c0.031-0.265,0.049-0.577,0.049-0.935
			c0-0.557-0.092-0.974-0.277-1.252s-0.596-0.431-1.229-0.458h-1.289v3.837H179.506z M179.586,41.841c0.289,0,0.574,0,0.852,0
			c0.291,0,0.561-0.053,0.813-0.159c0.186-0.08,0.334-0.199,0.445-0.358c0.113-0.159,0.199-0.331,0.258-0.517
			c0.061-0.185,0.1-0.384,0.119-0.596s0.029-0.411,0.029-0.597c0-0.397-0.025-0.742-0.078-1.034s-0.152-0.53-0.297-0.716
			c-0.146-0.186-0.352-0.321-0.615-0.408c-0.264-0.086-0.615-0.129-1.051-0.129h-1.07v4.514H179.586z"/>
		<path fill="#263C94" d="M190.883,35.379c0.027-0.955,0.086-1.836,0.18-2.645c0.092-0.808,0.299-1.508,0.623-2.098
			c0.324-0.589,0.803-1.05,1.438-1.382c0.635-0.331,1.506-0.497,2.617-0.497c1.109,0,1.98,0.166,2.615,0.497
			c0.635,0.332,1.113,0.792,1.438,1.382c0.324,0.59,0.531,1.29,0.625,2.098c0.092,0.809,0.15,1.69,0.178,2.645v2.127
			c0,0.994-0.039,1.912-0.119,2.754s-0.281,1.567-0.605,2.177c-0.322,0.61-0.809,1.087-1.455,1.432
			c-0.648,0.345-1.541,0.517-2.676,0.517c-1.137,0-2.029-0.172-2.676-0.517c-0.648-0.344-1.135-0.822-1.457-1.432
			c-0.324-0.609-0.525-1.335-0.605-2.177c-0.078-0.842-0.119-1.76-0.119-2.754V35.379z M193.739,38.898
			c0,0.305,0.016,0.646,0.049,1.024c0.033,0.378,0.111,0.733,0.238,1.064c0.125,0.332,0.322,0.606,0.594,0.825
			s0.645,0.328,1.121,0.328c0.488,0,0.867-0.113,1.139-0.338c0.271-0.225,0.473-0.513,0.605-0.865
			c0.131-0.351,0.207-0.729,0.227-1.133s0.031-0.785,0.031-1.143v-3.818c0-0.291-0.008-0.656-0.021-1.093
			c-0.012-0.438-0.082-0.862-0.207-1.272c-0.127-0.411-0.324-0.759-0.596-1.044c-0.27-0.285-0.664-0.428-1.178-0.428
			c-0.543,0-0.953,0.143-1.23,0.428s-0.473,0.626-0.584,1.024c-0.113,0.397-0.172,0.809-0.178,1.233
			c-0.008,0.424-0.01,0.782-0.01,1.073V38.898z"/>
		<path fill="#263C94" d="M205.69,44.028l3.547-14.912h3.746l3.369,14.912h-2.973l-0.732-3.778h-3.252l-0.732,3.778H205.69z
			 M209.833,38.063h2.377l-0.752-4.235c-0.066-0.345-0.119-0.689-0.158-1.034c-0.041-0.344-0.08-0.689-0.119-1.034
			c-0.014-0.172-0.027-0.341-0.041-0.507c-0.012-0.166-0.033-0.328-0.059-0.487h-0.039c-0.027,0.159-0.047,0.321-0.061,0.487
			c-0.014,0.166-0.025,0.335-0.039,0.507c-0.039,0.345-0.08,0.689-0.119,1.034c-0.039,0.345-0.092,0.689-0.158,1.034L209.833,38.063
			z"/>
		<path fill="#263C94" d="M224.34,37.605v6.422h-2.773V29.116h5.252c0.594,0,1.148,0.057,1.664,0.169
			c0.516,0.113,0.961,0.308,1.338,0.586s0.674,0.646,0.893,1.104c0.219,0.458,0.326,1.031,0.326,1.72
			c0,0.411-0.033,0.815-0.098,1.213c-0.066,0.397-0.182,0.762-0.348,1.093c-0.166,0.332-0.396,0.613-0.693,0.845
			s-0.678,0.381-1.141,0.447v0.04c0.82,0.106,1.381,0.405,1.686,0.895c0.303,0.49,0.455,1.093,0.455,1.809c0,0.106,0,0.285,0,0.537
			s0.004,0.54,0.01,0.865c0.008,0.325,0.021,0.666,0.041,1.024s0.049,0.693,0.088,1.004c0.041,0.312,0.096,0.587,0.17,0.825
			c0.072,0.239,0.168,0.391,0.287,0.458v0.278h-3.053c-0.08-0.239-0.139-0.523-0.178-0.855c-0.041-0.331-0.07-0.672-0.09-1.024
			c-0.02-0.351-0.029-0.692-0.029-1.024c0-0.331,0-0.623,0-0.875c0-0.225-0.008-0.467-0.02-0.726
			c-0.014-0.258-0.051-0.503-0.109-0.736c-0.061-0.231-0.152-0.438-0.277-0.616c-0.127-0.179-0.309-0.301-0.545-0.368
			c-0.385-0.106-0.773-0.166-1.17-0.179c-0.396-0.013-0.793-0.02-1.189-0.02H224.34z M224.34,35.418h2.182
			c0.447-0.026,0.832-0.205,1.148-0.537c0.318-0.331,0.477-0.868,0.477-1.61c0-0.411-0.043-0.746-0.129-1.004
			c-0.086-0.258-0.205-0.457-0.357-0.596s-0.334-0.235-0.545-0.289c-0.211-0.053-0.449-0.08-0.713-0.08h-2.063V35.418z"/>
		<path fill="#263C94" d="M237.52,44.028V29.116h5.789c0.172,0,0.375,0.023,0.613,0.07s0.488,0.132,0.754,0.258
			c0.264,0.126,0.527,0.298,0.793,0.517c0.264,0.219,0.502,0.5,0.713,0.845c0.318,0.517,0.531,1.193,0.645,2.028
			c0.111,0.835,0.168,1.875,0.168,3.122c0,0.742-0.014,1.495-0.039,2.256c-0.027,0.763-0.109,1.491-0.248,2.188
			c-0.139,0.696-0.363,1.325-0.674,1.889s-0.75,1.011-1.318,1.342c-0.305,0.186-0.637,0.298-1,0.338
			c-0.363,0.04-0.717,0.06-1.061,0.06H237.52z M241.504,41.841c0.621,0,1.107-0.089,1.457-0.269c0.35-0.179,0.615-0.487,0.793-0.924
			c0.178-0.438,0.287-1.017,0.326-1.74c0.041-0.723,0.061-1.621,0.061-2.694c0-0.875-0.027-1.624-0.08-2.247
			s-0.154-1.133-0.307-1.531c-0.152-0.397-0.359-0.686-0.625-0.865c-0.264-0.179-0.602-0.269-1.01-0.269h-1.824v10.538H241.504z"/>
		<path fill="#263C94" d="M261.821,35.379c0.027-0.955,0.086-1.836,0.18-2.645c0.092-0.808,0.299-1.508,0.623-2.098
			c0.324-0.589,0.803-1.05,1.438-1.382c0.635-0.331,1.506-0.497,2.617-0.497c1.109,0,1.98,0.166,2.615,0.497
			c0.635,0.332,1.113,0.792,1.438,1.382c0.324,0.59,0.531,1.29,0.625,2.098c0.092,0.809,0.15,1.69,0.178,2.645v2.127
			c0,0.994-0.039,1.912-0.119,2.754s-0.281,1.567-0.605,2.177c-0.322,0.61-0.809,1.087-1.455,1.432
			c-0.648,0.345-1.541,0.517-2.676,0.517c-1.137,0-2.029-0.172-2.676-0.517c-0.648-0.344-1.135-0.822-1.457-1.432
			c-0.324-0.609-0.525-1.335-0.605-2.177c-0.078-0.842-0.119-1.76-0.119-2.754V35.379z M264.676,38.898
			c0,0.305,0.016,0.646,0.049,1.024c0.033,0.378,0.111,0.733,0.238,1.064c0.125,0.332,0.322,0.606,0.594,0.825
			s0.645,0.328,1.121,0.328c0.488,0,0.867-0.113,1.139-0.338c0.271-0.225,0.473-0.513,0.605-0.865
			c0.131-0.351,0.207-0.729,0.227-1.133s0.031-0.785,0.031-1.143v-3.818c0-0.291-0.008-0.656-0.021-1.093
			c-0.012-0.438-0.082-0.862-0.207-1.272c-0.127-0.411-0.324-0.759-0.596-1.044c-0.27-0.285-0.664-0.428-1.178-0.428
			c-0.543,0-0.953,0.143-1.23,0.428s-0.473,0.626-0.584,1.024c-0.113,0.397-0.172,0.809-0.178,1.233
			c-0.008,0.424-0.01,0.782-0.01,1.073V38.898z"/>
		<path fill="#263C94" d="M277.895,44.028V29.116h7.869v2.187h-5.094v3.778h4.777v2.187h-4.777v6.76H277.895z"/>
		<path fill="#263C94" d="M95.091,52.975h9.256v2.188h-3.231v12.725h-2.775V55.163h-3.25V52.975z"/>
		<path fill="#263C94" d="M105.933,67.887V52.975h7.809v2.188h-5.034v3.758h4.638v2.187h-4.638V65.7h5.034v2.188H105.933z"/>
		<path fill="#263C94" d="M124.723,62.579c-0.013,0.146-0.023,0.288-0.029,0.428c-0.007,0.139-0.017,0.281-0.03,0.427
			c-0.04,0.677-0.132,1.31-0.278,1.899s-0.376,1.101-0.693,1.53c-0.317,0.432-0.733,0.77-1.249,1.015
			c-0.515,0.245-1.156,0.367-1.922,0.367c-1.137,0-2.029-0.172-2.676-0.517c-0.647-0.345-1.133-0.821-1.457-1.432
			c-0.324-0.609-0.525-1.335-0.604-2.177c-0.079-0.842-0.119-1.76-0.119-2.754v-2.128c0.026-0.954,0.085-1.835,0.178-2.644
			c0.092-0.809,0.3-1.508,0.625-2.098c0.323-0.59,0.803-1.051,1.437-1.382c0.634-0.332,1.506-0.497,2.616-0.497
			c2.51,0.039,3.865,1.325,4.063,3.856c0.026,0.187,0.046,0.375,0.06,0.567s0.013,0.381,0,0.566h-2.735
			c-0.026-0.238-0.049-0.517-0.069-0.835c-0.02-0.318-0.069-0.616-0.148-0.895c-0.08-0.278-0.208-0.518-0.387-0.716
			c-0.178-0.199-0.439-0.299-0.783-0.299c-0.542,0-0.952,0.143-1.229,0.428s-0.473,0.626-0.584,1.023
			c-0.113,0.398-0.172,0.81-0.179,1.233s-0.01,0.782-0.01,1.073v4.136c0,0.306,0.017,0.646,0.049,1.024
			c0.033,0.378,0.112,0.732,0.238,1.063c0.125,0.331,0.323,0.606,0.594,0.825s0.645,0.328,1.12,0.328
			c0.383,0,0.667-0.133,0.852-0.397c0.185-0.266,0.317-0.584,0.396-0.955c0.08-0.371,0.122-0.748,0.129-1.133
			c0.006-0.385,0.017-0.696,0.03-0.935H124.723z"/>
		<path fill="#263C94" d="M126.942,67.887V52.975h2.775v5.905h3.885v-5.905h2.775v14.912h-2.775v-6.819h-3.885v6.819H126.942z"/>
		<path fill="#263C94" d="M145.693,52.975h2.774v14.912h-2.894l-2.16-5.309c-0.37-0.888-0.71-1.803-1.021-2.744
			c-0.311-0.94-0.631-2.001-0.961-3.181h-0.04c0.053,0.623,0.106,1.299,0.159,2.027c0.053,0.729,0.099,1.472,0.139,2.228
			c0.04,0.755,0.073,1.491,0.099,2.207s0.04,1.371,0.04,1.968v2.804h-2.775V52.975h2.874l2.161,5.428
			c0.357,0.862,0.69,1.764,1.001,2.704c0.31,0.941,0.637,2.016,0.981,3.222h0.04c-0.053-0.677-0.103-1.372-0.148-2.088
			c-0.046-0.716-0.089-1.432-0.129-2.147s-0.073-1.425-0.099-2.128c-0.027-0.702-0.04-1.392-0.04-2.067V52.975z"/>
		<path fill="#263C94" d="M151.182,67.887V52.975h2.775v14.912H151.182z"/>
		<path fill="#263C94" d="M165.473,62.579c-0.014,0.146-0.023,0.288-0.029,0.428c-0.008,0.139-0.018,0.281-0.029,0.427
			c-0.041,0.677-0.133,1.31-0.277,1.899c-0.146,0.59-0.377,1.101-0.695,1.53c-0.316,0.432-0.732,0.77-1.248,1.015
			s-1.156,0.367-1.922,0.367c-1.137,0-2.029-0.172-2.676-0.517c-0.648-0.345-1.133-0.821-1.457-1.432
			c-0.324-0.609-0.525-1.335-0.605-2.177c-0.078-0.842-0.119-1.76-0.119-2.754v-2.128c0.027-0.954,0.086-1.835,0.18-2.644
			c0.092-0.809,0.301-1.508,0.623-2.098c0.324-0.59,0.803-1.051,1.438-1.382c0.635-0.332,1.506-0.497,2.617-0.497
			c2.51,0.039,3.865,1.325,4.063,3.856c0.027,0.187,0.047,0.375,0.061,0.567c0.012,0.192,0.012,0.381,0,0.566h-2.736
			c-0.027-0.238-0.049-0.517-0.068-0.835c-0.021-0.318-0.07-0.616-0.15-0.895c-0.078-0.278-0.207-0.518-0.385-0.716
			c-0.18-0.199-0.439-0.299-0.783-0.299c-0.543,0-0.951,0.143-1.229,0.428c-0.279,0.285-0.473,0.626-0.586,1.023
			c-0.111,0.398-0.172,0.81-0.178,1.233c-0.008,0.424-0.01,0.782-0.01,1.073v4.136c0,0.306,0.016,0.646,0.049,1.024
			s0.113,0.732,0.238,1.063s0.324,0.606,0.594,0.825c0.271,0.219,0.645,0.328,1.121,0.328c0.383,0,0.666-0.133,0.852-0.397
			c0.186-0.266,0.316-0.584,0.396-0.955s0.123-0.748,0.129-1.133s0.016-0.696,0.029-0.935H165.473z"/>
		<path fill="#263C94" d="M166.524,67.887l3.549-14.912h3.746l3.369,14.912h-2.973l-0.734-3.777h-3.25l-0.734,3.777H166.524z
			 M170.667,61.922h2.379l-0.754-4.235c-0.066-0.344-0.119-0.688-0.158-1.033s-0.08-0.689-0.119-1.034
			c-0.014-0.172-0.027-0.341-0.039-0.507c-0.014-0.166-0.033-0.328-0.061-0.487h-0.039c-0.027,0.159-0.047,0.321-0.059,0.487
			c-0.014,0.166-0.027,0.335-0.041,0.507c-0.039,0.345-0.078,0.689-0.119,1.034c-0.039,0.345-0.092,0.689-0.158,1.033
			L170.667,61.922z"/>
		<path fill="#263C94" d="M178.713,67.887V52.975h2.775V65.7h5.154v2.188H178.713z"/>
		<path fill="#263C94" d="M193.5,67.887V52.975h7.809v2.188h-5.035v3.758h4.639v2.187h-4.639V65.7h5.035v2.188H193.5z"/>
		<path fill="#263C94" d="M203.569,67.887V52.975h5.787c0.172,0,0.377,0.023,0.615,0.069c0.238,0.047,0.488,0.133,0.752,0.259
			c0.266,0.126,0.529,0.298,0.793,0.517c0.266,0.219,0.502,0.501,0.715,0.846c0.316,0.517,0.531,1.192,0.643,2.027
			c0.113,0.835,0.17,1.876,0.17,3.122c0,0.742-0.014,1.494-0.041,2.257c-0.025,0.762-0.107,1.491-0.246,2.187
			c-0.139,0.696-0.365,1.326-0.674,1.89c-0.311,0.563-0.75,1.011-1.318,1.342c-0.305,0.186-0.639,0.298-1.002,0.338
			s-0.717,0.06-1.061,0.06H203.569z M207.553,65.7c0.621,0,1.105-0.089,1.457-0.268c0.35-0.18,0.613-0.487,0.793-0.925
			c0.178-0.438,0.287-1.018,0.326-1.74c0.039-0.722,0.059-1.62,0.059-2.693c0-0.875-0.025-1.624-0.078-2.247
			s-0.156-1.134-0.307-1.531c-0.152-0.397-0.361-0.686-0.625-0.865c-0.266-0.179-0.602-0.268-1.012-0.268h-1.822V65.7H207.553z"/>
		<path fill="#263C94" d="M222.26,52.975h2.773v10.398c0,0.822-0.076,1.538-0.227,2.147c-0.152,0.61-0.406,1.117-0.764,1.521
			s-0.836,0.705-1.438,0.904s-1.357,0.298-2.27,0.298s-1.672-0.099-2.279-0.298s-1.094-0.5-1.457-0.904s-0.621-0.911-0.771-1.521
			c-0.152-0.609-0.229-1.325-0.229-2.147V52.975h2.775v10.16c0,0.357,0.016,0.709,0.049,1.054s0.111,0.649,0.238,0.915
			c0.125,0.265,0.32,0.48,0.584,0.646c0.264,0.166,0.635,0.249,1.109,0.249c0.449,0,0.803-0.083,1.061-0.249
			c0.258-0.165,0.449-0.381,0.576-0.646c0.125-0.266,0.201-0.57,0.227-0.915c0.027-0.345,0.041-0.696,0.041-1.054V52.975z"/>
		<path fill="#263C94" d="M236.51,62.579c-0.014,0.146-0.023,0.288-0.029,0.428c-0.008,0.139-0.018,0.281-0.029,0.427
			c-0.041,0.677-0.133,1.31-0.277,1.899c-0.146,0.59-0.377,1.101-0.695,1.53c-0.316,0.432-0.732,0.77-1.248,1.015
			s-1.156,0.367-1.922,0.367c-1.137,0-2.029-0.172-2.676-0.517c-0.648-0.345-1.133-0.821-1.457-1.432
			c-0.324-0.609-0.525-1.335-0.605-2.177c-0.078-0.842-0.119-1.76-0.119-2.754v-2.128c0.027-0.954,0.086-1.835,0.18-2.644
			c0.092-0.809,0.301-1.508,0.623-2.098c0.324-0.59,0.803-1.051,1.438-1.382c0.635-0.332,1.506-0.497,2.617-0.497
			c2.51,0.039,3.865,1.325,4.063,3.856c0.027,0.187,0.047,0.375,0.061,0.567c0.012,0.192,0.012,0.381,0,0.566h-2.736
			c-0.027-0.238-0.049-0.517-0.068-0.835c-0.021-0.318-0.07-0.616-0.15-0.895c-0.078-0.278-0.207-0.518-0.385-0.716
			c-0.18-0.199-0.439-0.299-0.783-0.299c-0.543,0-0.951,0.143-1.229,0.428c-0.279,0.285-0.473,0.626-0.586,1.023
			c-0.111,0.398-0.172,0.81-0.178,1.233c-0.008,0.424-0.01,0.782-0.01,1.073v4.136c0,0.306,0.016,0.646,0.049,1.024
			s0.113,0.732,0.238,1.063s0.324,0.606,0.594,0.825c0.271,0.219,0.645,0.328,1.121,0.328c0.383,0,0.666-0.133,0.852-0.397
			c0.186-0.266,0.316-0.584,0.396-0.955s0.123-0.748,0.129-1.133s0.016-0.696,0.029-0.935H236.51z"/>
		<path fill="#263C94" d="M237.561,67.887l3.549-14.912h3.746l3.369,14.912h-2.973l-0.734-3.777h-3.25l-0.734,3.777H237.561z
			 M241.704,61.922h2.379l-0.754-4.235c-0.066-0.344-0.119-0.688-0.158-1.033s-0.08-0.689-0.119-1.034
			c-0.014-0.172-0.027-0.341-0.039-0.507c-0.014-0.166-0.033-0.328-0.061-0.487h-0.039c-0.027,0.159-0.047,0.321-0.059,0.487
			c-0.014,0.166-0.027,0.335-0.041,0.507c-0.039,0.345-0.078,0.689-0.119,1.034c-0.039,0.345-0.092,0.689-0.158,1.033
			L241.704,61.922z"/>
		<path fill="#263C94" d="M247.649,52.975h9.256v2.188h-3.23v12.725h-2.773V55.163h-3.252V52.975z"/>
		<path fill="#263C94" d="M258.59,67.887V52.975h2.775v14.912H258.59z"/>
		<path fill="#263C94" d="M263.942,59.238c0.027-0.954,0.086-1.835,0.18-2.644c0.092-0.809,0.299-1.508,0.623-2.098
			s0.803-1.051,1.438-1.382c0.635-0.332,1.506-0.497,2.617-0.497c1.109,0,1.98,0.165,2.615,0.497
			c0.635,0.331,1.113,0.792,1.438,1.382s0.531,1.289,0.625,2.098c0.092,0.809,0.15,1.689,0.178,2.644v2.128
			c0,0.994-0.039,1.912-0.119,2.754s-0.281,1.567-0.605,2.177c-0.322,0.61-0.809,1.087-1.455,1.432
			c-0.648,0.345-1.541,0.517-2.676,0.517c-1.137,0-2.029-0.172-2.676-0.517c-0.648-0.345-1.135-0.821-1.457-1.432
			c-0.324-0.609-0.525-1.335-0.605-2.177c-0.078-0.842-0.119-1.76-0.119-2.754V59.238z M266.797,62.757
			c0,0.306,0.016,0.646,0.049,1.024s0.111,0.732,0.238,1.063c0.125,0.331,0.322,0.606,0.594,0.825s0.645,0.328,1.121,0.328
			c0.488,0,0.867-0.112,1.139-0.338s0.473-0.514,0.605-0.865c0.131-0.351,0.207-0.729,0.227-1.133s0.031-0.786,0.031-1.144v-3.817
			c0-0.292-0.008-0.656-0.021-1.094c-0.012-0.438-0.082-0.861-0.207-1.272c-0.127-0.411-0.324-0.759-0.596-1.044
			c-0.27-0.285-0.664-0.428-1.178-0.428c-0.543,0-0.953,0.143-1.23,0.428s-0.473,0.626-0.584,1.023
			c-0.113,0.398-0.172,0.81-0.178,1.233c-0.008,0.424-0.01,0.782-0.01,1.073V62.757z"/>
		<path fill="#263C94" d="M282.831,52.975h2.775v14.912h-2.893l-2.162-5.309c-0.369-0.888-0.709-1.803-1.02-2.744
			c-0.311-0.94-0.631-2.001-0.961-3.181h-0.041c0.053,0.623,0.105,1.299,0.158,2.027c0.053,0.729,0.1,1.472,0.141,2.228
			c0.039,0.755,0.072,1.491,0.098,2.207c0.027,0.716,0.041,1.371,0.041,1.968v2.804h-2.775V52.975h2.873l2.16,5.428
			c0.357,0.862,0.691,1.764,1.002,2.704c0.311,0.941,0.637,2.016,0.98,3.222h0.041c-0.055-0.677-0.104-1.372-0.15-2.088
			c-0.045-0.716-0.088-1.432-0.129-2.147c-0.039-0.716-0.072-1.425-0.098-2.128c-0.027-0.702-0.041-1.392-0.041-2.067V52.975z"/>
	</g>
</g>
</svg>
